<svg width="32" height="33" viewBox="0 0 32 33" fill="none" xmlns="http://www.w3.org/2000/svg">
<path fill-rule="evenodd" clip-rule="evenodd" d="M15.9699 6.22088C15.9887 6.2115 16.0108 6.2115 16.0295 6.22089L25.8018 11.107C25.8509 11.1316 25.8509 11.2017 25.8018 11.2263L16.0295 16.1124C16.0108 16.1218 15.9887 16.1218 15.9699 16.1124L6.19766 11.2263C6.14852 11.2017 6.14852 11.1316 6.19766 11.107L15.9699 6.22088ZM16.3277 5.6246C16.1212 5.52137 15.8782 5.52137 15.6718 5.6246L5.89952 10.5107C5.35901 10.781 5.35902 11.5523 5.89952 11.8225L9.92103 13.8333L5.89954 15.8441C5.35904 16.1143 5.35904 16.8856 5.89954 17.1559L9.92104 19.1666L5.89954 21.1774C5.35904 21.4476 5.35904 22.219 5.89954 22.4892L15.6718 27.3753C15.8782 27.4786 16.1212 27.4786 16.3277 27.3753L26.0999 22.4892C26.6404 22.219 26.6404 21.4476 26.0999 21.1774L22.0784 19.1666L26.0999 17.1559C26.6404 16.8856 26.6404 16.1143 26.0999 15.8441L22.0784 13.8333L26.0999 11.8225C26.6404 11.5523 26.6404 10.781 26.0999 10.5107L16.3277 5.6246ZM21.3331 14.206L16.3277 16.7087C16.1212 16.8119 15.8782 16.8119 15.6718 16.7087L10.6664 14.206L6.19768 16.4403C6.14854 16.4649 6.14854 16.535 6.19768 16.5596L15.9699 21.4457C15.9887 21.4551 16.0108 21.4551 16.0295 21.4457L25.8018 16.5596C25.8509 16.535 25.8509 16.4649 25.8018 16.4403L21.3331 14.206ZM16.3277 22.042L21.3331 19.5393L25.8018 21.7737C25.8509 21.7982 25.8509 21.8684 25.8018 21.8929L16.0295 26.779C16.0108 26.7884 15.9887 26.7884 15.9699 26.779L6.19768 21.8929C6.14854 21.8684 6.14854 21.7982 6.19768 21.7737L10.6664 19.5393L15.6718 22.042C15.8782 22.1452 16.1212 22.1452 16.3277 22.042Z" fill="black"/>
</svg>
