<svg width="1723" height="212" viewBox="0 0 1723 212" fill="none" xmlns="http://www.w3.org/2000/svg">
<path fill-rule="evenodd" clip-rule="evenodd" d="M682.631 15.4011L690.914 0.547422C691.293 -0.132522 692.269 -0.137585 692.656 0.538399L803.824 195.146C804.205 195.813 803.724 196.642 802.956 196.642H763.9C763.543 196.642 763.213 196.451 763.034 196.142L691.9 72.8212L620.622 196.142C620.443 196.451 620.113 196.641 619.756 196.641H580.371C579.603 196.641 579.121 195.81 579.504 195.144L682.631 15.4011ZM1187.29 196.873V6.4394H1187.54L1280.36 138.064L1375.24 6.4394H1375.73V196.873H1339.69V109.561L1280.02 194.387H1279.52L1222.09 114.974V196.873H1187.29ZM964.396 105.634C964.396 93.0378 966.8 81.1046 971.606 69.8344C976.413 58.5641 983.042 48.6198 991.495 40.0014C1000.11 31.2173 1010.06 24.3392 1021.33 19.367C1032.6 14.3949 1044.7 11.9088 1057.62 11.9088C1070.39 11.9088 1082.4 14.3949 1093.67 19.367C1104.94 24.3392 1114.89 31.2173 1123.51 40.0014C1132.29 48.6198 1139.08 58.5641 1143.89 69.8344C1148.86 81.1046 1151.35 93.0378 1151.35 105.634C1151.35 118.561 1148.86 130.66 1143.89 141.931C1139.08 153.201 1132.29 163.145 1123.51 171.764C1114.89 180.216 1104.94 186.846 1093.67 191.652C1082.4 196.459 1070.39 198.862 1057.62 198.862C1044.7 198.862 1032.6 196.459 1021.33 191.652C1010.06 186.846 1000.11 180.216 991.495 171.764C983.042 163.145 976.413 153.201 971.606 141.931C966.8 130.66 964.396 118.561 964.396 105.634ZM1001.69 105.634C1001.69 113.755 1003.1 121.379 1005.91 128.506C1008.9 135.467 1012.96 141.682 1018.1 147.151C1023.4 152.455 1029.45 156.598 1036.24 159.582C1043.21 162.565 1050.75 164.057 1058.87 164.057C1066.66 164.057 1073.87 162.565 1080.5 159.582C1087.29 156.598 1093.18 152.455 1098.15 147.151C1103.12 141.682 1107.01 135.467 1109.83 128.506C1112.65 121.379 1114.06 113.755 1114.06 105.634C1114.06 97.347 1112.57 89.6401 1109.58 82.5134C1106.77 75.3866 1102.79 69.1714 1097.65 63.8678C1092.68 58.3984 1086.79 54.1721 1080 51.1888C1073.2 48.2055 1065.83 46.7139 1057.87 46.7139C1049.92 46.7139 1042.54 48.2055 1035.75 51.1888C1028.95 54.1721 1022.99 58.3984 1017.85 63.8678C1012.71 69.1714 1008.73 75.3866 1005.91 82.5134C1003.1 89.6401 1001.69 97.347 1001.69 105.634ZM1460.57 145.908C1457.09 140.605 1455.35 135.052 1455.35 129.252V13.8976H1419.3V129.997C1419.3 143.422 1422.61 155.355 1429.24 165.797C1435.87 176.073 1444.74 184.194 1455.85 190.161C1467.12 195.961 1479.55 198.862 1493.14 198.862C1506.89 198.862 1519.41 195.961 1530.68 190.161C1541.95 184.194 1550.9 176.073 1557.53 165.797C1564.16 155.355 1567.47 143.422 1567.47 129.997V13.8976H1531.92V129.252C1531.92 135.052 1530.18 140.605 1526.7 145.908C1523.38 151.212 1518.83 155.521 1513.03 158.836C1507.22 162.151 1500.59 163.808 1493.14 163.808C1486.34 163.808 1480.04 162.151 1474.24 158.836C1468.61 155.521 1464.05 151.212 1460.57 145.908ZM1708.64 58.1498C1701.68 54.3378 1694.56 51.1888 1687.26 48.7027C1680.14 46.2166 1673.43 44.9736 1667.13 44.9736C1659.34 44.9736 1653.2 46.5481 1648.73 49.6971C1644.26 52.8462 1642.02 57.5697 1642.02 63.8678C1642.02 68.177 1643.68 72.0719 1646.99 75.5524C1650.47 78.8671 1654.86 81.8504 1660.17 84.5022C1665.64 87.154 1671.27 89.5573 1677.07 91.7119C1682.37 93.7007 1687.6 96.1039 1692.73 98.9215C1698.04 101.573 1702.76 104.971 1706.9 109.114C1711.05 113.092 1714.36 118.147 1716.85 124.279C1719.33 130.246 1720.58 137.621 1720.58 146.406C1720.58 155.687 1718.17 164.305 1713.37 172.261C1708.56 180.216 1701.52 186.68 1692.24 191.652C1682.96 196.459 1671.52 198.862 1657.93 198.862C1650.97 198.862 1643.84 198.199 1636.55 196.873C1629.42 195.381 1622.38 193.227 1615.42 190.409C1608.46 187.426 1601.74 183.697 1595.28 179.222L1611.19 151.129C1615.5 154.278 1620.14 157.096 1625.11 159.582C1630.25 161.902 1635.39 163.725 1640.53 165.051C1645.66 166.377 1650.39 167.04 1654.7 167.04C1659.01 167.04 1663.31 166.46 1667.62 165.3C1672.1 163.974 1675.75 161.819 1678.56 158.836C1681.55 155.853 1683.04 151.709 1683.04 146.406C1683.04 142.759 1681.79 139.445 1679.31 136.461C1676.99 133.478 1673.76 130.743 1669.61 128.257C1665.64 125.771 1661.24 123.617 1656.44 121.793C1650.8 119.639 1645 117.153 1639.03 114.335C1633.07 111.518 1627.43 108.12 1622.13 104.142C1616.99 99.9988 1612.76 94.9437 1609.45 88.9772C1606.3 82.8448 1604.73 75.3866 1604.73 66.6025C1604.73 55.9952 1607.05 46.7967 1611.69 39.007C1616.49 31.2173 1623.21 25.085 1631.82 20.61C1640.44 15.9694 1650.39 13.4004 1661.66 12.9032C1676.41 12.9032 1688.34 14.6435 1697.46 18.124C1706.74 21.6045 1715.03 25.7479 1722.32 30.5544L1708.64 58.1498ZM553.998 204.334L425.99 88.7141L426.711 196.876H390.166V6.69136H391.657L519.417 124.155L518.696 13.901H554.993V204.334H553.998ZM167.273 105.637C167.273 93.0411 169.677 81.1079 174.483 69.8377C179.289 58.5675 185.919 48.6232 194.372 40.0048C202.99 31.2207 212.934 24.3425 224.205 19.3703C235.475 14.3982 247.574 11.9121 260.501 11.9121C273.263 11.9121 285.279 14.3982 296.549 19.3703C307.82 24.3425 317.764 31.2207 326.382 40.0048C335.167 48.6232 341.962 58.5675 346.768 69.8377C351.74 81.1079 354.226 93.0411 354.226 105.637C354.226 118.565 351.74 130.664 346.768 141.934C341.962 153.204 335.167 163.148 326.382 171.767C317.764 180.22 307.82 186.849 296.549 191.655C285.279 196.462 273.263 198.865 260.501 198.865C247.574 198.865 235.475 196.462 224.205 191.655C212.934 186.849 202.99 180.22 194.372 171.767C185.919 163.148 179.289 153.204 174.483 141.934C169.677 130.664 167.273 118.565 167.273 105.637ZM204.565 105.637C204.565 113.758 205.973 121.382 208.791 128.509C211.774 135.47 215.835 141.685 220.973 147.155C226.276 152.458 232.326 156.602 239.121 159.585C246.082 162.568 253.623 164.06 261.744 164.06C269.534 164.06 276.744 162.568 283.373 159.585C290.168 156.602 296.052 152.458 301.024 147.155C305.997 141.685 309.891 135.47 312.709 128.509C315.526 121.382 316.935 113.758 316.935 105.637C316.935 97.3503 315.444 89.6435 312.46 82.5167C309.643 75.39 305.665 69.1748 300.527 63.8711C295.555 58.4018 289.671 54.1754 282.876 51.1921C276.081 48.2088 268.705 46.7172 260.75 46.7172C252.794 46.7172 245.419 48.2088 238.624 51.1921C231.829 54.1754 225.862 58.4018 220.724 63.8711C215.586 69.1748 211.608 75.39 208.791 82.5167C205.973 89.6435 204.565 97.3503 204.565 105.637ZM116.691 25.5869C105.421 17.7972 90.2561 13.9023 71.1962 13.9023H0.351562V196.878H78.4058C86.527 196.878 94.3996 195.966 102.024 194.143C109.648 192.154 116.443 189.088 122.409 184.944C128.542 180.635 133.348 175.083 136.829 168.288C140.475 161.327 142.298 152.874 142.298 142.93C142.298 132.157 138.9 122.958 132.105 115.334C126.834 109.292 120.068 104.347 111.805 100.498C117.132 97.1858 121.578 93.0983 125.144 88.236C130.779 80.612 133.597 71.1649 133.597 59.8947C133.597 44.6468 127.962 33.2108 116.691 25.5869ZM91.0848 82.2694C87.77 86.5786 82.5493 88.7332 75.4225 88.7332H36.3997V48.7074H72.9364C80.0632 48.7074 85.6983 50.2819 89.8418 53.4309C94.151 56.58 96.3056 61.3035 96.3056 67.6016C96.3056 73.0709 94.5653 77.9602 91.0848 82.2694ZM91.0848 161.327C86.7756 162.653 81.9692 163.316 76.6656 163.316H36.3997V123.538H74.1795C79.3174 123.538 84.2067 124.118 88.8473 125.279C93.6538 126.273 97.5486 128.179 100.532 130.997C103.515 133.648 105.007 137.626 105.007 142.93C105.007 147.57 103.764 151.465 101.278 154.614C98.7916 157.598 95.394 159.835 91.0848 161.327ZM782.115 14.5781H937.324L968.337 14.5788C969.106 14.5788 969.587 15.4098 969.204 16.0764L866.077 195.819L857.794 210.673C857.415 211.353 856.439 211.358 856.053 210.682L744.884 16.0743C744.503 15.4076 744.984 14.5783 745.752 14.5783L782.115 14.5781ZM805.398 49.273L908.322 49.273L856.808 138.399L805.398 49.273Z" fill="url(#paint0_linear_1874_9450)"/>
<defs>
<linearGradient id="paint0_linear_1874_9450" x1="862.524" y1="-165.773" x2="861.358" y2="211.186" gradientUnits="userSpaceOnUse">
<stop stop-color="white"/>
<stop offset="1" stop-color="white" stop-opacity="0"/>
</linearGradient>
</defs>
</svg>
