<svg width="658" height="2115" viewBox="0 0 658 2115" fill="none" xmlns="http://www.w3.org/2000/svg">
<path fill-rule="evenodd" clip-rule="evenodd" d="M329.431 399.923C329.535 400.027 329.703 400.027 329.807 399.923C329.876 399.854 329.827 399.736 329.729 399.736H329.619H329.509C329.411 399.736 329.361 399.854 329.431 399.923ZM109.223 399.923H329.431L219.327 509.861H219.703H439.535H439.911L329.807 399.923H550.015L549.827 399.736L439.911 289.986L439.723 289.798L329.619 399.736L219.515 289.798L219.327 289.986L109.411 399.736L109.223 399.923ZM219.515 289.798H439.723L331.032 181.272C330.251 180.492 328.987 180.492 328.206 181.272L219.515 289.798ZM550.015 399.923L439.911 509.861H655.285C657.068 509.861 657.96 507.705 656.698 506.446L550.015 399.923ZM109.223 399.923L2.53937 506.446C1.27797 507.705 2.16998 509.861 3.95252 509.861H219.327L109.223 399.923ZM283.823 484.491C282.041 484.491 281.149 482.335 282.41 481.075L328.206 435.349C328.987 434.569 330.251 434.569 331.032 435.349L376.828 481.075C378.089 482.335 377.197 484.491 375.414 484.491H283.823ZM110.636 435.161L156.62 481.075C157.881 482.335 156.989 484.491 155.207 484.491H63.2393C61.4567 484.491 60.5647 482.335 61.8261 481.075L107.81 435.161C108.591 434.382 109.855 434.382 110.636 435.161ZM217.914 325.224L172.118 370.95C170.857 372.21 171.749 374.365 173.531 374.365H265.122C266.905 374.365 267.797 372.21 266.535 370.95L220.74 325.224C219.959 324.444 218.695 324.444 217.914 325.224ZM487.12 370.95C488.381 372.21 487.489 374.365 485.706 374.365H394.116C392.333 374.365 391.441 372.21 392.702 370.95L438.498 325.224C439.279 324.444 440.543 324.444 441.324 325.224L487.12 370.95ZM375.602 264.428C377.385 264.428 378.277 262.272 377.016 261.013L331.032 215.099C330.251 214.319 328.987 214.319 328.206 215.099L282.222 261.013C280.961 262.272 281.853 264.428 283.635 264.428H375.602ZM548.602 435.161C549.383 434.382 550.647 434.382 551.428 435.161L597.412 481.075C598.673 482.335 597.781 484.491 595.998 484.491H504.031C502.249 484.491 501.357 482.335 502.618 481.075L548.602 435.161ZM155.466 155.728C155.611 155.729 155.729 155.611 155.728 155.466C155.728 155.368 155.609 155.319 155.54 155.388L155.464 155.464L155.388 155.54C155.319 155.609 155.368 155.728 155.466 155.728ZM0.813698 154.64L155.464 155.464L154.642 1.21829L179.014 25.9145C178.897 26.1705 178.832 26.4555 178.834 26.7557L179.177 91.0549C179.186 92.8316 181.335 93.7148 182.591 92.4585L213.843 61.2065L231.796 79.3983L155.728 155.466L307.664 156.276L309.02 157.649L156.553 310.116L156.29 310.379L5.85277 460.816C4.59647 462.073 2.44806 461.189 2.43858 459.413L1.6397 309.554L1.63813 309.29L0.815255 154.904L0.813698 154.64ZM0.813698 154.64L154.44 1.01352L154.24 0.811432L2.01066 -9.15527e-05C0.897771 -0.00601196 -0.0059038 0.897675 2.90467e-05 2.01056L0.813698 154.64ZM156.29 310.379L155.466 155.728L1.6397 309.554L156.29 310.379ZM245.97 180.002C247.747 180.012 248.63 182.16 247.373 183.417L183.417 247.373C182.16 248.63 180.012 247.746 180.003 245.97L179.66 181.67C179.654 180.557 180.558 179.654 181.67 179.66L245.97 180.002ZM28.5021 246.547C27.2458 247.804 25.0973 246.92 25.0879 245.144L24.7452 180.844C24.7393 179.732 25.643 178.828 26.7559 178.834L91.055 179.177C92.8317 179.186 93.7149 181.335 92.4586 182.591L28.5021 246.547ZM24.2634 90.4933C24.2729 92.27 26.4213 93.1532 27.6776 91.8969L91.897 27.6775C93.1533 26.4212 92.2701 24.2728 90.4934 24.2633L25.9299 23.9191C24.817 23.9132 23.9133 24.8169 23.9192 25.9297L24.2634 90.4933ZM25.5697 335.495C25.5638 334.382 26.4674 333.478 27.5803 333.484L92.1439 333.829C93.9205 333.838 94.8037 335.986 93.5474 337.243L29.3281 401.462C28.0718 402.718 25.9233 401.835 25.9139 400.059L25.5697 335.495ZM501.688 158.557C501.541 158.557 501.422 158.438 501.422 158.291L345.829 158.174L346.095 158.439L501.54 313.884L501.806 314.15L501.688 158.557ZM657.399 314.268L501.688 158.557C501.786 158.557 501.835 158.439 501.766 158.369L501.688 158.291L501.61 158.214C501.541 158.144 501.422 158.193 501.422 158.291L345.712 2.58084L345.829 158.174L193.537 5.88089C192.276 4.62045 193.17 2.46533 194.953 2.46667L345.712 2.58084L345.977 2.5809L501.304 2.69867L501.57 2.6987L655.166 2.81503C656.269 2.81589 657.164 3.71014 657.164 4.81354L657.281 158.409V158.675L657.399 314.002L657.399 314.268ZM657.399 314.268L657.513 465.027C657.514 466.81 655.359 467.703 654.099 466.443L501.806 314.15L657.399 314.268ZM657.281 158.409L501.57 2.6987L501.688 158.291L657.281 158.409ZM410.79 182.426C409.008 182.424 408.114 184.58 409.375 185.84L474.139 250.605C475.4 251.865 477.555 250.972 477.554 249.189L477.505 184.473C477.504 183.37 476.61 182.476 475.506 182.475L410.79 182.426ZM321.794 28.497C321.793 27.3936 320.899 26.4994 319.795 26.4985L254.814 26.4493C253.031 26.448 252.138 28.6031 253.398 29.8636L318.429 94.8942C319.689 96.1547 321.844 95.261 321.843 93.4785L321.794 28.497ZM475.388 26.6164C476.492 26.6172 477.386 27.5114 477.387 28.6148L477.436 93.3304C477.437 95.1129 475.282 96.0065 474.021 94.7461L409.257 29.9814C407.996 28.721 408.89 26.5659 410.673 26.5672L475.388 26.6164ZM629.998 250.723C631.258 251.983 633.414 251.09 633.412 249.307L633.363 184.591C633.362 183.488 632.468 182.594 631.365 182.593L566.649 182.544C564.867 182.543 563.973 184.698 565.233 185.958L629.998 250.723ZM633.294 93.7142C633.296 95.4967 631.141 96.3904 629.88 95.1299L564.85 30.0992C563.589 28.8388 564.483 26.6837 566.265 26.6851L631.247 26.7343C632.35 26.7351 633.244 27.6294 633.245 28.7327L633.294 93.7142ZM633.481 340.184C633.48 339.081 632.586 338.186 631.482 338.186L566.501 338.136C564.718 338.135 563.825 340.29 565.085 341.551L630.116 406.581C631.376 407.842 633.531 406.948 633.53 405.166L633.481 340.184Z" fill="#F9F9F9"/>
<path fill-rule="evenodd" clip-rule="evenodd" d="M328.096 1469.92C327.993 1470.03 327.824 1470.03 327.72 1469.92C327.651 1469.85 327.7 1469.73 327.798 1469.73H327.908H328.019C328.117 1469.73 328.166 1469.85 328.096 1469.92ZM548.304 1469.92H328.096L438.2 1579.86H437.824H217.993H217.616L327.72 1469.92H107.513L107.701 1469.73L217.616 1359.99L217.804 1359.8L327.908 1469.73L438.012 1359.8L438.2 1359.99L548.116 1469.73L548.304 1469.92ZM438.012 1359.8H217.804L326.495 1251.27C327.276 1250.49 328.541 1250.49 329.322 1251.27L438.012 1359.8ZM107.513 1469.92L217.616 1579.86H2.24207C0.459534 1579.86 -0.432495 1577.7 0.828918 1576.44L107.513 1469.92ZM548.304 1469.92L654.988 1576.44C656.249 1577.7 655.357 1579.86 653.575 1579.86H438.2L548.304 1469.92ZM373.704 1554.49C375.487 1554.49 376.379 1552.33 375.117 1551.07L329.322 1505.35C328.541 1504.57 327.276 1504.57 326.495 1505.35L280.7 1551.07C279.438 1552.33 280.33 1554.49 282.113 1554.49H373.704ZM546.891 1505.16L500.908 1551.07C499.646 1552.33 500.538 1554.49 502.321 1554.49H594.288C596.071 1554.49 596.963 1552.33 595.701 1551.07L549.718 1505.16C548.937 1504.38 547.672 1504.38 546.891 1505.16ZM439.614 1395.22L485.409 1440.95C486.671 1442.21 485.779 1444.36 483.996 1444.36H392.405C390.623 1444.36 389.731 1442.21 390.992 1440.95L436.787 1395.22C437.568 1394.44 438.833 1394.44 439.614 1395.22ZM170.408 1440.95C169.146 1442.21 170.038 1444.36 171.821 1444.36H263.412C265.194 1444.36 266.086 1442.21 264.825 1440.95L219.03 1395.22C218.249 1394.44 216.984 1394.44 216.203 1395.22L170.408 1440.95ZM281.925 1334.43C280.142 1334.43 279.25 1332.27 280.512 1331.01L326.495 1285.1C327.276 1284.32 328.541 1284.32 329.322 1285.1L375.305 1331.01C376.567 1332.27 375.675 1334.43 373.892 1334.43H281.925ZM108.926 1505.16C108.145 1504.38 106.88 1504.38 106.099 1505.16L60.1157 1551.07C58.8543 1552.33 59.7463 1554.49 61.5289 1554.49H153.496C155.279 1554.49 156.171 1552.33 154.909 1551.07L108.926 1505.16ZM502.062 1225.73C501.916 1225.73 501.798 1225.61 501.799 1225.47C501.799 1225.37 501.918 1225.32 501.987 1225.39L502.063 1225.46L502.139 1225.54C502.208 1225.61 502.16 1225.73 502.062 1225.73ZM656.714 1224.64L502.063 1225.46L502.885 1071.22L478.513 1095.91C478.63 1096.17 478.695 1096.46 478.693 1096.76L478.351 1161.05C478.341 1162.83 476.193 1163.71 474.936 1162.46L443.684 1131.21L425.731 1149.4L501.799 1225.47L349.863 1226.28L348.508 1227.65L500.975 1380.12L501.237 1380.38L651.675 1530.82C652.931 1532.07 655.079 1531.19 655.089 1529.41L655.888 1379.55L655.889 1379.29L656.712 1224.9L656.714 1224.64ZM656.714 1224.64L503.087 1071.01L503.287 1070.81L655.517 1070C656.63 1069.99 657.533 1070.9 657.527 1072.01L656.714 1224.64ZM501.237 1380.38L502.062 1225.73L655.888 1379.55L501.237 1380.38ZM411.557 1250C409.781 1250.01 408.898 1252.16 410.154 1253.42L474.111 1317.37C475.367 1318.63 477.515 1317.75 477.525 1315.97L477.868 1251.67C477.873 1250.56 476.97 1249.65 475.857 1249.66L411.557 1250ZM629.025 1316.55C630.282 1317.8 632.43 1316.92 632.439 1315.14L632.782 1250.84C632.788 1249.73 631.884 1248.83 630.771 1248.83L566.472 1249.18C564.696 1249.19 563.812 1251.33 565.069 1252.59L629.025 1316.55ZM633.264 1160.49C633.254 1162.27 631.106 1163.15 629.85 1161.9L565.63 1097.68C564.374 1096.42 565.257 1094.27 567.034 1094.26L631.597 1093.92C632.71 1093.91 633.614 1094.82 633.608 1095.93L633.264 1160.49ZM631.958 1405.49C631.964 1404.38 631.06 1403.48 629.947 1403.48L565.383 1403.83C563.607 1403.84 562.724 1405.99 563.98 1407.24L628.199 1471.46C629.456 1472.72 631.604 1471.83 631.613 1470.06L631.958 1405.49ZM155.839 1228.56C155.986 1228.56 156.105 1228.44 156.105 1228.29L311.698 1228.17L311.432 1228.44L155.987 1383.88L155.721 1384.15L155.839 1228.56ZM0.128723 1384.27L155.839 1228.56C155.741 1228.56 155.692 1228.44 155.761 1228.37L155.839 1228.29L155.917 1228.21C155.987 1228.14 156.105 1228.19 156.105 1228.29L311.816 1072.58L311.698 1228.17L463.991 1075.88C465.251 1074.62 464.357 1072.47 462.575 1072.47L311.816 1072.58L311.55 1072.58L156.223 1072.7L155.957 1072.7L2.36139 1072.81C1.25806 1072.82 0.36377 1073.71 0.362915 1074.81L0.246582 1228.41V1228.67L0.128784 1384L0.128723 1384.27ZM0.128723 1384.27L0.0145264 1535.03C0.0131836 1536.81 2.16833 1537.7 3.42877 1536.44L155.721 1384.15L0.128723 1384.27ZM0.246582 1228.41L155.957 1072.7L155.839 1228.29L0.246582 1228.41ZM246.737 1252.43C248.519 1252.42 249.413 1254.58 248.153 1255.84L183.388 1320.6C182.127 1321.86 179.972 1320.97 179.974 1319.19L180.023 1254.47C180.024 1253.37 180.918 1252.48 182.021 1252.47L246.737 1252.43ZM335.733 1098.5C335.734 1097.39 336.629 1096.5 337.732 1096.5L402.713 1096.45C404.496 1096.45 405.39 1098.6 404.129 1099.86L339.098 1164.89C337.838 1166.15 335.683 1165.26 335.684 1163.48L335.733 1098.5ZM182.139 1096.62C181.036 1096.62 180.142 1097.51 180.141 1098.61L180.092 1163.33C180.09 1165.11 182.245 1166.01 183.506 1164.75L248.271 1099.98C249.531 1098.72 248.637 1096.57 246.855 1096.57L182.139 1096.62ZM27.5293 1320.72C26.2689 1321.98 24.1138 1321.09 24.1151 1319.31L24.1642 1254.59C24.1651 1253.49 25.0593 1252.59 26.1627 1252.59L90.8782 1252.54C92.6608 1252.54 93.5544 1254.7 92.2939 1255.96L27.5293 1320.72ZM24.2329 1163.71C24.2316 1165.5 26.3867 1166.39 27.6472 1165.13L92.6778 1100.1C93.9382 1098.84 93.0446 1096.68 91.2621 1096.68L26.2806 1096.73C25.1772 1096.73 24.283 1097.63 24.2821 1098.73L24.2329 1163.71ZM24.0464 1410.18C24.0473 1409.08 24.9415 1408.19 26.0449 1408.19L91.0264 1408.14C92.8089 1408.13 93.7025 1410.29 92.4421 1411.55L27.4114 1476.58C26.151 1477.84 23.9958 1476.95 23.9972 1475.17L24.0464 1410.18Z" fill="#F9F9F9"/>
<path fill-rule="evenodd" clip-rule="evenodd" d="M328.104 644.937C328 644.833 327.832 644.833 327.728 644.937C327.659 645.006 327.708 645.125 327.806 645.125H327.916H328.027C328.125 645.125 328.174 645.006 328.104 644.937ZM548.312 644.937H328.104L438.208 535H437.832H218H217.624L327.728 644.937H107.52L107.708 645.125L217.624 754.875L217.812 755.062L327.916 645.125L438.02 755.062L438.208 754.875L548.124 645.125L548.312 644.937ZM438.02 755.062H217.812L326.503 863.589C327.284 864.368 328.549 864.368 329.329 863.589L438.02 755.062ZM107.52 644.937L217.624 535H2.24988C0.467346 535 -0.424683 537.156 0.836731 538.415L107.52 644.937ZM548.312 644.937L654.996 538.415C656.257 537.156 655.365 535 653.583 535H438.208L548.312 644.937ZM373.712 560.37C375.494 560.37 376.386 562.526 375.125 563.785L329.329 609.512C328.549 610.291 327.284 610.291 326.503 609.511L280.708 563.785C279.446 562.526 280.338 560.37 282.121 560.37H373.712ZM546.899 609.699L500.915 563.785C499.654 562.526 500.546 560.37 502.329 560.37H594.296C596.078 560.37 596.97 562.526 595.709 563.785L549.725 609.699C548.945 610.479 547.68 610.479 546.899 609.699ZM439.621 719.637L485.417 673.911C486.678 672.651 485.786 670.495 484.004 670.495H392.413C390.63 670.495 389.738 672.651 391 673.911L436.795 719.637C437.576 720.416 438.841 720.416 439.621 719.637ZM170.416 673.911C169.154 672.651 170.046 670.495 171.829 670.495H263.42C265.202 670.495 266.094 672.651 264.833 673.911L219.037 719.637C218.257 720.416 216.992 720.416 216.211 719.637L170.416 673.911ZM281.933 780.433C280.15 780.433 279.258 782.588 280.52 783.848L326.503 829.762C327.284 830.542 328.549 830.542 329.329 829.762L375.313 783.848C376.574 782.588 375.682 780.433 373.9 780.433H281.933ZM108.933 609.699C108.153 610.479 106.888 610.479 106.107 609.699L60.1235 563.785C58.8621 562.526 59.7541 560.37 61.5367 560.37H153.504C155.286 560.37 156.178 562.526 154.917 563.785L108.933 609.699ZM502.069 889.132C501.924 889.132 501.806 889.25 501.807 889.395C501.807 889.493 501.926 889.542 501.995 889.472L502.071 889.397L502.147 889.321C502.216 889.251 502.167 889.133 502.069 889.132ZM656.721 890.221L502.071 889.397L502.893 1043.64L478.521 1018.95C478.638 1018.69 478.703 1018.41 478.701 1018.1L478.358 953.806C478.349 952.029 476.201 951.146 474.944 952.402L443.692 983.654L425.739 965.462L501.807 889.395L349.871 888.585L348.515 887.211L500.982 734.744L501.245 734.482L651.682 584.044C652.939 582.788 655.087 583.671 655.097 585.448L655.895 735.306L655.897 735.57L656.72 889.957L656.721 890.221ZM656.721 890.221L503.095 1043.85L503.295 1044.05L655.524 1044.86C656.637 1044.87 657.541 1043.96 657.535 1042.85L656.721 890.221ZM501.245 734.482L502.069 889.132L655.895 735.306L501.245 734.482ZM411.565 864.858C409.789 864.849 408.905 862.7 410.162 861.444L474.118 797.487C475.375 796.231 477.523 797.114 477.533 798.891L477.875 863.19C477.881 864.303 476.978 865.207 475.865 865.201L411.565 864.858ZM629.033 798.313C630.289 797.057 632.438 797.94 632.447 799.717L632.79 864.016C632.796 865.129 631.892 866.033 630.779 866.027L566.48 865.684C564.703 865.674 563.82 863.526 565.077 862.27L629.033 798.313ZM633.272 954.367C633.262 952.591 631.114 951.707 629.858 952.964L565.638 1017.18C564.382 1018.44 565.265 1020.59 567.042 1020.6L631.605 1020.94C632.718 1020.95 633.622 1020.04 633.616 1018.93L633.272 954.367ZM631.965 709.366C631.971 710.479 631.068 711.382 629.955 711.376L565.391 711.032C563.615 711.023 562.731 708.874 563.988 707.618L628.207 643.398C629.463 642.142 631.612 643.025 631.621 644.802L631.965 709.366ZM155.847 886.303C155.994 886.303 156.113 886.422 156.113 886.569L311.706 886.687L311.44 886.421L155.995 730.976L155.729 730.71L155.847 886.303ZM0.136536 730.592L155.847 886.303C155.749 886.303 155.7 886.422 155.769 886.491L155.847 886.569L155.925 886.647C155.994 886.716 156.113 886.667 156.113 886.569L311.824 1042.28L311.706 886.687L463.998 1038.98C465.259 1040.24 464.365 1042.4 462.583 1042.39L311.824 1042.28L311.558 1042.28L156.231 1042.16L155.965 1042.16L2.3692 1042.05C1.26587 1042.04 0.371582 1041.15 0.370728 1040.05L0.254395 886.451V886.185L0.136597 730.858L0.136536 730.592ZM0.136536 730.592L0.0223389 579.833C0.0209961 578.051 2.17615 577.157 3.43658 578.418L155.729 730.71L0.136536 730.592ZM0.254395 886.451L155.965 1042.16L155.847 886.569L0.254395 886.451ZM246.745 862.435C248.527 862.436 249.421 860.281 248.16 859.02L183.396 794.256C182.135 792.995 179.98 793.889 179.982 795.671L180.03 860.387C180.031 861.49 180.926 862.385 182.029 862.386L246.745 862.435ZM335.741 1016.36C335.742 1017.47 336.636 1018.36 337.74 1018.36L402.721 1018.41C404.504 1018.41 405.397 1016.26 404.137 1015L339.106 949.966C337.846 948.706 335.691 949.599 335.692 951.382L335.741 1016.36ZM182.147 1018.24C181.044 1018.24 180.149 1017.35 180.149 1016.25L180.1 951.53C180.098 949.747 182.253 948.854 183.514 950.114L248.278 1014.88C249.539 1016.14 248.645 1018.29 246.863 1018.29L182.147 1018.24ZM27.5371 794.138C26.2767 792.877 24.1216 793.771 24.1229 795.553L24.1721 860.269C24.1729 861.372 25.0671 862.267 26.1705 862.268L90.886 862.316C92.6686 862.318 93.5622 860.163 92.3018 858.902L27.5371 794.138ZM24.2407 951.146C24.2394 949.364 26.3945 948.47 27.655 949.73L92.6856 1014.76C93.946 1016.02 93.0524 1018.18 91.2699 1018.18L26.2885 1018.13C25.1851 1018.13 24.2908 1017.23 24.2899 1016.13L24.2407 951.146ZM24.0543 704.676C24.0551 705.78 24.9493 706.674 26.0527 706.675L91.0342 706.724C92.8167 706.725 93.7103 704.57 92.4499 703.31L27.4193 638.279C26.1588 637.019 24.0037 637.912 24.005 639.695L24.0543 704.676Z" fill="#F9F9F9"/>
<path fill-rule="evenodd" clip-rule="evenodd" d="M329.431 1714.94C329.535 1714.83 329.703 1714.83 329.807 1714.94C329.876 1715.01 329.827 1715.13 329.729 1715.13H329.619H329.509C329.411 1715.13 329.361 1715.01 329.431 1714.94ZM109.223 1714.94H329.431L219.327 1605H219.703H439.535H439.911L329.807 1714.94H550.015L549.827 1715.13L439.911 1824.87L439.723 1825.06L329.619 1715.13L219.515 1825.06L219.327 1824.87L109.411 1715.13L109.223 1714.94ZM219.515 1825.06H439.723L331.032 1933.59C330.251 1934.37 328.987 1934.37 328.206 1933.59L219.515 1825.06ZM550.015 1714.94L439.911 1605H655.285C657.068 1605 657.96 1607.16 656.698 1608.42L550.015 1714.94ZM109.223 1714.94L2.53937 1608.42C1.27797 1607.16 2.16998 1605 3.95252 1605H219.327L109.223 1714.94ZM283.823 1630.37C282.041 1630.37 281.149 1632.53 282.41 1633.79L328.206 1679.51C328.987 1680.29 330.251 1680.29 331.032 1679.51L376.828 1633.79C378.089 1632.53 377.197 1630.37 375.414 1630.37H283.823ZM110.636 1679.7L156.62 1633.79C157.881 1632.53 156.989 1630.37 155.207 1630.37H63.2393C61.4567 1630.37 60.5647 1632.53 61.8261 1633.79L107.81 1679.7C108.591 1680.48 109.855 1680.48 110.636 1679.7ZM217.914 1789.64L172.118 1743.91C170.857 1742.65 171.749 1740.5 173.531 1740.5H265.122C266.905 1740.5 267.797 1742.65 266.535 1743.91L220.74 1789.64C219.959 1790.42 218.695 1790.42 217.914 1789.64ZM487.12 1743.91C488.381 1742.65 487.489 1740.5 485.706 1740.5H394.116C392.333 1740.5 391.441 1742.65 392.702 1743.91L438.498 1789.64C439.279 1790.42 440.543 1790.42 441.324 1789.64L487.12 1743.91ZM375.602 1850.43C377.385 1850.43 378.277 1852.59 377.016 1853.85L331.032 1899.76C330.251 1900.54 328.987 1900.54 328.206 1899.76L282.222 1853.85C280.961 1852.59 281.853 1850.43 283.635 1850.43H375.602ZM548.602 1679.7C549.383 1680.48 550.647 1680.48 551.428 1679.7L597.412 1633.79C598.673 1632.53 597.781 1630.37 595.998 1630.37H504.031C502.249 1630.37 501.357 1632.53 502.618 1633.79L548.602 1679.7ZM155.466 1959.13C155.611 1959.13 155.729 1959.25 155.728 1959.39C155.728 1959.49 155.609 1959.54 155.54 1959.47L155.464 1959.4L155.388 1959.32C155.319 1959.25 155.368 1959.13 155.466 1959.13ZM0.813698 1960.22L155.464 1959.4L154.642 2113.64L179.014 2088.95C178.897 2088.69 178.832 2088.4 178.834 2088.1L179.177 2023.81C179.186 2022.03 181.335 2021.15 182.591 2022.4L213.843 2053.65L231.796 2035.46L155.728 1959.39L307.664 1958.58L309.02 1957.21L156.553 1804.74L156.29 1804.48L5.85277 1654.04C4.59647 1652.79 2.44806 1653.67 2.43858 1655.45L1.6397 1805.31L1.63813 1805.57L0.815255 1959.96L0.813698 1960.22ZM0.813698 1960.22L154.44 2113.85L154.24 2114.05L2.01066 2114.86C0.897771 2114.87 -0.0059038 2113.96 2.90467e-05 2112.85L0.813698 1960.22ZM156.29 1804.48L155.466 1959.13L1.6397 1805.31L156.29 1804.48ZM245.97 1934.86C247.747 1934.85 248.63 1932.7 247.373 1931.44L183.417 1867.49C182.16 1866.23 180.012 1867.11 180.003 1868.89L179.66 1933.19C179.654 1934.3 180.558 1935.21 181.67 1935.2L245.97 1934.86ZM28.5021 1868.31C27.2458 1867.06 25.0973 1867.94 25.0879 1869.72L24.7452 1934.02C24.7393 1935.13 25.643 1936.03 26.7559 1936.03L91.055 1935.68C92.8317 1935.67 93.7149 1933.53 92.4586 1932.27L28.5021 1868.31ZM24.2634 2024.37C24.2729 2022.59 26.4213 2021.71 27.6776 2022.96L91.897 2087.18C93.1533 2088.44 92.2701 2090.59 90.4934 2090.6L25.9299 2090.94C24.817 2090.95 23.9133 2090.04 23.9192 2088.93L24.2634 2024.37ZM25.5697 1779.37C25.5638 1780.48 26.4674 1781.38 27.5803 1781.38L92.1439 1781.03C93.9205 1781.02 94.8037 1778.87 93.5474 1777.62L29.3281 1713.4C28.0718 1712.14 25.9233 1713.03 25.9139 1714.8L25.5697 1779.37ZM501.688 1956.3C501.541 1956.3 501.422 1956.42 501.422 1956.57L345.829 1956.69L346.095 1956.42L501.54 1800.98L501.806 1800.71L501.688 1956.3ZM657.399 1800.59L501.688 1956.3C501.786 1956.3 501.835 1956.42 501.766 1956.49L501.688 1956.57L501.61 1956.65C501.541 1956.72 501.422 1956.67 501.422 1956.57L345.712 2112.28L345.829 1956.69L193.537 2108.98C192.276 2110.24 193.17 2112.39 194.953 2112.39L345.712 2112.28L345.977 2112.28L501.304 2112.16L501.57 2112.16L655.166 2112.05C656.269 2112.04 657.164 2111.15 657.164 2110.05L657.281 1956.45V1956.19L657.399 1800.86L657.399 1800.59ZM657.399 1800.59L657.513 1649.83C657.514 1648.05 655.359 1647.16 654.099 1648.42L501.806 1800.71L657.399 1800.59ZM657.281 1956.45L501.57 2112.16L501.688 1956.57L657.281 1956.45ZM410.79 1932.43C409.008 1932.44 408.114 1930.28 409.375 1929.02L474.139 1864.26C475.4 1863 477.555 1863.89 477.554 1865.67L477.505 1930.39C477.504 1931.49 476.61 1932.38 475.506 1932.39L410.79 1932.43ZM321.794 2086.36C321.793 2087.47 320.899 2088.36 319.795 2088.36L254.814 2088.41C253.031 2088.41 252.138 2086.26 253.398 2085L318.429 2019.97C319.689 2018.71 321.844 2019.6 321.843 2021.38L321.794 2086.36ZM475.388 2088.24C476.492 2088.24 477.386 2087.35 477.387 2086.25L477.436 2021.53C477.437 2019.75 475.282 2018.85 474.021 2020.11L409.257 2084.88C407.996 2086.14 408.89 2088.29 410.673 2088.29L475.388 2088.24ZM629.998 1864.14C631.258 1862.88 633.414 1863.77 633.412 1865.55L633.363 1930.27C633.362 1931.37 632.468 1932.27 631.365 1932.27L566.649 1932.32C564.867 1932.32 563.973 1930.16 565.233 1928.9L629.998 1864.14ZM633.294 2021.15C633.296 2019.36 631.141 2018.47 629.88 2019.73L564.85 2084.76C563.589 2086.02 564.483 2088.18 566.265 2088.18L631.247 2088.13C632.35 2088.13 633.244 2087.23 633.245 2086.13L633.294 2021.15ZM633.481 1774.68C633.48 1775.78 632.586 1776.67 631.482 1776.67L566.501 1776.72C564.718 1776.73 563.825 1774.57 565.085 1773.31L630.116 1708.28C631.376 1707.02 633.531 1707.91 633.53 1709.69L633.481 1774.68Z" fill="#F9F9F9"/>
</svg>
