<svg width="16" height="32" viewBox="0 0 16 32" fill="none" xmlns="http://www.w3.org/2000/svg">
<path fill-rule="evenodd" clip-rule="evenodd" d="M15.1521 17.2014C15.1521 17.091 15.0626 17.0014 14.9521 17.0014L0.559013 17.0014C0.380832 17.0014 0.291599 17.2169 0.417591 17.3429L14.8107 31.7361C14.9367 31.8621 15.1521 31.7728 15.1521 31.5947L15.1521 17.2014ZM13.8819 23.7336C14.0078 23.8596 13.9186 24.075 13.7404 24.075L8.27859 24.075C8.16813 24.075 8.07859 23.9855 8.07859 23.875L8.07859 18.4132C8.07859 18.235 8.29402 18.1457 8.42001 18.2717L13.8819 23.7336ZM6.24623 18.6338C6.35669 18.6338 6.44623 18.7234 6.44623 18.8338L6.44623 20.4868C6.44623 20.665 6.2308 20.7542 6.10481 20.6282L4.45181 18.9752C4.32581 18.8492 4.41505 18.6338 4.59323 18.6338L6.24623 18.6338ZM13.3198 25.7074C13.4302 25.7074 13.5198 25.7969 13.5198 25.9074L13.5198 27.5604C13.5198 27.7386 13.3044 27.8278 13.1784 27.7018L11.5254 26.0488C11.3994 25.9228 11.4886 25.7074 11.6668 25.7074L13.3198 25.7074ZM13.3198 18.6338C13.4302 18.6338 13.5198 18.7234 13.5198 18.8338L13.5198 20.4868C13.5198 20.665 13.3044 20.7542 13.1784 20.6282L11.5254 18.9752C11.3994 18.8492 11.4886 18.6338 11.6668 18.6338L13.3198 18.6338ZM15.1521 14.7984C15.1521 14.9089 15.0626 14.9984 14.9521 14.9984L0.559017 14.9984C0.380836 14.9984 0.291602 14.783 0.417595 14.657L14.8107 0.263787C14.9367 0.137793 15.1521 0.227026 15.1521 0.405207L15.1521 14.7984ZM13.8819 8.26625C14.0078 8.14026 13.9186 7.92483 13.7404 7.92483L8.27859 7.92483C8.16814 7.92483 8.07859 8.01438 8.07859 8.12483L8.07859 13.5867C8.07859 13.7649 8.29402 13.8541 8.42002 13.7281L13.8819 8.26625ZM6.24624 13.3661C6.35669 13.3661 6.44624 13.2765 6.44624 13.1661L6.44624 11.513C6.44624 11.3349 6.23081 11.2456 6.10481 11.3716L4.45181 13.0246C4.32582 13.1506 4.41505 13.3661 4.59323 13.3661L6.24624 13.3661ZM13.3198 6.29246C13.4302 6.29246 13.5198 6.20292 13.5198 6.09246L13.5198 4.43945C13.5198 4.26127 13.3044 4.17204 13.1784 4.29803L11.5254 5.95104C11.3994 6.07704 11.4886 6.29246 11.6668 6.29246L13.3198 6.29246ZM13.3198 13.3661C13.4302 13.3661 13.5198 13.2765 13.5198 13.1661L13.5198 11.513C13.5198 11.3349 13.3044 11.2456 13.1784 11.3716L11.5254 13.0246C11.3994 13.1506 11.4886 13.3661 11.6668 13.3661L13.3198 13.3661Z" fill="white" fill-opacity="0.36"/>
</svg>
