<svg width="15" height="32" viewBox="0 0 15 32" fill="none" xmlns="http://www.w3.org/2000/svg">
<path fill-rule="evenodd" clip-rule="evenodd" d="M0.000205238 17.2014C0.000205243 17.091 0.0897476 17.0014 0.200205 17.0014L14.5933 17.0014C14.7715 17.0014 14.8607 17.2169 14.7348 17.3429L0.341626 31.7361C0.215633 31.8621 0.000204601 31.7728 0.000204609 31.5947L0.000205238 17.2014ZM1.27049 23.7336C1.1445 23.8596 1.23373 24.075 1.41191 24.075L6.87375 24.075C6.98421 24.075 7.07375 23.9855 7.07375 23.875L7.07375 18.4132C7.07375 18.235 6.85832 18.1457 6.73233 18.2717L1.27049 23.7336ZM8.90611 18.6338C8.79565 18.6338 8.70611 18.7234 8.70611 18.8338L8.70611 20.4868C8.70611 20.665 8.92154 20.7542 9.04753 20.6282L10.7005 18.9752C10.8265 18.8492 10.7373 18.6338 10.5591 18.6338L8.90611 18.6338ZM1.83256 25.7074C1.7221 25.7074 1.63256 25.7969 1.63256 25.9074L1.63256 27.5604C1.63256 27.7386 1.84799 27.8278 1.97398 27.7018L3.62699 26.0488C3.75298 25.9228 3.66375 25.7074 3.48557 25.7074L1.83256 25.7074ZM1.83256 18.6338C1.72211 18.6338 1.63256 18.7234 1.63256 18.8338L1.63256 20.4868C1.63256 20.665 1.84799 20.7542 1.97398 20.6282L3.62699 18.9752C3.75298 18.8492 3.66375 18.6338 3.48557 18.6338L1.83256 18.6338ZM0.000201529 14.7984C0.000201524 14.9089 0.0897439 14.9984 0.200201 14.9984L14.5933 14.9984C14.7715 14.9984 14.8607 14.783 14.7347 14.657L0.341623 0.263787C0.215631 0.137793 0.000202166 0.227026 0.000202158 0.405207L0.000201529 14.7984ZM1.27049 8.26625C1.1445 8.14026 1.23373 7.92483 1.41191 7.92483L6.87375 7.92483C6.98421 7.92483 7.07375 8.01438 7.07375 8.12483L7.07375 13.5867C7.07375 13.7649 6.85832 13.8541 6.73233 13.7281L1.27049 8.26625ZM8.90611 13.3661C8.79565 13.3661 8.70611 13.2765 8.70611 13.1661L8.70611 11.513C8.70611 11.3349 8.92154 11.2456 9.04753 11.3716L10.7005 13.0246C10.8265 13.1506 10.7373 13.3661 10.5591 13.3661L8.90611 13.3661ZM1.83256 6.29246C1.7221 6.29246 1.63256 6.20292 1.63256 6.09246L1.63256 4.43945C1.63256 4.26127 1.84799 4.17204 1.97398 4.29803L3.62699 5.95104C3.75298 6.07704 3.66374 6.29246 3.48556 6.29246L1.83256 6.29246ZM1.83256 13.3661C1.7221 13.3661 1.63256 13.2765 1.63256 13.1661L1.63256 11.513C1.63256 11.3349 1.84799 11.2456 1.97398 11.3716L3.62698 13.0246C3.75298 13.1506 3.66374 13.3661 3.48556 13.3661L1.83256 13.3661Z" fill="white" fill-opacity="0.36"/>
</svg>
