<svg width="65" height="65" viewBox="0 0 65 65" fill="none" xmlns="http://www.w3.org/2000/svg">
<circle cx="32.5" cy="32.5" r="32.5" fill="#F4F4F4"/>
<g clip-path="url(#clip0_2483_2379)">
<path fill-rule="evenodd" clip-rule="evenodd" d="M39.25 25.75C39.25 29.2018 36.4518 32 33 32C29.5482 32 26.75 29.2018 26.75 25.75C26.75 22.2982 29.5482 19.5 33 19.5C36.4518 19.5 39.25 22.2982 39.25 25.75ZM21.75 43.25C21.75 37.7362 26.7975 33.25 33 33.25C39.2038 33.25 44.25 37.7362 44.25 43.25C44.25 43.5815 44.1183 43.8995 43.8839 44.1339C43.6495 44.3683 43.3315 44.5 43 44.5H23C22.6685 44.5 22.3505 44.3683 22.1161 44.1339C21.8817 43.8995 21.75 43.5815 21.75 43.25Z" fill="#BAAC72"/>
</g>
<defs>
<clipPath id="clip0_2483_2379">
<rect width="30" height="30" fill="white" transform="translate(18 17)"/>
</clipPath>
</defs>
</svg>
