<svg width="138" height="117" viewBox="0 0 138 117" fill="none" xmlns="http://www.w3.org/2000/svg">
<path fill-rule="evenodd" clip-rule="evenodd" d="M11.6615 0.580773C8.90972 1.30214 6.97026 2.45553 4.75881 4.68614C2.53906 6.9254 1.20761 9.2385 0.564776 11.973C-0.19283 15.1947 -0.186196 48.5169 0.572404 51.8616C1.77184 57.1483 6.71883 62.1084 11.9916 63.311C13.8169 63.7271 16.4576 63.8329 25.0364 63.8329C37.2267 63.8329 37.7346 63.9137 40.0933 66.2328C40.897 67.0226 41.708 68.2442 42.0006 69.1049C42.6517 71.0202 42.6573 75.8746 42.0125 78.9652C40.4824 86.298 34.6089 92.6506 27.2515 94.9318C26.0049 95.3182 23.6223 95.5653 19.7295 95.712C13.535 95.9455 13.111 96.0748 11.5162 98.2167C10.8744 99.0787 10.8323 99.5812 10.8323 106.403C10.8323 113.225 10.8744 113.728 11.5162 114.59C13.1008 116.717 13.5817 116.87 19.0648 116.983C25.2022 117.11 29.5867 116.516 34.3801 114.908C48.8877 110.041 59.0258 98.8346 62.8361 83.4551C63.521 80.6907 63.5393 79.8955 63.6511 47.5364C63.7771 11.1166 63.8013 11.6228 61.769 8.15196C60.4946 5.97589 57.4628 2.93943 55.4895 1.86254C52.1921 0.0629447 51.2093 -0.0138815 31.7294 0.00141717C15.9726 0.0140552 13.5582 0.0838985 11.6615 0.580773ZM85.9626 0.580773C83.2108 1.30214 81.2714 2.45553 79.0599 4.68614C76.8402 6.9254 75.5087 9.2385 74.8659 11.973C74.1083 15.1947 74.1149 48.5169 74.8735 51.8616C76.0729 57.1483 81.0199 62.1084 86.2927 63.311C88.118 63.7271 90.7587 63.8329 99.3375 63.8329C111.528 63.8329 112.036 63.9137 114.394 66.2328C115.198 67.0226 116.009 68.2442 116.302 69.1049C116.953 71.0202 116.958 75.8746 116.314 78.9652C114.783 86.298 108.91 92.6506 101.553 94.9318C100.306 95.3182 97.9234 95.5653 94.0306 95.712C87.8361 95.9455 87.4122 96.0748 85.8173 98.2167C85.1755 99.0787 85.1334 99.5812 85.1334 106.403C85.1334 113.225 85.1755 113.728 85.8173 114.59C87.4019 116.717 87.8828 116.87 93.3659 116.983C99.5033 117.11 103.888 116.516 108.681 114.908C123.189 110.041 133.327 98.8346 137.137 83.4551C137.822 80.6907 137.84 79.8955 137.952 47.5364C138.078 11.1166 138.102 11.6228 136.07 8.15196C134.796 5.97589 131.764 2.93943 129.791 1.86254C126.493 0.0629447 125.51 -0.0138815 106.031 0.00141717C90.2737 0.0140552 87.8593 0.0838985 85.9626 0.580773Z" fill="#F4F4F4"/>
</svg>
