<svg width="114" height="46" viewBox="0 0 114 46" fill="none" xmlns="http://www.w3.org/2000/svg">
<path fill-rule="evenodd" clip-rule="evenodd" d="M57.4707 17.076V2L72.5467 17.076H57.4707ZM64.5443 16.1471V10.0024H58.3996L64.5443 16.1471ZM59.1031 8.37006H61.4389L59.1031 6.03422V8.37006ZM66.1766 15.4436H68.5125L66.1766 13.1078V15.4436ZM59.1031 15.4436H61.4389L59.1031 13.1078V15.4436ZM55.4677 17.076V2L40.3916 17.076H55.4677ZM48.3941 16.1471V10.0024H54.5388L48.3941 16.1471ZM53.8353 8.37006H51.4994L53.8353 6.03422V8.37006ZM46.7617 15.4436H44.4258L46.7617 13.1078V15.4436ZM53.8353 15.4436H51.4994L53.8353 13.1078V15.4436ZM25.517 38.0673L25.7663 37.6203L28.7237 42.7975H27.6404L25.7697 39.5543L23.8951 42.7975H22.8031L25.517 38.0673ZM67.8751 38.8304C68.0704 38.8969 68.2612 38.9813 68.4476 39.0833L68.8137 38.3445C68.6184 38.2158 68.3965 38.1049 68.148 38.0117C67.904 37.9185 67.5845 37.8719 67.1895 37.8719C66.8878 37.8852 66.6215 37.954 66.3908 38.0782C66.16 38.198 65.9803 38.3622 65.8516 38.5708C65.7274 38.7794 65.6653 39.0256 65.6653 39.3096C65.6653 39.5448 65.7074 39.7445 65.7917 39.9087C65.8805 40.0684 65.9936 40.2038 66.1312 40.3147C66.2732 40.4212 66.4241 40.5122 66.5838 40.5876C66.7436 40.6631 66.8989 40.7296 67.0498 40.7873C67.1784 40.8361 67.296 40.8938 67.4025 40.9604C67.5135 41.0269 67.6 41.1002 67.6621 41.18C67.7287 41.2599 67.762 41.3487 67.762 41.4463C67.762 41.5883 67.722 41.6992 67.6422 41.7791C67.5667 41.859 67.4691 41.9166 67.3493 41.9521C67.2339 41.9832 67.1185 41.9987 67.0032 41.9987C66.8878 41.9987 66.7613 41.981 66.6238 41.9455C66.4862 41.91 66.3486 41.8612 66.2111 41.7991C66.0779 41.7325 65.9537 41.6571 65.8383 41.5727L65.4123 42.3249C65.5854 42.4447 65.7651 42.5445 65.9515 42.6244C66.1378 42.6999 66.3264 42.7575 66.5173 42.7975C66.7125 42.833 66.9033 42.8507 67.0897 42.8507C67.4536 42.8507 67.7598 42.7864 68.0082 42.6577C68.2567 42.5246 68.4453 42.3515 68.574 42.1385C68.7027 41.9255 68.7671 41.6948 68.7671 41.4463C68.7671 41.2111 68.7338 41.0136 68.6672 40.8539C68.6006 40.6897 68.5119 40.5543 68.401 40.4478C68.29 40.3369 68.1636 40.2459 68.0216 40.1749C67.884 40.0995 67.7442 40.0352 67.6022 39.9819C67.4469 39.9242 67.296 39.8599 67.1496 39.7889C67.0076 39.7179 66.89 39.638 66.7968 39.5493C66.7081 39.4561 66.6637 39.3518 66.6637 39.2364C66.6637 39.0678 66.7236 38.9413 66.8434 38.857C66.9632 38.7727 67.1274 38.7305 67.336 38.7305C67.5046 38.7305 67.6843 38.7638 67.8751 38.8304ZM3.48495 37.8985C3.79113 37.8985 4.06404 37.9385 4.30366 38.0183C4.54329 38.0938 4.74297 38.2047 4.90272 38.3511C5.06691 38.4931 5.19116 38.6662 5.27547 38.8703C5.35978 39.07 5.40194 39.2963 5.40194 39.5493C5.40194 39.7489 5.37088 39.9486 5.30875 40.1483C5.25106 40.348 5.15344 40.5299 5.01588 40.6941C4.9131 40.8209 4.78388 40.9291 4.6282 41.0189L5.76803 42.7975H4.64313L3.60847 41.2399H2.96576V42.7975H2.00061V37.8985H3.48495ZM3.65135 40.3081C3.79779 40.3081 3.91982 40.2837 4.01744 40.2348C4.11507 40.186 4.19051 40.1239 4.24376 40.0485C4.30144 39.973 4.34138 39.8954 4.36357 39.8155C4.39019 39.7312 4.40351 39.6535 4.40351 39.5825C4.40351 39.5293 4.39463 39.4627 4.37688 39.3829C4.36357 39.2985 4.33251 39.2142 4.28369 39.1299C4.23488 39.0456 4.15944 38.9746 4.05738 38.9169C3.95976 38.8592 3.82663 38.8304 3.65801 38.8304H2.96576V40.3081H3.65135ZM13.1201 37.8985H16.4616V38.8304H14.0853V39.8754H16.1887V40.8073H14.0853V41.8656H16.5547V42.7975H13.1201V37.8985ZM36.2658 37.8985H35.3007V42.7975H38.5689V41.8656H36.2658V37.8985ZM54.8421 37.8985H58.1836V38.8304H55.8073V39.8754H57.9107V40.8073H55.8073V41.8656H58.2768V42.7975H54.8421V37.8985ZM75.9359 37.8985H79.2373V38.8304H78.0459V42.7975H77.0807V38.8304H75.9359V37.8985ZM100.885 37.8985H97.5834V38.8304H98.7283V42.7975H99.6934V38.8304H100.885V37.8985ZM108.373 37.8985H111.714V38.8304H109.338V39.8754H111.441V40.8073H109.338V41.8656H111.807V42.7975H108.373V37.8985ZM88.0243 37.6203L87.7818 38.0553L85.0609 42.7975H86.1529L88.0276 39.5541L89.8985 42.7975H90.9818L88.0243 37.6203ZM45.8858 21.1569L45.3053 22.1979L38.7051 33.7014H41.3512L45.8936 25.8424L50.4269 33.7015H53.0519L45.8858 21.1569ZM77.3366 21.6292V33.7163H79.5457V28.518L83.1908 33.5585H83.2224L87.0094 28.1744V33.7163H89.2974V21.6292H89.2659L83.2437 29.9836L77.3524 21.6292H77.3366ZM63.6469 25.653C63.3419 26.3683 63.1893 27.1257 63.1893 27.9252C63.1893 28.7457 63.3419 29.5137 63.6469 30.229C63.952 30.9443 64.3728 31.5755 64.9093 32.1225C65.4563 32.659 66.0875 33.0798 66.8028 33.3849C67.5182 33.69 68.2861 33.8425 69.1066 33.8425C69.9166 33.8425 70.6793 33.69 71.3947 33.3849C72.11 33.0798 72.7412 32.659 73.2882 32.1225C73.8457 31.5755 74.277 30.9443 74.5821 30.229C74.8977 29.5137 75.0555 28.7457 75.0555 27.9252C75.0555 27.1257 74.8977 26.3683 74.5821 25.653C74.277 24.9376 73.8457 24.3065 73.2882 23.7594C72.7412 23.2019 72.11 22.7653 71.3947 22.4497C70.6793 22.1342 69.9166 21.9764 69.1066 21.9764C68.2861 21.9764 67.5182 22.1342 66.8028 22.4497C66.0875 22.7653 65.4563 23.2019 64.9093 23.7594C64.3728 24.3065 63.952 24.9376 63.6469 25.653ZM65.8245 29.3769C65.6457 28.9246 65.5563 28.4407 65.5563 27.9252C65.5563 27.3992 65.6457 26.9101 65.8245 26.4577C66.0033 26.0054 66.2558 25.6109 66.5819 25.2743C66.908 24.9271 67.2867 24.6589 67.718 24.4695C68.1494 24.2802 68.6175 24.1855 69.1224 24.1855C69.6274 24.1855 70.0955 24.2802 70.5268 24.4695C70.9581 24.6589 71.3315 24.9271 71.6471 25.2743C71.9732 25.6109 72.2257 26.0054 72.4045 26.4577C72.5939 26.9101 72.6886 27.3992 72.6886 27.9252C72.6886 28.4407 72.5992 28.9246 72.4203 29.3769C72.2415 29.8187 71.9943 30.2132 71.6787 30.5604C71.3631 30.897 70.9897 31.16 70.5583 31.3494C70.1376 31.5387 69.68 31.6334 69.1855 31.6334C68.6701 31.6334 68.1914 31.5387 67.7496 31.3494C67.3183 31.16 66.9343 30.897 66.5977 30.5604C66.2716 30.2132 66.0139 29.8187 65.8245 29.3769ZM94.3507 29.4243C94.3507 29.7924 94.4611 30.1449 94.6821 30.4815C94.903 30.8181 95.1923 31.0916 95.5499 31.302C95.9181 31.5124 96.3179 31.6176 96.7492 31.6176C97.2225 31.6176 97.6433 31.5124 98.0115 31.302C98.3797 31.0916 98.669 30.8181 98.8794 30.4815C99.1003 30.1449 99.2108 29.7924 99.2108 29.4243V22.1026H101.467V29.4716C101.467 30.3237 101.257 31.0811 100.836 31.7438C100.415 32.3961 99.8472 32.9115 99.1319 33.2902C98.4165 33.6584 97.6223 33.8425 96.7492 33.8425C95.8866 33.8425 95.0976 33.6584 94.3822 33.2902C93.6774 32.9115 93.1146 32.3961 92.6938 31.7438C92.2731 31.0811 92.0627 30.3237 92.0627 29.4716V22.1026H94.3507V29.4243ZM109.071 24.3117C109.534 24.4695 109.986 24.6694 110.428 24.9113L111.296 23.1598C110.833 22.8547 110.307 22.5918 109.718 22.3708C109.139 22.1499 108.382 22.0395 107.445 22.0395C106.73 22.071 106.099 22.2341 105.552 22.5286C105.005 22.8127 104.579 23.2019 104.274 23.6963C103.979 24.1907 103.832 24.7746 103.832 25.4478C103.832 26.0054 103.932 26.4788 104.132 26.868C104.342 27.2467 104.61 27.5675 104.936 27.8305C105.273 28.083 105.631 28.2987 106.009 28.4775C106.388 28.6563 106.756 28.8141 107.114 28.9509C107.419 29.0666 107.698 29.2033 107.95 29.3611C108.213 29.5189 108.418 29.6925 108.566 29.8819C108.724 30.0712 108.802 30.2816 108.802 30.513C108.802 30.8497 108.708 31.1127 108.518 31.302C108.34 31.4914 108.108 31.6281 107.824 31.7123C107.551 31.7859 107.277 31.8227 107.004 31.8227C106.73 31.8227 106.43 31.7807 106.104 31.6965C105.778 31.6123 105.452 31.4966 105.126 31.3494C104.81 31.1916 104.516 31.0127 104.242 30.8129L103.232 32.5959C103.643 32.88 104.069 33.1167 104.51 33.306C104.952 33.4848 105.399 33.6216 105.852 33.7163C106.315 33.8004 106.767 33.8425 107.209 33.8425C108.071 33.8425 108.797 33.69 109.386 33.3849C109.975 33.0693 110.422 32.659 110.728 32.1541C111.033 31.6492 111.185 31.1021 111.185 30.513C111.185 29.9555 111.106 29.4874 110.948 29.1087C110.791 28.7194 110.58 28.3986 110.317 28.1461C110.054 27.8831 109.754 27.6675 109.418 27.4992C109.092 27.3203 108.76 27.1678 108.424 27.0416C108.056 26.9048 107.698 26.7523 107.351 26.584C107.014 26.4156 106.735 26.2263 106.514 26.0159C106.304 25.795 106.199 25.5478 106.199 25.2743C106.199 24.8745 106.341 24.5747 106.625 24.3748C106.909 24.175 107.298 24.075 107.793 24.075C108.192 24.075 108.618 24.1539 109.071 24.3117ZM29.0158 26.8511L37.1406 34.1896H37.2038V22.1026H34.9L34.9457 29.1005L26.8367 21.645H26.742V33.7163H29.0616L29.0158 26.8511ZM13.0523 25.653C12.7472 26.3683 12.5947 27.1257 12.5947 27.9252C12.5947 28.7457 12.7472 29.5137 13.0523 30.229C13.3574 30.9443 13.7782 31.5755 14.3147 32.1225C14.8617 32.659 15.4929 33.0798 16.2082 33.3849C16.9235 33.69 17.6915 33.8425 18.512 33.8425C19.322 33.8425 20.0847 33.69 20.8 33.3849C21.5154 33.0798 22.1465 32.659 22.6936 32.1225C23.2511 31.5755 23.6824 30.9443 23.9875 30.229C24.3031 29.5137 24.4609 28.7457 24.4609 27.9252C24.4609 27.1257 24.3031 26.3683 23.9875 25.653C23.6824 24.9376 23.2511 24.3064 22.6936 23.7594C22.1465 23.2019 21.5154 22.7653 20.8 22.4497C20.0847 22.1341 19.322 21.9764 18.512 21.9764C17.6915 21.9764 16.9235 22.1341 16.2082 22.4497C15.4929 22.7653 14.8617 23.2019 14.3147 23.7594C13.7782 24.3064 13.3574 24.9376 13.0523 25.653ZM15.2299 29.3769C15.051 28.9246 14.9616 28.4407 14.9616 27.9252C14.9616 27.3992 15.051 26.9101 15.2299 26.4577C15.4087 26.0054 15.6612 25.6109 15.9873 25.2743C16.3134 24.9271 16.6921 24.6589 17.1234 24.4695C17.5547 24.2802 18.0228 24.1855 18.5278 24.1855C19.0327 24.1855 19.5009 24.2802 19.9322 24.4695C20.3635 24.6589 20.7369 24.9271 21.0525 25.2743C21.3786 25.6109 21.6311 26.0054 21.8099 26.4577C21.9993 26.9101 22.0939 27.3992 22.0939 27.9252C22.0939 28.4407 22.0045 28.9246 21.8257 29.3769C21.6469 29.8187 21.3996 30.2132 21.0841 30.5604C20.7685 30.897 20.395 31.16 19.9637 31.3493C19.5429 31.5387 19.0853 31.6334 18.5909 31.6334C18.0754 31.6334 17.5968 31.5387 17.155 31.3493C16.7237 31.16 16.3397 30.897 16.0031 30.5604C15.677 30.2132 15.4192 29.8187 15.2299 29.3769ZM6.4966 22.1026C7.70636 22.1026 8.66891 22.3498 9.38424 22.8442C10.0996 23.3281 10.4572 24.054 10.4572 25.0218C10.4572 25.7371 10.2784 26.3368 9.92074 26.8207C9.69442 27.1293 9.41221 27.3887 9.07411 27.599C9.59854 27.8432 10.028 28.1571 10.3626 28.5406C10.7939 29.0245 11.0095 29.6084 11.0095 30.2921C11.0095 30.9233 10.8938 31.4598 10.6624 31.9016C10.4415 32.3329 10.1364 32.6854 9.74717 32.9589C9.36846 33.2219 8.93716 33.4165 8.45325 33.5427C7.96935 33.6584 7.46967 33.7163 6.95421 33.7163H2V22.1026H6.4966ZM6.76485 26.8522C7.2172 26.8522 7.54857 26.7155 7.75896 26.4419C7.97987 26.1684 8.09033 25.8581 8.09033 25.511C8.09033 25.1112 7.95357 24.8114 7.68006 24.6115C7.41707 24.4117 7.0594 24.3117 6.60706 24.3117H4.28802V26.8522H6.76485ZM6.84375 31.5861C7.18038 31.5861 7.48545 31.544 7.75896 31.4598C8.03247 31.3651 8.24812 31.2231 8.40592 31.0338C8.56371 30.8339 8.64261 30.5867 8.64261 30.2921C8.64261 29.9555 8.54793 29.703 8.35858 29.5347C8.16922 29.3559 7.92201 29.2349 7.61694 29.1718C7.32239 29.0982 7.01206 29.0613 6.68596 29.0613H4.28802V31.5861H6.84375ZM61.471 22.1457V22.1456H51.6196L49.2023 22.1456L56.3683 34.6902L56.9488 33.6492L63.549 22.1457H61.471ZM59.6302 24.3477L53.0975 24.3477L56.3605 30.0047L59.6302 24.3477Z" fill="#8C959F"/>
</svg>
