<svg width="138" height="52" viewBox="0 0 138 52" fill="none" xmlns="http://www.w3.org/2000/svg">
<path fill-rule="evenodd" clip-rule="evenodd" d="M66.9143 18.9242C67.0248 18.9242 67.1143 18.8346 67.1143 18.7242V0.482843C67.1143 0.304662 66.8989 0.215428 66.7729 0.341421L48.5316 18.5827C48.4056 18.7087 48.4948 18.9242 48.673 18.9242H66.9143ZM58.5767 17.4168C58.4507 17.5428 58.2352 17.4535 58.2352 17.2754V10.2451C58.2352 10.1346 58.3248 10.0451 58.4352 10.0451H65.4655C65.6437 10.0451 65.7329 10.2605 65.6069 10.3865L58.5767 17.4168ZM65.0653 7.99604H62.1332L65.0653 5.06396V7.99604ZM56.1862 16.8751H53.2541L56.1862 13.9431V16.8751ZM65.0653 16.8751H62.1332L65.0653 13.9431V16.8751ZM69.829 18.9242C69.7185 18.9242 69.629 18.8346 69.629 18.7242V0.482843C69.629 0.304662 69.8444 0.215428 69.9704 0.341421L88.2117 18.5827C88.3377 18.7087 88.2485 18.9242 88.0703 18.9242H69.829ZM78.1666 17.4168C78.2926 17.5428 78.5081 17.4535 78.5081 17.2754V10.2451C78.5081 10.1346 78.4185 10.0451 78.3081 10.0451H71.2778C71.0996 10.0451 71.0104 10.2605 71.1364 10.3865L78.1666 17.4168ZM71.678 7.99604H74.6101L71.678 5.06396V7.99604ZM80.5571 16.8751H83.4892L80.5571 13.9431V16.8751ZM71.678 16.8751H74.6101L71.678 13.9431V16.8751ZM29.4953 45.3149L29.8312 44.7124L33.5436 51.2111H32.1837L29.8358 47.1406L27.4831 51.2111H26.1123L29.4953 45.3149ZM82.6895 46.2315C82.9346 46.3151 83.1741 46.4209 83.408 46.549L83.8676 45.6216C83.6225 45.4601 83.344 45.3208 83.032 45.2038C82.7257 45.0869 82.3246 45.0284 81.8289 45.0284C81.4501 45.0451 81.1159 45.1314 80.8263 45.2874C80.5366 45.4378 80.311 45.6439 80.1495 45.9057C79.9935 46.1675 79.9155 46.4766 79.9155 46.8331C79.9155 47.1283 79.9685 47.379 80.0743 47.5851C80.1857 47.7856 80.3277 47.9555 80.5004 48.0948C80.6786 48.2284 80.868 48.3426 81.0686 48.4373C81.2691 48.532 81.464 48.6156 81.6534 48.688C81.815 48.7492 81.9626 48.8217 82.0963 48.9052C82.2355 48.9888 82.3441 49.0807 82.4221 49.1809C82.5057 49.2812 82.5474 49.3926 82.5474 49.5151C82.5474 49.6934 82.4973 49.8326 82.397 49.9329C82.3024 50.0332 82.1798 50.1056 82.0294 50.1501C81.8846 50.1891 81.7398 50.2086 81.5949 50.2086C81.4501 50.2086 81.2914 50.1863 81.1187 50.1418C80.946 50.0972 80.7733 50.036 80.6007 49.958C80.4336 49.8744 80.2776 49.7797 80.1328 49.6739L79.598 50.618C79.8153 50.7684 80.0409 50.8938 80.2748 50.994C80.5088 51.0887 80.7455 51.1611 80.985 51.2113C81.2301 51.2558 81.4696 51.2781 81.7036 51.2781C82.1603 51.2781 82.5447 51.1973 82.8566 51.0358C83.1685 50.8687 83.4052 50.6515 83.5668 50.3841C83.7283 50.1167 83.8091 49.8271 83.8091 49.5151C83.8091 49.2199 83.7673 48.9721 83.6838 48.7715C83.6002 48.5654 83.4888 48.3955 83.3495 48.2619C83.2103 48.1226 83.0515 48.0084 82.8733 47.9193C82.7006 47.8246 82.5252 47.7438 82.3469 47.677C82.152 47.6046 81.9626 47.5238 81.7788 47.4347C81.6005 47.3456 81.4529 47.2453 81.3359 47.1339C81.2245 47.0169 81.1688 46.886 81.1688 46.7412C81.1688 46.5295 81.244 46.3708 81.3944 46.265C81.5448 46.1591 81.7509 46.1062 82.0127 46.1062C82.2244 46.1062 82.45 46.148 82.6895 46.2315ZM1.86346 45.0618C2.2478 45.0618 2.59037 45.1119 2.89116 45.2122C3.19195 45.3069 3.4426 45.4461 3.64313 45.63C3.84922 45.8082 4.00519 46.0254 4.11102 46.2817C4.21686 46.5323 4.26977 46.8164 4.26977 47.1339C4.26977 47.3846 4.23078 47.6352 4.1528 47.8859C4.08039 48.1365 3.95784 48.3649 3.78517 48.571C3.65616 48.7301 3.49395 48.866 3.29854 48.9786L4.72931 51.2113H3.31727L2.01851 49.2561H1.21175V51.2113H0.000242364V45.0618H1.86346ZM2.07234 48.0864C2.25616 48.0864 2.40934 48.0558 2.53188 47.9945C2.65442 47.9332 2.74912 47.8552 2.81596 47.7605C2.88837 47.6658 2.9385 47.5684 2.96635 47.4681C2.99977 47.3623 3.01649 47.2648 3.01649 47.1757C3.01649 47.1088 3.00535 47.0253 2.98306 46.925C2.96635 46.8192 2.92736 46.7134 2.86609 46.6075C2.80482 46.5017 2.71013 46.4126 2.58201 46.3401C2.45947 46.2677 2.29236 46.2315 2.0807 46.2315H1.21175V48.0864H2.07234ZM13.9581 45.0618H18.1524V46.2315H15.1696V47.5433H17.8098V48.713H15.1696V50.0415H18.2694V51.2113H13.9581V45.0618ZM43.0118 45.0618H41.8003V51.2113H45.9027V50.0415H43.0118V45.0618ZM66.3298 45.0618H70.5241V46.2315H67.5413V47.5433H70.1815V48.713H67.5413V50.0415H70.6411V51.2113H66.3298V45.0618ZM92.8077 45.0618H96.9519V46.2315H95.4564V51.2113H94.2449V46.2315H92.8077V45.0618ZM124.125 45.0618H119.981V46.2315H121.418V51.2113H122.63V46.2315H124.125V45.0618ZM133.524 45.0618H137.719V46.2315H134.736V47.5433H137.376V48.713H134.736V50.0415H137.836V51.2113H133.524V45.0618ZM107.983 44.7125L107.685 45.247L104.263 51.2112H105.634L107.987 47.1397L110.336 51.2112H111.695L107.983 44.7125ZM55.0881 24.0466L54.3594 25.3534L46.0745 39.7933H49.396L55.0979 29.9282L60.7883 39.7933H64.0833L55.0881 24.0466ZM94.5665 24.6395V39.8118H97.3395V33.2868L101.915 39.6138H101.955L106.708 32.8554V39.8118H109.58V24.6395H109.541L101.981 35.1263L94.5863 24.6395H94.5665ZM77.3825 29.6903C76.9996 30.5883 76.8081 31.539 76.8081 32.5426C76.8081 33.5726 76.9996 34.5365 77.3825 35.4344C77.7654 36.3324 78.2936 37.1246 78.9671 37.8113C79.6537 38.4847 80.446 39.0129 81.344 39.3959C82.2419 39.7788 83.2058 39.9703 84.2358 39.9703C85.2526 39.9703 86.2099 39.7788 87.1079 39.3959C88.0058 39.0129 88.7981 38.4847 89.4847 37.8113C90.1846 37.1246 90.726 36.3324 91.1089 35.4344C91.5051 34.5365 91.7031 33.5726 91.7031 32.5426C91.7031 31.539 91.5051 30.5883 91.1089 29.6903C90.726 28.7924 90.1846 28.0001 89.4847 27.3135C88.7981 26.6136 88.0058 26.0656 87.1079 25.6695C86.2099 25.2733 85.2526 25.0753 84.2358 25.0753C83.2058 25.0753 82.2419 25.2733 81.344 25.6695C80.446 26.0656 79.6537 26.6136 78.9671 27.3135C78.2936 28.0001 77.7654 28.7924 77.3825 29.6903ZM80.1159 34.3648C79.8914 33.797 79.7792 33.1896 79.7792 32.5426C79.7792 31.8823 79.8914 31.2683 80.1159 30.7005C80.3404 30.1327 80.6573 29.6375 81.0667 29.215C81.476 28.7792 81.9514 28.4425 82.4928 28.2048C83.0342 27.9671 83.6218 27.8483 84.2556 27.8483C84.8895 27.8483 85.4771 27.9671 86.0185 28.2048C86.5599 28.4425 87.0286 28.7792 87.4248 29.215C87.8341 29.6375 88.151 30.1327 88.3755 30.7005C88.6132 31.2683 88.7321 31.8823 88.7321 32.5426C88.7321 33.1896 88.6198 33.797 88.3953 34.3648C88.1709 34.9194 87.8605 35.4146 87.4644 35.8504C87.0682 36.2729 86.5995 36.6031 86.0581 36.8407C85.5299 37.0784 84.9555 37.1973 84.3348 37.1973C83.6878 37.1973 83.087 37.0784 82.5324 36.8407C81.991 36.6031 81.509 36.2729 81.0865 35.8504C80.6771 35.4146 80.3536 34.9194 80.1159 34.3648ZM115.923 34.4243C115.923 34.8864 116.062 35.3288 116.339 35.7514C116.617 36.1739 116.98 36.5172 117.429 36.7813C117.891 37.0454 118.393 37.1775 118.934 37.1775C119.528 37.1775 120.057 37.0454 120.519 36.7813C120.981 36.5172 121.344 36.1739 121.608 35.7514C121.885 35.3288 122.024 34.8864 122.024 34.4243V25.2337H124.857V34.4837C124.857 35.5533 124.592 36.504 124.064 37.3359C123.536 38.1546 122.823 38.8017 121.925 39.277C121.027 39.7392 120.03 39.9703 118.934 39.9703C117.851 39.9703 116.861 39.7392 115.963 39.277C115.078 38.8017 114.372 38.1546 113.844 37.3359C113.316 36.504 113.051 35.5533 113.051 34.4837V25.2337H115.923V34.4243ZM134.401 28.0067C134.982 28.2048 135.55 28.4557 136.104 28.7594L137.194 26.5608C136.613 26.1779 135.952 25.8477 135.213 25.5704C134.487 25.2931 133.536 25.1545 132.361 25.1545C131.463 25.1941 130.67 25.3988 129.984 25.7685C129.297 26.125 128.762 26.6136 128.379 27.2342C128.01 27.8549 127.825 28.5877 127.825 29.4328C127.825 30.1327 127.95 30.7269 128.201 31.2155C128.465 31.6909 128.802 32.0936 129.211 32.4237C129.634 32.7407 130.083 33.0113 130.558 33.2358C131.034 33.4603 131.496 33.6584 131.945 33.83C132.328 33.9753 132.678 34.147 132.995 34.345C133.325 34.5431 133.582 34.761 133.767 34.9987C133.965 35.2364 134.064 35.5005 134.064 35.791C134.064 36.2135 133.945 36.5436 133.708 36.7813C133.483 37.019 133.193 37.1907 132.836 37.2963C132.493 37.3887 132.149 37.435 131.806 37.435C131.463 37.435 131.086 37.3821 130.677 37.2765C130.268 37.1709 129.858 37.0256 129.449 36.8407C129.053 36.6427 128.683 36.4182 128.34 36.1673L127.072 38.4055C127.587 38.762 128.122 39.0592 128.677 39.2968C129.231 39.5213 129.792 39.693 130.36 39.8118C130.941 39.9175 131.509 39.9703 132.064 39.9703C133.146 39.9703 134.058 39.7788 134.797 39.3959C135.536 38.9997 136.098 38.4847 136.481 37.8509C136.864 37.2171 137.055 36.5304 137.055 35.791C137.055 35.0911 136.956 34.5035 136.758 34.0281C136.56 33.5395 136.296 33.1368 135.966 32.8199C135.635 32.4898 135.259 32.2191 134.837 32.0078C134.427 31.7833 134.011 31.5918 133.589 31.4334C133.127 31.2617 132.678 31.0702 132.242 30.859C131.819 30.6477 131.469 30.41 131.192 30.1459C130.928 29.8686 130.796 29.5583 130.796 29.215C130.796 28.7132 130.974 28.3368 131.331 28.086C131.687 27.8351 132.176 27.7096 132.796 27.7096C133.298 27.7096 133.833 27.8087 134.401 28.0067ZM33.9118 31.1944L44.1106 40.4061H44.1898V25.2338H41.2979L41.3553 34.018L31.1764 24.6594H31.0576V39.8119H33.9693L33.9118 31.1944ZM13.8736 29.6904C13.4906 30.5884 13.2992 31.5391 13.2992 32.5427C13.2992 33.5726 13.4906 34.5366 13.8736 35.4345C14.2565 36.3325 14.7847 37.1247 15.4582 37.8114C16.1448 38.4848 16.9371 39.013 17.835 39.396C18.733 39.7789 19.6969 39.9704 20.7269 39.9704C21.7437 39.9704 22.701 39.7789 23.5989 39.396C24.4969 39.013 25.2892 38.4848 25.9758 37.8114C26.6757 37.1247 27.2171 36.3325 27.6 35.4345C27.9961 34.5366 28.1942 33.5726 28.1942 32.5427C28.1942 31.5391 27.9961 30.5884 27.6 29.6904C27.2171 28.7925 26.6757 28.0002 25.9758 27.3136C25.2892 26.6137 24.4969 26.0657 23.5989 25.6696C22.701 25.2734 21.7437 25.0753 20.7269 25.0753C19.6969 25.0753 18.733 25.2734 17.835 25.6696C16.9371 26.0657 16.1448 26.6137 15.4582 27.3136C14.7847 28.0002 14.2565 28.7925 13.8736 29.6904ZM16.607 34.3649C16.3825 33.7971 16.2703 33.1897 16.2703 32.5427C16.2703 31.8824 16.3825 31.2684 16.607 30.7006C16.8315 30.1328 17.1484 29.6376 17.5577 29.2151C17.9671 28.7793 18.4425 28.4426 18.9839 28.2049C19.5252 27.9672 20.1129 27.8484 20.7467 27.8484C21.3805 27.8484 21.9681 27.9672 22.5095 28.2049C23.0509 28.4426 23.5197 28.7793 23.9158 29.2151C24.3252 29.6376 24.6421 30.1328 24.8666 30.7006C25.1043 31.2684 25.2231 31.8824 25.2231 32.5427C25.2231 33.1897 25.1109 33.7971 24.8864 34.3649C24.6619 34.9195 24.3516 35.4147 23.9555 35.8505C23.5593 36.273 23.0905 36.6031 22.5492 36.8408C22.021 37.0785 21.4466 37.1974 20.8259 37.1974C20.1789 37.1974 19.5781 37.0785 19.0235 36.8408C18.4821 36.6031 18.0001 36.273 17.5775 35.8505C17.1682 35.4147 16.8447 34.9195 16.607 34.3649ZM5.64438 25.2339C7.16293 25.2339 8.37117 25.5442 9.2691 26.1648C10.167 26.7722 10.616 27.6834 10.616 28.8982C10.616 29.7961 10.3915 30.5488 9.94254 31.1562C9.65845 31.5436 9.30421 31.8693 8.87981 32.1332C9.53809 32.4398 10.0772 32.8338 10.4971 33.3152C11.0385 33.9226 11.3092 34.6555 11.3092 35.5138C11.3092 36.3061 11.164 36.9795 10.8735 37.5341C10.5962 38.0755 10.2132 38.5179 9.72466 38.8612C9.24929 39.1913 8.70789 39.4356 8.10047 39.5941C7.49305 39.7393 6.86582 39.812 6.21878 39.812H0V25.2339H5.64438ZM5.9811 31.1958C6.54891 31.1958 6.96486 31.0242 7.22895 30.6808C7.50626 30.3375 7.64491 29.948 7.64491 29.5122C7.64491 29.0104 7.47324 28.6341 7.12992 28.3832C6.7998 28.1323 6.35083 28.0069 5.78303 28.0069H2.87205V31.1958H5.9811ZM6.08013 37.138C6.50269 37.138 6.88563 37.0852 7.22895 36.9795C7.57228 36.8607 7.84298 36.6824 8.04105 36.4447C8.23912 36.1939 8.33816 35.8835 8.33816 35.5138C8.33816 35.0913 8.21932 34.7743 7.98163 34.5631C7.74394 34.3386 7.43363 34.1867 7.05069 34.1075C6.68095 34.0151 6.29141 33.9688 5.88206 33.9688H2.87205V37.138H6.08013ZM77.2595 25.2878L74.6511 25.2878H62.2851L59.2508 25.2878L68.246 41.0344L68.9746 39.7277L77.2595 25.2878ZM72.3404 28.052L64.1402 28.052L68.2362 35.1529L72.3404 28.052Z" fill="url(#paint0_linear_1333_7581)"/>
<path fill-rule="evenodd" clip-rule="evenodd" d="M66.9143 18.9242C67.0248 18.9242 67.1143 18.8346 67.1143 18.7242V0.482843C67.1143 0.304662 66.8989 0.215428 66.7729 0.341421L48.5316 18.5827C48.4056 18.7087 48.4948 18.9242 48.673 18.9242H66.9143ZM58.5767 17.4168C58.4507 17.5428 58.2352 17.4535 58.2352 17.2754V10.2451C58.2352 10.1346 58.3248 10.0451 58.4352 10.0451H65.4655C65.6437 10.0451 65.7329 10.2605 65.6069 10.3865L58.5767 17.4168ZM65.0653 7.99604H62.1332L65.0653 5.06396V7.99604ZM56.1862 16.8751H53.2541L56.1862 13.9431V16.8751ZM65.0653 16.8751H62.1332L65.0653 13.9431V16.8751ZM69.829 18.9242C69.7185 18.9242 69.629 18.8346 69.629 18.7242V0.482843C69.629 0.304662 69.8444 0.215428 69.9704 0.341421L88.2117 18.5827C88.3377 18.7087 88.2485 18.9242 88.0703 18.9242H69.829ZM78.1666 17.4168C78.2926 17.5428 78.5081 17.4535 78.5081 17.2754V10.2451C78.5081 10.1346 78.4185 10.0451 78.3081 10.0451H71.2778C71.0996 10.0451 71.0104 10.2605 71.1364 10.3865L78.1666 17.4168ZM71.678 7.99604H74.6101L71.678 5.06396V7.99604ZM80.5571 16.8751H83.4892L80.5571 13.9431V16.8751ZM71.678 16.8751H74.6101L71.678 13.9431V16.8751ZM29.4953 45.3149L29.8312 44.7124L33.5436 51.2111H32.1837L29.8358 47.1406L27.4831 51.2111H26.1123L29.4953 45.3149ZM82.6895 46.2315C82.9346 46.3151 83.1741 46.4209 83.408 46.549L83.8676 45.6216C83.6225 45.4601 83.344 45.3208 83.032 45.2038C82.7257 45.0869 82.3246 45.0284 81.8289 45.0284C81.4501 45.0451 81.1159 45.1314 80.8263 45.2874C80.5366 45.4378 80.311 45.6439 80.1495 45.9057C79.9935 46.1675 79.9155 46.4766 79.9155 46.8331C79.9155 47.1283 79.9685 47.379 80.0743 47.5851C80.1857 47.7856 80.3277 47.9555 80.5004 48.0948C80.6786 48.2284 80.868 48.3426 81.0686 48.4373C81.2691 48.532 81.464 48.6156 81.6534 48.688C81.815 48.7492 81.9626 48.8217 82.0963 48.9052C82.2355 48.9888 82.3441 49.0807 82.4221 49.1809C82.5057 49.2812 82.5474 49.3926 82.5474 49.5151C82.5474 49.6934 82.4973 49.8326 82.397 49.9329C82.3024 50.0332 82.1798 50.1056 82.0294 50.1501C81.8846 50.1891 81.7398 50.2086 81.5949 50.2086C81.4501 50.2086 81.2914 50.1863 81.1187 50.1418C80.946 50.0972 80.7733 50.036 80.6007 49.958C80.4336 49.8744 80.2776 49.7797 80.1328 49.6739L79.598 50.618C79.8153 50.7684 80.0409 50.8938 80.2748 50.994C80.5088 51.0887 80.7455 51.1611 80.985 51.2113C81.2301 51.2558 81.4696 51.2781 81.7036 51.2781C82.1603 51.2781 82.5447 51.1973 82.8566 51.0358C83.1685 50.8687 83.4052 50.6515 83.5668 50.3841C83.7283 50.1167 83.8091 49.8271 83.8091 49.5151C83.8091 49.2199 83.7673 48.9721 83.6838 48.7715C83.6002 48.5654 83.4888 48.3955 83.3495 48.2619C83.2103 48.1226 83.0515 48.0084 82.8733 47.9193C82.7006 47.8246 82.5252 47.7438 82.3469 47.677C82.152 47.6046 81.9626 47.5238 81.7788 47.4347C81.6005 47.3456 81.4529 47.2453 81.3359 47.1339C81.2245 47.0169 81.1688 46.886 81.1688 46.7412C81.1688 46.5295 81.244 46.3708 81.3944 46.265C81.5448 46.1591 81.7509 46.1062 82.0127 46.1062C82.2244 46.1062 82.45 46.148 82.6895 46.2315ZM1.86346 45.0618C2.2478 45.0618 2.59037 45.1119 2.89116 45.2122C3.19195 45.3069 3.4426 45.4461 3.64313 45.63C3.84922 45.8082 4.00519 46.0254 4.11102 46.2817C4.21686 46.5323 4.26977 46.8164 4.26977 47.1339C4.26977 47.3846 4.23078 47.6352 4.1528 47.8859C4.08039 48.1365 3.95784 48.3649 3.78517 48.571C3.65616 48.7301 3.49395 48.866 3.29854 48.9786L4.72931 51.2113H3.31727L2.01851 49.2561H1.21175V51.2113H0.000242364V45.0618H1.86346ZM2.07234 48.0864C2.25616 48.0864 2.40934 48.0558 2.53188 47.9945C2.65442 47.9332 2.74912 47.8552 2.81596 47.7605C2.88837 47.6658 2.9385 47.5684 2.96635 47.4681C2.99977 47.3623 3.01649 47.2648 3.01649 47.1757C3.01649 47.1088 3.00535 47.0253 2.98306 46.925C2.96635 46.8192 2.92736 46.7134 2.86609 46.6075C2.80482 46.5017 2.71013 46.4126 2.58201 46.3401C2.45947 46.2677 2.29236 46.2315 2.0807 46.2315H1.21175V48.0864H2.07234ZM13.9581 45.0618H18.1524V46.2315H15.1696V47.5433H17.8098V48.713H15.1696V50.0415H18.2694V51.2113H13.9581V45.0618ZM43.0118 45.0618H41.8003V51.2113H45.9027V50.0415H43.0118V45.0618ZM66.3298 45.0618H70.5241V46.2315H67.5413V47.5433H70.1815V48.713H67.5413V50.0415H70.6411V51.2113H66.3298V45.0618ZM92.8077 45.0618H96.9519V46.2315H95.4564V51.2113H94.2449V46.2315H92.8077V45.0618ZM124.125 45.0618H119.981V46.2315H121.418V51.2113H122.63V46.2315H124.125V45.0618ZM133.524 45.0618H137.719V46.2315H134.736V47.5433H137.376V48.713H134.736V50.0415H137.836V51.2113H133.524V45.0618ZM107.983 44.7125L107.685 45.247L104.263 51.2112H105.634L107.987 47.1397L110.336 51.2112H111.695L107.983 44.7125ZM55.0881 24.0466L54.3594 25.3534L46.0745 39.7933H49.396L55.0979 29.9282L60.7883 39.7933H64.0833L55.0881 24.0466ZM94.5665 24.6395V39.8118H97.3395V33.2868L101.915 39.6138H101.955L106.708 32.8554V39.8118H109.58V24.6395H109.541L101.981 35.1263L94.5863 24.6395H94.5665ZM77.3825 29.6903C76.9996 30.5883 76.8081 31.539 76.8081 32.5426C76.8081 33.5726 76.9996 34.5365 77.3825 35.4344C77.7654 36.3324 78.2936 37.1246 78.9671 37.8113C79.6537 38.4847 80.446 39.0129 81.344 39.3959C82.2419 39.7788 83.2058 39.9703 84.2358 39.9703C85.2526 39.9703 86.2099 39.7788 87.1079 39.3959C88.0058 39.0129 88.7981 38.4847 89.4847 37.8113C90.1846 37.1246 90.726 36.3324 91.1089 35.4344C91.5051 34.5365 91.7031 33.5726 91.7031 32.5426C91.7031 31.539 91.5051 30.5883 91.1089 29.6903C90.726 28.7924 90.1846 28.0001 89.4847 27.3135C88.7981 26.6136 88.0058 26.0656 87.1079 25.6695C86.2099 25.2733 85.2526 25.0753 84.2358 25.0753C83.2058 25.0753 82.2419 25.2733 81.344 25.6695C80.446 26.0656 79.6537 26.6136 78.9671 27.3135C78.2936 28.0001 77.7654 28.7924 77.3825 29.6903ZM80.1159 34.3648C79.8914 33.797 79.7792 33.1896 79.7792 32.5426C79.7792 31.8823 79.8914 31.2683 80.1159 30.7005C80.3404 30.1327 80.6573 29.6375 81.0667 29.215C81.476 28.7792 81.9514 28.4425 82.4928 28.2048C83.0342 27.9671 83.6218 27.8483 84.2556 27.8483C84.8895 27.8483 85.4771 27.9671 86.0185 28.2048C86.5599 28.4425 87.0286 28.7792 87.4248 29.215C87.8341 29.6375 88.151 30.1327 88.3755 30.7005C88.6132 31.2683 88.7321 31.8823 88.7321 32.5426C88.7321 33.1896 88.6198 33.797 88.3953 34.3648C88.1709 34.9194 87.8605 35.4146 87.4644 35.8504C87.0682 36.2729 86.5995 36.6031 86.0581 36.8407C85.5299 37.0784 84.9555 37.1973 84.3348 37.1973C83.6878 37.1973 83.087 37.0784 82.5324 36.8407C81.991 36.6031 81.509 36.2729 81.0865 35.8504C80.6771 35.4146 80.3536 34.9194 80.1159 34.3648ZM115.923 34.4243C115.923 34.8864 116.062 35.3288 116.339 35.7514C116.617 36.1739 116.98 36.5172 117.429 36.7813C117.891 37.0454 118.393 37.1775 118.934 37.1775C119.528 37.1775 120.057 37.0454 120.519 36.7813C120.981 36.5172 121.344 36.1739 121.608 35.7514C121.885 35.3288 122.024 34.8864 122.024 34.4243V25.2337H124.857V34.4837C124.857 35.5533 124.592 36.504 124.064 37.3359C123.536 38.1546 122.823 38.8017 121.925 39.277C121.027 39.7392 120.03 39.9703 118.934 39.9703C117.851 39.9703 116.861 39.7392 115.963 39.277C115.078 38.8017 114.372 38.1546 113.844 37.3359C113.316 36.504 113.051 35.5533 113.051 34.4837V25.2337H115.923V34.4243ZM134.401 28.0067C134.982 28.2048 135.55 28.4557 136.104 28.7594L137.194 26.5608C136.613 26.1779 135.952 25.8477 135.213 25.5704C134.487 25.2931 133.536 25.1545 132.361 25.1545C131.463 25.1941 130.67 25.3988 129.984 25.7685C129.297 26.125 128.762 26.6136 128.379 27.2342C128.01 27.8549 127.825 28.5877 127.825 29.4328C127.825 30.1327 127.95 30.7269 128.201 31.2155C128.465 31.6909 128.802 32.0936 129.211 32.4237C129.634 32.7407 130.083 33.0113 130.558 33.2358C131.034 33.4603 131.496 33.6584 131.945 33.83C132.328 33.9753 132.678 34.147 132.995 34.345C133.325 34.5431 133.582 34.761 133.767 34.9987C133.965 35.2364 134.064 35.5005 134.064 35.791C134.064 36.2135 133.945 36.5436 133.708 36.7813C133.483 37.019 133.193 37.1907 132.836 37.2963C132.493 37.3887 132.149 37.435 131.806 37.435C131.463 37.435 131.086 37.3821 130.677 37.2765C130.268 37.1709 129.858 37.0256 129.449 36.8407C129.053 36.6427 128.683 36.4182 128.34 36.1673L127.072 38.4055C127.587 38.762 128.122 39.0592 128.677 39.2968C129.231 39.5213 129.792 39.693 130.36 39.8118C130.941 39.9175 131.509 39.9703 132.064 39.9703C133.146 39.9703 134.058 39.7788 134.797 39.3959C135.536 38.9997 136.098 38.4847 136.481 37.8509C136.864 37.2171 137.055 36.5304 137.055 35.791C137.055 35.0911 136.956 34.5035 136.758 34.0281C136.56 33.5395 136.296 33.1368 135.966 32.8199C135.635 32.4898 135.259 32.2191 134.837 32.0078C134.427 31.7833 134.011 31.5918 133.589 31.4334C133.127 31.2617 132.678 31.0702 132.242 30.859C131.819 30.6477 131.469 30.41 131.192 30.1459C130.928 29.8686 130.796 29.5583 130.796 29.215C130.796 28.7132 130.974 28.3368 131.331 28.086C131.687 27.8351 132.176 27.7096 132.796 27.7096C133.298 27.7096 133.833 27.8087 134.401 28.0067ZM33.9118 31.1944L44.1106 40.4061H44.1898V25.2338H41.2979L41.3553 34.018L31.1764 24.6594H31.0576V39.8119H33.9693L33.9118 31.1944ZM13.8736 29.6904C13.4906 30.5884 13.2992 31.5391 13.2992 32.5427C13.2992 33.5726 13.4906 34.5366 13.8736 35.4345C14.2565 36.3325 14.7847 37.1247 15.4582 37.8114C16.1448 38.4848 16.9371 39.013 17.835 39.396C18.733 39.7789 19.6969 39.9704 20.7269 39.9704C21.7437 39.9704 22.701 39.7789 23.5989 39.396C24.4969 39.013 25.2892 38.4848 25.9758 37.8114C26.6757 37.1247 27.2171 36.3325 27.6 35.4345C27.9961 34.5366 28.1942 33.5726 28.1942 32.5427C28.1942 31.5391 27.9961 30.5884 27.6 29.6904C27.2171 28.7925 26.6757 28.0002 25.9758 27.3136C25.2892 26.6137 24.4969 26.0657 23.5989 25.6696C22.701 25.2734 21.7437 25.0753 20.7269 25.0753C19.6969 25.0753 18.733 25.2734 17.835 25.6696C16.9371 26.0657 16.1448 26.6137 15.4582 27.3136C14.7847 28.0002 14.2565 28.7925 13.8736 29.6904ZM16.607 34.3649C16.3825 33.7971 16.2703 33.1897 16.2703 32.5427C16.2703 31.8824 16.3825 31.2684 16.607 30.7006C16.8315 30.1328 17.1484 29.6376 17.5577 29.2151C17.9671 28.7793 18.4425 28.4426 18.9839 28.2049C19.5252 27.9672 20.1129 27.8484 20.7467 27.8484C21.3805 27.8484 21.9681 27.9672 22.5095 28.2049C23.0509 28.4426 23.5197 28.7793 23.9158 29.2151C24.3252 29.6376 24.6421 30.1328 24.8666 30.7006C25.1043 31.2684 25.2231 31.8824 25.2231 32.5427C25.2231 33.1897 25.1109 33.7971 24.8864 34.3649C24.6619 34.9195 24.3516 35.4147 23.9555 35.8505C23.5593 36.273 23.0905 36.6031 22.5492 36.8408C22.021 37.0785 21.4466 37.1974 20.8259 37.1974C20.1789 37.1974 19.5781 37.0785 19.0235 36.8408C18.4821 36.6031 18.0001 36.273 17.5775 35.8505C17.1682 35.4147 16.8447 34.9195 16.607 34.3649ZM5.64438 25.2339C7.16293 25.2339 8.37117 25.5442 9.2691 26.1648C10.167 26.7722 10.616 27.6834 10.616 28.8982C10.616 29.7961 10.3915 30.5488 9.94254 31.1562C9.65845 31.5436 9.30421 31.8693 8.87981 32.1332C9.53809 32.4398 10.0772 32.8338 10.4971 33.3152C11.0385 33.9226 11.3092 34.6555 11.3092 35.5138C11.3092 36.3061 11.164 36.9795 10.8735 37.5341C10.5962 38.0755 10.2132 38.5179 9.72466 38.8612C9.24929 39.1913 8.70789 39.4356 8.10047 39.5941C7.49305 39.7393 6.86582 39.812 6.21878 39.812H0V25.2339H5.64438ZM5.9811 31.1958C6.54891 31.1958 6.96486 31.0242 7.22895 30.6808C7.50626 30.3375 7.64491 29.948 7.64491 29.5122C7.64491 29.0104 7.47324 28.6341 7.12992 28.3832C6.7998 28.1323 6.35083 28.0069 5.78303 28.0069H2.87205V31.1958H5.9811ZM6.08013 37.138C6.50269 37.138 6.88563 37.0852 7.22895 36.9795C7.57228 36.8607 7.84298 36.6824 8.04105 36.4447C8.23912 36.1939 8.33816 35.8835 8.33816 35.5138C8.33816 35.0913 8.21932 34.7743 7.98163 34.5631C7.74394 34.3386 7.43363 34.1867 7.05069 34.1075C6.68095 34.0151 6.29141 33.9688 5.88206 33.9688H2.87205V37.138H6.08013ZM77.2595 25.2878L74.6511 25.2878H62.2851L59.2508 25.2878L68.246 41.0344L68.9746 39.7277L77.2595 25.2878ZM72.3404 28.052L64.1402 28.052L68.2362 35.1529L72.3404 28.052Z" fill="white"/>
<defs>
<linearGradient id="paint0_linear_1333_7581" x1="-10.4325" y1="21.6997" x2="147.725" y2="57.5875" gradientUnits="userSpaceOnUse">
<stop offset="0.0544024" stop-color="#887A40"/>
<stop offset="0.41449" stop-color="#CEC086"/>
<stop offset="0.517306" stop-color="#D8CA90"/>
<stop offset="0.900608" stop-color="#887A40"/>
</linearGradient>
</defs>
</svg>
