<svg width="657" height="135" viewBox="0 0 657 135" fill="none" xmlns="http://www.w3.org/2000/svg">
<path fill-rule="evenodd" clip-rule="evenodd" d="M134.416 0C133.887 0 133.379 0.209518 133.005 0.582706L108.167 25.3125L1.43222 131.583C0.16806 132.841 1.05944 135 2.84335 135H218.333H438.667H654.157C655.941 135 656.832 132.841 655.568 131.583L548.833 25.3125L523.995 0.582706C523.621 0.209518 523.113 0 522.584 0H489.513H387.82H354.749C354.22 0 353.712 0.209522 353.338 0.582717L328.5 25.3125L303.662 0.582707C303.288 0.209519 302.78 0 302.251 0H269.18H167.487H134.416ZM328.5 25.3125H548.833L438.667 135L328.5 25.3125ZM328.5 25.3125H108.167L218.333 135L328.5 25.3125ZM109.578 60.4675C108.798 59.6905 107.536 59.6905 106.756 60.4675L60.7528 106.27C59.4886 107.529 60.38 109.688 62.1639 109.688L154.17 109.688C155.953 109.688 156.845 107.529 155.581 106.27L109.578 60.4675ZM282.497 109.688C280.713 109.688 279.822 107.529 281.086 106.27L327.089 60.4675C327.869 59.6905 329.131 59.6905 329.911 60.4675L375.914 106.27C377.178 107.529 376.287 109.688 374.503 109.688L282.497 109.688ZM547.422 60.4675C548.203 59.6905 549.464 59.6905 550.244 60.4675L596.247 106.27C597.511 107.529 596.62 109.688 594.836 109.688L502.83 109.688C501.047 109.688 500.155 107.529 501.419 106.27L547.422 60.4675Z" fill="white" fill-opacity="0.5"/>
</svg>
