<svg width="24" height="24" viewBox="0 0 24 24" fill="none" xmlns="http://www.w3.org/2000/svg">
<g clip-path="url(#clip0_1660_68648)">
<path d="M12.4428 18.9284L12.4412 18.9299L12.0038 19.325L11.5598 18.9208L11.5576 18.9188C8.95243 16.5565 6.91201 14.702 5.50483 12.9816C4.11487 11.2822 3.5 9.89727 3.5 8.5C3.5 6.24843 5.24843 4.5 7.5 4.5C8.78582 4.5 10.0434 5.1059 10.858 6.06251L12 7.40361L13.142 6.06251C13.9566 5.1059 15.2142 4.5 16.5 4.5C18.7516 4.5 20.5 6.24843 20.5 8.5C20.5 9.8973 19.8851 11.2823 18.4949 12.9832C17.0876 14.7049 15.0476 16.5614 12.4428 18.9284Z" fill="white"/>
</g>
<defs>
<clipPath id="clip0_1660_68648">
<rect width="24" height="24" fill="white"/>
</clipPath>
</defs>
</svg>
