<svg width="29" height="31" viewBox="0 0 29 31" fill="none" xmlns="http://www.w3.org/2000/svg">
<g clip-path="url(#clip0_1707_1037)">
<path d="M25.2374 3.54711C24.4936 2.86586 21.4811 0.675859 14.7724 0.647109C14.7724 0.647109 6.85612 0.173359 2.99987 3.71211C0.854867 5.85711 0.103616 8.99836 0.0173662 12.8946C-0.0688838 16.7909 -0.165134 24.0934 6.87362 26.0784H6.87987L6.87362 29.1021C6.87362 29.1021 6.82737 30.3271 7.63237 30.5734C8.60487 30.8784 9.17987 29.9459 10.1111 28.9434C10.6211 28.3921 11.3236 27.5846 11.8574 26.9684C14.9161 27.2517 18.0008 27.0163 20.9811 26.2721L20.7936 26.3121C21.7661 25.9959 27.2686 25.2921 28.1586 17.9909C29.0886 10.4534 27.7161 5.69836 25.2374 3.54711ZM26.0524 17.4409C25.2936 23.5346 20.8361 23.9221 20.0161 24.1846C18.2261 24.6396 16.1711 24.8996 14.0549 24.8996C13.4474 24.8996 12.8449 24.8784 12.2486 24.8359L12.3286 24.8409C12.3286 24.8409 9.28112 28.5146 8.33237 29.4696C8.02237 29.7796 7.68112 29.7546 7.68737 29.1359C7.68737 28.7321 7.71112 24.1134 7.71112 24.1134C1.75237 22.4609 2.09737 16.2409 2.16737 12.9921C2.23737 9.74336 2.84737 7.07336 4.66362 5.28086C7.92862 2.32211 14.6499 2.76086 14.6499 2.76086C20.3286 2.78461 23.0474 4.49586 23.6799 5.06961C25.7724 6.86336 26.8386 11.1546 26.0524 17.4409ZM17.9136 12.7059V12.7234C17.911 12.8207 17.8711 12.9133 17.8021 12.9821C17.7332 13.0509 17.6405 13.0906 17.5431 13.093C17.4458 13.0954 17.3512 13.0603 17.279 12.995C17.2067 12.9297 17.1623 12.8392 17.1549 12.7421C17.1803 12.4811 17.1488 12.2165 17.0626 11.9688C16.9764 11.7212 16.8374 11.4952 16.6553 11.3065C16.4733 11.1178 16.2524 10.9708 16.0081 10.8758C15.7637 10.7807 15.5016 10.7398 15.2399 10.7559H15.2449C15.1477 10.7483 15.0572 10.7038 14.992 10.6314C14.9267 10.559 14.8918 10.4644 14.8943 10.367C14.8969 10.2696 14.9368 10.1769 15.0057 10.1081C15.0747 10.0392 15.1675 9.99951 15.2649 9.99711H15.2861H15.2849L15.3711 9.99586C15.7201 9.99574 16.0654 10.0674 16.3855 10.2063C16.7057 10.3452 16.9938 10.5484 17.2321 10.8034C17.4704 11.0583 17.6538 11.3595 17.7708 11.6883C17.8878 12.0171 17.936 12.3664 17.9124 12.7146V12.7071L17.9136 12.7059ZM19.1024 13.3696C19.1611 10.8846 17.6086 8.93961 14.6611 8.72211C14.61 8.72051 14.5597 8.7086 14.5133 8.68709C14.4668 8.66558 14.4252 8.63492 14.3909 8.59693C14.3566 8.55895 14.3304 8.51444 14.3137 8.46606C14.297 8.41768 14.2903 8.36644 14.2939 8.3154C14.2976 8.26436 14.3115 8.21458 14.3348 8.16903C14.3581 8.12349 14.3904 8.08314 14.4297 8.05038C14.469 8.01762 14.5145 7.99314 14.5635 7.9784C14.6125 7.96366 14.664 7.95897 14.7149 7.96461H14.7136H14.7349C15.4344 7.96458 16.1265 8.10755 16.7687 8.38472C17.411 8.66189 17.9898 9.06741 18.4696 9.57639C18.9495 10.0854 19.3202 10.6871 19.559 11.3445C19.7979 12.002 19.8998 12.7013 19.8586 13.3996L19.8599 13.3859C19.8532 13.4827 19.8096 13.5734 19.7382 13.6392C19.6668 13.705 19.5729 13.7409 19.4758 13.7396C19.3787 13.7383 19.2857 13.6999 19.2161 13.6323C19.1464 13.5646 19.1053 13.4729 19.1011 13.3759V13.3659L19.1024 13.3696ZM21.8524 14.1559V14.1584C21.8473 14.2553 21.8054 14.3465 21.7352 14.4135C21.665 14.4805 21.5718 14.518 21.4748 14.5185C21.3777 14.519 21.2842 14.4824 21.2133 14.4161C21.1425 14.3498 21.0996 14.2589 21.0936 14.1621C21.0636 9.38461 17.8774 6.78336 14.0161 6.75586C13.9664 6.75586 13.9171 6.74606 13.8712 6.72703C13.8252 6.70799 13.7835 6.6801 13.7483 6.64493C13.7131 6.60976 13.6852 6.568 13.6662 6.52205C13.6472 6.4761 13.6374 6.42685 13.6374 6.37711C13.6374 6.32737 13.6472 6.27812 13.6662 6.23217C13.6852 6.18621 13.7131 6.14446 13.7483 6.10929C13.7835 6.07412 13.8252 6.04622 13.8712 6.02719C13.9171 6.00816 13.9664 5.99836 14.0161 5.99836C18.3399 6.02836 21.8149 9.01211 21.8499 14.1546L21.8524 14.1559ZM21.1961 19.9034V19.9146C20.5636 21.0284 19.3799 22.2584 18.1611 21.8659L18.1499 21.8484C15.977 21.0487 13.9402 19.9193 12.1111 18.4996L12.1624 18.5371C11.2522 17.8144 10.4266 16.9913 9.70112 16.0834L9.67737 16.0521C9.0205 15.2252 8.43427 14.3446 7.92487 13.4196L7.87487 13.3209C7.27218 12.3273 6.7725 11.2747 6.38362 10.1796L6.34612 10.0571C5.95362 8.83836 7.17737 7.65461 8.29737 7.02211H8.30862C8.52896 6.88106 8.79355 6.82616 9.05182 6.8679C9.31009 6.90964 9.54392 7.04509 9.70862 7.24836L9.70987 7.25086C9.70987 7.25086 10.4361 8.11711 10.7474 8.54586C11.0399 8.94461 11.4336 9.58336 11.6374 9.93961C11.7908 10.183 11.8532 10.4728 11.8136 10.7578C11.7741 11.0428 11.635 11.3047 11.4211 11.4971L11.4199 11.4984L10.7174 12.0609C10.6078 12.1666 10.5232 12.2953 10.4696 12.4378C10.416 12.5803 10.3947 12.7329 10.4074 12.8846V12.8809C10.7552 14.04 11.383 15.0957 12.2354 15.9549C13.0878 16.814 14.1385 17.4501 15.2949 17.8071L15.3474 17.8209C15.4983 17.8328 15.6501 17.8113 15.7918 17.7579C15.9335 17.7045 16.0617 17.6206 16.1674 17.5121L16.7299 16.8096C16.9231 16.5947 17.1863 16.4553 17.4726 16.4162C17.7589 16.3771 18.0498 16.4407 18.2936 16.5959L18.2886 16.5934C19.3049 17.1721 20.1836 17.8084 20.9849 18.5296L20.9711 18.5171C21.1744 18.6792 21.3096 18.9114 21.3504 19.1682C21.3911 19.4249 21.3343 19.6876 21.1911 19.9046L21.1936 19.9009L21.1961 19.9034Z" fill="white" fill-opacity="0.7"/>
</g>
<defs>
<clipPath id="clip0_1707_1037">
<rect width="28.75" height="30" fill="white" transform="translate(0 0.625977)"/>
</clipPath>
</defs>
</svg>
