<svg width="31" height="31" viewBox="0 0 31 31" fill="none" xmlns="http://www.w3.org/2000/svg">
<g clip-path="url(#clip0_1707_1041)">
<path d="M19.838 17.1386C20.514 17.3512 21.1616 17.645 21.7668 18.0136L21.728 17.9911C22.3893 18.2848 22.9605 18.6286 23.4818 19.0323L23.463 19.0186C23.488 19.0948 23.503 19.1811 23.503 19.2723L23.5018 19.3123V19.3111C23.483 19.8473 23.3643 20.3511 23.163 20.8098L23.173 20.7836C22.8843 21.3623 22.403 21.8086 21.8143 22.0461L21.7968 22.0523C21.1876 22.3708 20.5139 22.5465 19.8268 22.5661H19.8193C18.5077 22.3974 17.2402 21.9809 16.0843 21.3386L16.138 21.3661C14.9103 20.8099 13.7938 20.0352 12.843 19.0798L12.8418 19.0786C11.8048 17.9988 10.8645 16.8302 10.0318 15.5861L9.97305 15.4936C9.14671 14.4134 8.66728 13.1081 8.59805 11.7498L8.5968 11.7336V11.5786C8.61514 10.9984 8.75138 10.428 8.99722 9.90212C9.24306 9.37626 9.59336 8.90595 10.0268 8.51981L10.0305 8.51606C10.2983 8.24929 10.6589 8.09653 11.0368 8.08981H11.038C11.1643 8.09356 11.2855 8.10356 11.403 8.12106L11.3868 8.11856C11.4955 8.13481 11.6218 8.14481 11.7518 8.14731H11.7555C11.9375 8.12962 12.1201 8.1746 12.273 8.27481L12.2705 8.27356C12.4043 8.42106 12.5068 8.59981 12.568 8.79606L12.5705 8.80606C12.6739 9.06439 12.8872 9.63273 13.2105 10.5111C13.3793 10.9036 13.5443 11.3873 13.6768 11.8848L13.6943 11.9636C13.6041 12.3986 13.3693 12.7903 13.028 13.0748L13.0243 13.0773C12.5785 13.549 12.3555 13.849 12.3555 13.9773C12.3603 14.0825 12.3955 14.1841 12.4568 14.2698L12.4555 14.2686C12.939 15.268 13.6075 16.1668 14.4255 16.9173L14.4318 16.9236C15.2882 17.6951 16.2484 18.343 17.2843 18.8486L17.358 18.8811C17.4847 18.9633 17.631 19.0103 17.7818 19.0173H17.7843C17.9785 19.0173 18.3276 18.704 18.8318 18.0773C19.336 17.4506 19.671 17.1373 19.8368 17.1373L19.838 17.1386ZM15.9043 27.4086H15.9318C17.5731 27.4109 19.1969 27.0707 20.6993 26.4098L20.623 26.4398C23.568 25.1973 25.8643 22.9011 27.0768 20.0348L27.1068 19.9561C27.7193 18.5648 28.0755 16.9423 28.0755 15.2373C28.0755 13.5323 27.7193 11.9098 27.0768 10.4411L27.1068 10.5186C25.8643 7.57356 23.568 5.27731 20.7018 4.06481L20.623 4.03481C19.2318 3.42231 17.6093 3.06606 15.9043 3.06606C14.1993 3.06606 12.5768 3.42231 11.108 4.06481L11.1855 4.03481C8.24055 5.27731 5.9443 7.57356 4.7318 10.4398L4.7018 10.5186C4.0573 12.0132 3.72753 13.6246 3.73305 15.2523C3.72901 17.8258 4.55244 20.3325 6.0818 22.4023L6.05805 22.3698L4.5268 26.8861L9.2168 25.3936C11.176 26.7132 13.4859 27.415 15.848 27.4086H15.9068H15.9043ZM15.9043 0.626061H15.9455C17.9805 0.626061 19.9155 1.05356 21.6643 1.82481L21.573 1.78856C25.1043 3.28481 27.858 6.03856 29.318 9.47481L29.3543 9.56981C30.0893 11.2411 30.5168 13.1898 30.5168 15.2386C30.5168 17.2873 30.0893 19.2361 29.318 20.9998L29.3543 20.9073C27.858 24.4386 25.1043 27.1923 21.668 28.6523L21.573 28.6886C19.9143 29.4236 17.9793 29.8511 15.9443 29.8511H15.9018H15.9043H15.838C13.2643 29.8511 10.848 29.1748 8.75805 27.9911L8.8293 28.0286L0.748047 30.6261L3.3843 22.7773C2.00819 20.5137 1.28406 17.9139 1.2918 15.2648C1.2918 13.2073 1.7193 11.2498 2.49055 9.47606L2.4543 9.56981C3.95055 6.03856 6.7043 3.28481 10.1405 1.82481L10.2355 1.78856C12.011 1.01518 13.9278 0.61931 15.8643 0.626061H15.9055H15.9043Z" fill="white" fill-opacity="0.7"/>
</g>
<defs>
<clipPath id="clip0_1707_1041">
<rect width="30" height="30" fill="white" transform="translate(0.75 0.625977)"/>
</clipPath>
</defs>
</svg>
