<svg width="16" height="16" viewBox="0 0 16 16" fill="none" xmlns="http://www.w3.org/2000/svg">
<rect x="0.25" y="0.25" width="15.5" height="15.5" rx="1.75" stroke="#BAAC72" stroke-width="0.5"/>
<path fill-rule="evenodd" clip-rule="evenodd" d="M5 3C3.89543 3 3 3.89543 3 5V11C3 12.1046 3.89543 13 5 13H11C12.1046 13 13 12.1046 13 11V5C13 3.89543 12.1046 3 11 3H5ZM11.4472 5.22361C11.5707 4.97662 11.4706 4.67628 11.2236 4.55279C10.9766 4.42929 10.6763 4.5294 10.5528 4.77639L7.86302 10.1559L5.35355 7.64645C5.15829 7.45118 4.84171 7.45118 4.64645 7.64645C4.45118 7.84171 4.45118 8.15829 4.64645 8.35355L7.64645 11.3536L8.13698 11.8441L8.44721 11.2236L11.4472 5.22361Z" fill="#BAAC72"/>
</svg>
