<svg width="24" height="24" viewBox="0 0 24 24" fill="none" xmlns="http://www.w3.org/2000/svg">
<g clip-path="url(#clip0_1660_68540)">
<path fill-rule="evenodd" clip-rule="evenodd" d="M12 20.5C12.5065 20.5 13.3688 20.0504 14.1939 18.4002C14.6525 17.4829 15.0233 16.3237 15.251 15H8.74899C8.9767 16.3237 9.34746 17.4829 9.80611 18.4002C10.6312 20.0504 11.4935 20.5 12 20.5ZM8.56043 13.5C8.52086 13.0146 8.5 12.5136 8.5 12C8.5 11.308 8.53786 10.6388 8.60835 10H15.3917C15.4621 10.6388 15.5 11.308 15.5 12C15.5 12.5136 15.4791 13.0146 15.4396 13.5H8.56043ZM16.7711 15C16.4594 16.9848 15.8466 18.703 15.0398 19.9403C17.3022 19.0737 19.0998 17.2679 19.9554 15H16.7711ZM20.3681 13.5H16.9441C16.9809 13.0107 17 12.5098 17 12C17 11.3151 16.9656 10.6462 16.9 10H20.2634C20.4181 10.6414 20.5 11.3111 20.5 12C20.5 12.5118 20.4548 13.0131 20.3681 13.5ZM7.05588 13.5H3.63193C3.54524 13.0131 3.5 12.5118 3.5 12C3.5 11.3111 3.58195 10.6414 3.73663 10H7.10002C7.03443 10.6462 7 11.3151 7 12C7 12.5098 7.01907 13.0107 7.05588 13.5ZM4.04455 15H7.2289C7.5406 16.9848 8.15338 18.703 8.9602 19.9403C6.69776 19.0737 4.9002 17.2679 4.04455 15ZM8.84334 8.5H15.1567C14.927 7.38355 14.5938 6.39965 14.1939 5.59975C13.3688 3.94957 12.5065 3.5 12 3.5C11.4935 3.5 10.6312 3.94957 9.80611 5.59975C9.40616 6.39965 9.07305 7.38355 8.84334 8.5ZM16.6852 8.5H19.7483C18.8288 6.46775 17.1333 4.86165 15.0398 4.05969C15.7781 5.19191 16.3539 6.7267 16.6852 8.5ZM8.9602 4.05969C8.22193 5.19191 7.64613 6.7267 7.3148 8.5H4.25174C5.17118 6.46775 6.86667 4.86165 8.9602 4.05969ZM12 2C17.5228 2 22 6.47715 22 12C22 17.5228 17.5228 22 12 22C6.47715 22 2 17.5228 2 12C2 6.47715 6.47715 2 12 2Z" fill="#E0D08A"/>
</g>
<defs>
<clipPath id="clip0_1660_68540">
<rect width="24" height="24" fill="white"/>
</clipPath>
</defs>
</svg>
