<svg width="658" height="2002" viewBox="0 0 658 2002" fill="none" xmlns="http://www.w3.org/2000/svg">
<path fill-rule="evenodd" clip-rule="evenodd" d="M329.431 286.923C329.535 287.027 329.703 287.027 329.807 286.923C329.876 286.854 329.827 286.735 329.729 286.735H329.619H329.509C329.411 286.735 329.361 286.854 329.431 286.923ZM109.223 286.923H329.431L219.327 396.861H219.703H439.535H439.911L329.807 286.923H550.015L549.827 286.735L439.911 176.986L439.723 176.798L329.619 286.735L219.515 176.798L219.327 176.986L109.411 286.735L109.223 286.923ZM219.515 176.798H439.723L331.032 68.2715C330.251 67.4919 328.987 67.4919 328.206 68.2715L219.515 176.798ZM550.015 286.923L439.911 396.861H655.285C657.068 396.861 657.96 394.705 656.698 393.445L550.015 286.923ZM109.223 286.923L2.53937 393.445C1.27797 394.705 2.16998 396.861 3.95252 396.861H219.327L109.223 286.923ZM283.823 371.49C282.041 371.49 281.149 369.335 282.41 368.075L328.206 322.349C328.987 321.569 330.251 321.569 331.032 322.349L376.828 368.075C378.089 369.335 377.197 371.49 375.414 371.49H283.823ZM110.636 322.161L156.62 368.075C157.881 369.335 156.989 371.49 155.207 371.49H63.2393C61.4567 371.49 60.5647 369.335 61.8261 368.075L107.81 322.161C108.591 321.381 109.855 321.381 110.636 322.161ZM217.914 212.224L172.118 257.95C170.857 259.209 171.749 261.365 173.531 261.365H265.122C266.905 261.365 267.797 259.209 266.535 257.95L220.74 212.224C219.959 211.444 218.695 211.444 217.914 212.224ZM487.12 257.95C488.381 259.209 487.489 261.365 485.706 261.365H394.116C392.333 261.365 391.441 259.209 392.702 257.95L438.498 212.224C439.279 211.444 440.543 211.444 441.324 212.224L487.12 257.95ZM375.602 151.428C377.385 151.428 378.277 149.272 377.016 148.012L331.032 102.098C330.251 101.319 328.987 101.319 328.206 102.098L282.222 148.012C280.961 149.272 281.853 151.428 283.635 151.428H375.602ZM548.602 322.161C549.383 321.381 550.647 321.381 551.428 322.161L597.412 368.075C598.673 369.335 597.781 371.49 595.998 371.49H504.031C502.249 371.49 501.357 369.335 502.618 368.075L548.602 322.161ZM155.466 42.7284C155.611 42.7291 155.729 42.6111 155.728 42.4657C155.728 42.3676 155.609 42.3189 155.54 42.3882L155.464 42.4641L155.388 42.54C155.319 42.6093 155.368 42.7278 155.466 42.7284ZM0.813698 41.6397L155.464 42.4641L154.642 -111.782L179.014 -87.0854C178.897 -86.8294 178.832 -86.5444 178.834 -86.2442L179.177 -21.945C179.186 -20.1684 181.335 -19.2852 182.591 -20.5414L213.843 -51.7934L231.796 -33.6017L155.728 42.4657L307.664 43.2756L309.02 44.6492L156.553 197.116L156.29 197.379L5.85277 347.816C4.59647 349.072 2.44806 348.189 2.43858 346.413L1.6397 196.554L1.63813 196.29L0.815255 41.9039L0.813698 41.6397ZM0.813698 41.6397L154.44 -111.986L154.24 -112.188L2.01066 -113C0.897771 -113.006 -0.0059038 -112.102 2.90467e-05 -110.989L0.813698 41.6397ZM156.29 197.379L155.466 42.7284L1.6397 196.554L156.29 197.379ZM245.97 67.0025C247.747 67.012 248.63 69.1604 247.373 70.4167L183.417 134.373C182.16 135.63 180.012 134.746 180.003 132.97L179.66 68.6704C179.654 67.5575 180.558 66.6538 181.67 66.6598L245.97 67.0025ZM28.5021 133.547C27.2458 134.804 25.0973 133.92 25.0879 132.144L24.7452 67.8445C24.7393 66.7317 25.643 65.828 26.7559 65.8339L91.055 66.1767C92.8317 66.1862 93.7149 68.3346 92.4586 69.5909L28.5021 133.547ZM24.2634 -22.5066C24.2729 -20.73 26.4213 -19.8468 27.6776 -21.1031L91.897 -85.3224C93.1533 -86.5787 92.2701 -88.7271 90.4934 -88.7366L25.9299 -89.0808C24.817 -89.0867 23.9133 -88.183 23.9192 -87.0702L24.2634 -22.5066ZM25.5697 222.495C25.5638 221.382 26.4674 220.478 27.5803 220.484L92.1439 220.829C93.9205 220.838 94.8037 222.986 93.5474 224.243L29.3281 288.462C28.0718 289.718 25.9233 288.835 25.9139 287.059L25.5697 222.495ZM501.688 45.5573C501.541 45.5572 501.422 45.4382 501.422 45.2914L345.829 45.1735L346.095 45.4394L501.54 200.884L501.806 201.15L501.688 45.5573ZM657.399 201.268L501.688 45.5573C501.786 45.5573 501.835 45.4388 501.766 45.3694L501.688 45.2914L501.61 45.2134C501.541 45.1441 501.422 45.1933 501.422 45.2914L345.712 -110.419L345.829 45.1735L193.537 -107.119C192.276 -108.38 193.17 -110.535 194.953 -110.533L345.712 -110.419L345.977 -110.419L501.304 -110.301L501.57 -110.301L655.166 -110.185C656.269 -110.184 657.164 -109.29 657.164 -108.186L657.281 45.4092V45.6751L657.399 201.002L657.399 201.268ZM657.399 201.268L657.513 352.027C657.514 353.809 655.359 354.703 654.099 353.443L501.806 201.15L657.399 201.268ZM657.281 45.4092L501.57 -110.301L501.688 45.2914L657.281 45.4092ZM410.79 69.4258C409.008 69.4244 408.114 71.5795 409.375 72.84L474.139 137.605C475.4 138.865 477.555 137.972 477.554 136.189L477.505 71.4733C477.504 70.3699 476.61 69.4756 475.506 69.4748L410.79 69.4258ZM321.794 -84.503C321.793 -85.6064 320.899 -86.5006 319.795 -86.5015L254.814 -86.5507C253.031 -86.5521 252.138 -84.3969 253.398 -83.1365L318.429 -18.1058C319.689 -16.8454 321.844 -17.739 321.843 -19.5215L321.794 -84.503ZM475.388 -86.3837C476.492 -86.3828 477.386 -85.4886 477.387 -84.3852L477.436 -19.6697C477.437 -17.8872 475.282 -16.9935 474.021 -18.254L409.257 -83.0186C407.996 -84.279 408.89 -86.4341 410.673 -86.4328L475.388 -86.3837ZM629.998 137.723C631.258 138.983 633.414 138.089 633.412 136.307L633.363 71.5913C633.362 70.4879 632.468 69.5936 631.365 69.5928L566.649 69.5438C564.867 69.5424 563.973 71.6975 565.233 72.958L629.998 137.723ZM633.294 -19.2859C633.296 -17.5033 631.141 -16.6097 629.88 -17.8701L564.85 -82.9008C563.589 -84.1612 564.483 -86.3163 566.265 -86.315L631.247 -86.2658C632.35 -86.265 633.244 -85.3707 633.245 -84.2673L633.294 -19.2859ZM633.481 227.184C633.48 226.081 632.586 225.186 631.482 225.186L566.501 225.136C564.718 225.135 563.825 227.29 565.085 228.551L630.116 293.581C631.376 294.842 633.531 293.948 633.53 292.165L633.481 227.184Z" fill="#F9F9F9"/>
<path fill-rule="evenodd" clip-rule="evenodd" d="M328.085 1356.92C327.981 1357.03 327.813 1357.03 327.709 1356.92C327.639 1356.85 327.688 1356.74 327.786 1356.74H327.897H328.007C328.105 1356.74 328.154 1356.85 328.085 1356.92ZM548.293 1356.92H328.085L438.189 1466.86H437.813H217.981H217.605L327.709 1356.92H107.501L107.689 1356.74L217.605 1246.99L217.793 1246.8L327.897 1356.74L438.001 1246.8L438.189 1246.99L548.105 1356.74L548.293 1356.92ZM438.001 1246.8H217.793L326.484 1138.27C327.264 1137.49 328.529 1137.49 329.31 1138.27L438.001 1246.8ZM107.501 1356.92L217.605 1466.86H2.23035C0.447815 1466.86 -0.444214 1464.7 0.8172 1463.45L107.501 1356.92ZM548.293 1356.92L654.976 1463.45C656.238 1464.7 655.346 1466.86 653.563 1466.86H438.189L548.293 1356.92ZM373.692 1441.49C375.475 1441.49 376.367 1439.33 375.105 1438.08L329.31 1392.35C328.529 1391.57 327.264 1391.57 326.484 1392.35L280.688 1438.08C279.427 1439.33 280.319 1441.49 282.101 1441.49H373.692ZM546.88 1392.16L500.896 1438.08C499.635 1439.33 500.527 1441.49 502.309 1441.49H594.276C596.059 1441.49 596.951 1439.33 595.689 1438.08L549.706 1392.16C548.925 1391.38 547.66 1391.38 546.88 1392.16ZM439.602 1282.22L485.397 1327.95C486.659 1329.21 485.767 1331.37 483.984 1331.37H392.393C390.611 1331.37 389.719 1329.21 390.98 1327.95L436.776 1282.22C437.556 1281.44 438.821 1281.44 439.602 1282.22ZM170.396 1327.95C169.135 1329.21 170.027 1331.37 171.809 1331.37H263.4C265.183 1331.37 266.075 1329.21 264.813 1327.95L219.018 1282.22C218.237 1281.44 216.972 1281.44 216.192 1282.22L170.396 1327.95ZM281.913 1221.43C280.131 1221.43 279.239 1219.27 280.5 1218.01L326.484 1172.1C327.264 1171.32 328.529 1171.32 329.31 1172.1L375.294 1218.01C376.555 1219.27 375.663 1221.43 373.88 1221.43H281.913ZM108.914 1392.16C108.133 1391.38 106.868 1391.38 106.088 1392.16L60.104 1438.08C58.8426 1439.33 59.7346 1441.49 61.5172 1441.49H153.484C155.267 1441.49 156.159 1439.33 154.898 1438.08L108.914 1392.16ZM502.05 1112.73C501.905 1112.73 501.786 1112.61 501.787 1112.47C501.788 1112.37 501.906 1112.32 501.976 1112.39L502.051 1112.46L502.127 1112.54C502.197 1112.61 502.148 1112.73 502.05 1112.73ZM656.702 1111.64L502.051 1112.46L502.874 958.218L478.502 982.915C478.619 983.171 478.683 983.456 478.682 983.756L478.339 1048.06C478.329 1049.83 476.181 1050.71 474.925 1049.46L443.673 1018.21L425.72 1036.4L501.787 1112.47L349.851 1113.28L348.496 1114.65L500.963 1267.12L501.225 1267.38L651.663 1417.82C652.919 1419.07 655.068 1418.19 655.077 1416.41L655.876 1266.55L655.877 1266.29L656.7 1111.9L656.702 1111.64ZM656.702 1111.64L503.076 958.014L503.275 957.812L655.505 957C656.618 956.994 657.522 957.898 657.516 959.011L656.702 1111.64ZM501.225 1267.38L502.05 1112.73L655.876 1266.55L501.225 1267.38ZM411.546 1137C409.769 1137.01 408.886 1139.16 410.142 1140.42L474.099 1204.37C475.355 1205.63 477.504 1204.75 477.513 1202.97L477.856 1138.67C477.862 1137.56 476.958 1136.65 475.845 1136.66L411.546 1137ZM629.014 1203.55C630.27 1204.8 632.418 1203.92 632.428 1202.14L632.77 1137.84C632.776 1136.73 631.873 1135.83 630.76 1135.83L566.461 1136.18C564.684 1136.19 563.801 1138.33 565.057 1139.59L629.014 1203.55ZM633.252 1047.49C633.243 1049.27 631.094 1050.15 629.838 1048.9L565.619 984.678C564.362 983.421 565.246 981.273 567.022 981.264L631.586 980.919C632.699 980.913 633.602 981.817 633.596 982.93L633.252 1047.49ZM631.946 1292.5C631.952 1291.38 631.048 1290.48 629.935 1290.48L565.372 1290.83C563.595 1290.84 562.712 1292.99 563.968 1294.24L628.188 1358.46C629.444 1359.72 631.592 1358.84 631.602 1357.06L631.946 1292.5ZM155.828 1115.56C155.974 1115.56 156.093 1115.44 156.093 1115.29L311.686 1115.17L311.42 1115.44L155.976 1270.88L155.71 1271.15L155.828 1115.56ZM0.117004 1271.27L155.828 1115.56C155.729 1115.56 155.68 1115.44 155.75 1115.37L155.828 1115.29L155.906 1115.21C155.975 1115.14 156.094 1115.19 156.093 1115.29L311.804 959.581L311.686 1115.17L463.979 962.881C465.239 961.62 464.346 959.465 462.563 959.467L311.804 959.581L311.538 959.581L156.211 959.699L155.945 959.699L2.34967 959.815C1.24634 959.816 0.352051 960.71 0.351196 961.814L0.234863 1115.41V1115.68L0.117065 1271L0.117004 1271.27ZM0.117004 1271.27L0.00280762 1422.03C0.00146484 1423.81 2.15662 1424.7 3.41705 1423.44L155.71 1271.15L0.117004 1271.27ZM0.234863 1115.41L155.945 959.699L155.828 1115.29L0.234863 1115.41ZM246.725 1139.43C248.508 1139.42 249.401 1141.58 248.141 1142.84L183.376 1207.6C182.116 1208.87 179.961 1207.97 179.962 1206.19L180.011 1141.47C180.012 1140.37 180.906 1139.48 182.009 1139.47L246.725 1139.43ZM335.722 985.497C335.723 984.394 336.617 983.499 337.72 983.499L402.702 983.449C404.484 983.448 405.378 985.603 404.117 986.864L339.087 1051.89C337.826 1053.15 335.671 1052.26 335.673 1050.48L335.722 985.497ZM182.127 983.616C181.024 983.617 180.13 984.511 180.129 985.615L180.08 1050.33C180.079 1052.11 182.234 1053.01 183.494 1051.75L248.259 986.981C249.519 985.721 248.626 983.566 246.843 983.567L182.127 983.616ZM27.5176 1207.72C26.2571 1208.98 24.1021 1208.09 24.1034 1206.31L24.1525 1141.59C24.1534 1140.49 25.0476 1139.59 26.151 1139.59L90.8665 1139.54C92.649 1139.54 93.5427 1141.7 92.2822 1142.96L27.5176 1207.72ZM24.2212 1050.71C24.2198 1052.5 26.375 1053.39 27.6354 1052.13L92.6661 987.099C93.9265 985.839 93.0329 983.684 91.2504 983.685L26.2689 983.734C25.1655 983.735 24.2712 984.629 24.2704 985.733L24.2212 1050.71ZM24.0347 1297.18C24.0356 1296.08 24.9298 1295.19 26.0332 1295.19L91.0146 1295.14C92.7972 1295.13 93.6908 1297.29 92.4304 1298.55L27.3997 1363.58C26.1393 1364.84 23.9841 1363.95 23.9855 1362.17L24.0347 1297.18Z" fill="#F9F9F9"/>
<path fill-rule="evenodd" clip-rule="evenodd" d="M328.093 531.937C327.989 531.834 327.82 531.834 327.717 531.937C327.647 532.007 327.696 532.125 327.794 532.125H327.905H328.015C328.113 532.125 328.162 532.007 328.093 531.937ZM548.301 531.937H328.093L438.197 422H437.821H217.989H217.613L327.717 531.937H107.509L107.697 532.125L217.613 641.875L217.801 642.063L327.905 532.125L438.009 642.063L438.197 641.875L548.113 532.125L548.301 531.937ZM438.009 642.063H217.801L326.491 750.589C327.272 751.369 328.537 751.369 329.318 750.589L438.009 642.063ZM107.509 531.937L217.613 422H2.23816C0.455627 422 -0.436401 424.156 0.825012 425.415L107.509 531.937ZM548.301 531.937L654.984 425.415C656.245 424.156 655.353 422 653.571 422H438.197L548.301 531.937ZM373.7 447.37C375.483 447.37 376.375 449.526 375.113 450.785L329.318 496.512C328.537 497.291 327.272 497.291 326.491 496.512L280.696 450.785C279.434 449.526 280.326 447.37 282.109 447.37H373.7ZM546.887 496.699L500.904 450.785C499.642 449.526 500.534 447.37 502.317 447.37H594.284C596.067 447.37 596.959 449.526 595.697 450.785L549.714 496.699C548.933 497.479 547.668 497.479 546.887 496.699ZM439.61 606.637L485.405 560.911C486.667 559.651 485.775 557.495 483.992 557.495H392.401C390.619 557.495 389.727 559.651 390.988 560.911L436.783 606.637C437.564 607.416 438.829 607.416 439.61 606.637ZM170.404 560.911C169.142 559.651 170.034 557.495 171.817 557.495H263.408C265.19 557.495 266.082 559.651 264.821 560.911L219.026 606.637C218.245 607.416 216.98 607.416 216.199 606.637L170.404 560.911ZM281.921 667.433C280.138 667.433 279.246 669.589 280.508 670.848L326.491 716.762C327.272 717.542 328.537 717.542 329.318 716.762L375.301 670.848C376.563 669.589 375.671 667.433 373.888 667.433H281.921ZM108.922 496.699C108.141 497.479 106.876 497.479 106.095 496.699L60.1118 450.785C58.8504 449.526 59.7424 447.37 61.525 447.37H153.492C155.275 447.37 156.167 449.526 154.905 450.785L108.922 496.699ZM502.058 776.132C501.912 776.131 501.794 776.249 501.795 776.395C501.796 776.493 501.914 776.542 501.983 776.472L502.059 776.396L502.135 776.321C502.204 776.251 502.156 776.133 502.058 776.132ZM656.71 777.221L502.059 776.396L502.882 930.642L478.509 905.946C478.626 905.69 478.691 905.405 478.689 905.105L478.347 840.806C478.337 839.029 476.189 838.146 474.933 839.402L443.681 870.654L425.728 852.462L501.795 776.395L349.859 775.585L348.504 774.211L500.971 621.744L501.233 621.482L651.671 471.044C652.927 469.788 655.075 470.671 655.085 472.448L655.884 622.306L655.885 622.57L656.708 776.957L656.71 777.221ZM656.71 777.221L503.084 930.847L503.283 931.049L655.513 931.861C656.626 931.866 657.529 930.963 657.523 929.85L656.71 777.221ZM501.233 621.482L502.058 776.132L655.884 622.306L501.233 621.482ZM411.554 751.858C409.777 751.849 408.894 749.7 410.15 748.444L474.107 684.487C475.363 683.231 477.511 684.114 477.521 685.891L477.864 750.19C477.87 751.303 476.966 752.207 475.853 752.201L411.554 751.858ZM629.021 685.313C630.278 684.057 632.426 684.94 632.436 686.717L632.778 751.016C632.784 752.129 631.88 753.033 630.768 753.027L566.468 752.684C564.692 752.674 563.809 750.526 565.065 749.27L629.021 685.313ZM633.26 841.367C633.251 839.591 631.102 838.707 629.846 839.964L565.626 904.183C564.37 905.439 565.253 907.588 567.03 907.597L631.594 907.941C632.706 907.947 633.61 907.044 633.604 905.931L633.26 841.367ZM631.954 596.366C631.96 597.478 631.056 598.382 629.943 598.376L565.38 598.032C563.603 598.023 562.72 595.874 563.976 594.618L628.195 530.398C629.452 529.142 631.6 530.025 631.61 531.802L631.954 596.366ZM155.835 773.303C155.982 773.303 156.101 773.422 156.101 773.569L311.694 773.687L311.428 773.421L155.983 617.977L155.718 617.711L155.835 773.303ZM0.124817 617.593L155.835 773.303C155.737 773.303 155.688 773.422 155.757 773.491L155.835 773.569L155.913 773.647C155.983 773.716 156.101 773.667 156.101 773.569L311.812 929.28L311.694 773.687L463.987 925.98C465.247 927.24 464.353 929.395 462.571 929.394L311.812 929.28L311.546 929.28L156.219 929.162L155.953 929.162L2.35748 929.046C1.25415 929.045 0.359863 928.15 0.359009 927.047L0.242676 773.451V773.185L0.124878 617.859L0.124817 617.593ZM0.124817 617.593L0.0106201 466.834C0.00927734 465.051 2.16443 464.157 3.42487 465.418L155.718 617.711L0.124817 617.593ZM0.242676 773.451L155.953 929.162L155.835 773.569L0.242676 773.451ZM246.733 749.435C248.516 749.436 249.409 747.281 248.149 746.021L183.384 681.256C182.124 679.995 179.968 680.889 179.97 682.672L180.019 747.387C180.02 748.491 180.914 749.385 182.017 749.386L246.733 749.435ZM335.73 903.364C335.73 904.467 336.625 905.361 337.728 905.362L402.709 905.411C404.492 905.413 405.386 903.258 404.125 901.997L339.095 836.966C337.834 835.706 335.679 836.6 335.68 838.382L335.73 903.364ZM182.135 905.244C181.032 905.243 180.138 904.349 180.137 903.246L180.088 838.53C180.086 836.748 182.242 835.854 183.502 837.115L248.267 901.879C249.527 903.14 248.633 905.295 246.851 905.293L182.135 905.244ZM27.5254 681.138C26.265 679.878 24.1099 680.771 24.1112 682.554L24.1603 747.269C24.1612 748.373 25.0554 749.267 26.1588 749.268L90.8743 749.317C92.6569 749.318 93.5505 747.163 92.29 745.903L27.5254 681.138ZM24.229 838.146C24.2277 836.364 26.3828 835.47 27.6432 836.731L92.6739 901.761C93.9343 903.022 93.0407 905.177 91.2582 905.176L26.2767 905.126C25.1733 905.126 24.2791 904.231 24.2782 903.128L24.229 838.146ZM24.0425 591.677C24.0434 592.78 24.9376 593.674 26.041 593.675L91.0225 593.724C92.805 593.726 93.6986 591.57 92.4382 590.31L27.4075 525.279C26.1471 524.019 23.9919 524.913 23.9933 526.695L24.0425 591.677Z" fill="#F9F9F9"/>
<path fill-rule="evenodd" clip-rule="evenodd" d="M329.431 1601.94C329.535 1601.83 329.703 1601.83 329.807 1601.94C329.876 1602.01 329.827 1602.13 329.729 1602.13H329.619H329.509C329.411 1602.13 329.361 1602.01 329.431 1601.94ZM109.223 1601.94H329.431L219.327 1492H219.703H439.535H439.911L329.807 1601.94H550.015L549.827 1602.13L439.911 1711.87L439.723 1712.06L329.619 1602.13L219.515 1712.06L219.327 1711.87L109.411 1602.13L109.223 1601.94ZM219.515 1712.06H439.723L331.032 1820.59C330.251 1821.37 328.987 1821.37 328.206 1820.59L219.515 1712.06ZM550.015 1601.94L439.911 1492H655.285C657.068 1492 657.96 1494.16 656.698 1495.42L550.015 1601.94ZM109.223 1601.94L2.53937 1495.42C1.27797 1494.16 2.16998 1492 3.95252 1492H219.327L109.223 1601.94ZM283.823 1517.37C282.041 1517.37 281.149 1519.53 282.41 1520.79L328.206 1566.51C328.987 1567.29 330.251 1567.29 331.032 1566.51L376.828 1520.79C378.089 1519.53 377.197 1517.37 375.414 1517.37H283.823ZM110.636 1566.7L156.62 1520.79C157.881 1519.53 156.989 1517.37 155.207 1517.37H63.2393C61.4567 1517.37 60.5647 1519.53 61.8261 1520.79L107.81 1566.7C108.591 1567.48 109.855 1567.48 110.636 1566.7ZM217.914 1676.64L172.118 1630.91C170.857 1629.65 171.749 1627.5 173.531 1627.5H265.122C266.905 1627.5 267.797 1629.65 266.535 1630.91L220.74 1676.64C219.959 1677.42 218.695 1677.42 217.914 1676.64ZM487.12 1630.91C488.381 1629.65 487.489 1627.5 485.706 1627.5H394.116C392.333 1627.5 391.441 1629.65 392.702 1630.91L438.498 1676.64C439.279 1677.42 440.543 1677.42 441.324 1676.64L487.12 1630.91ZM375.602 1737.43C377.385 1737.43 378.277 1739.59 377.016 1740.85L331.032 1786.76C330.251 1787.54 328.987 1787.54 328.206 1786.76L282.222 1740.85C280.961 1739.59 281.853 1737.43 283.635 1737.43H375.602ZM548.602 1566.7C549.383 1567.48 550.647 1567.48 551.428 1566.7L597.412 1520.79C598.673 1519.53 597.781 1517.37 595.998 1517.37H504.031C502.249 1517.37 501.357 1519.53 502.618 1520.79L548.602 1566.7ZM155.466 1846.13C155.611 1846.13 155.729 1846.25 155.728 1846.39C155.728 1846.49 155.609 1846.54 155.54 1846.47L155.464 1846.4L155.388 1846.32C155.319 1846.25 155.368 1846.13 155.466 1846.13ZM0.813698 1847.22L155.464 1846.4L154.642 2000.64L179.014 1975.95C178.897 1975.69 178.832 1975.4 178.834 1975.1L179.177 1910.81C179.186 1909.03 181.335 1908.15 182.591 1909.4L213.843 1940.65L231.796 1922.46L155.728 1846.39L307.664 1845.58L309.02 1844.21L156.553 1691.74L156.29 1691.48L5.85277 1541.04C4.59647 1539.79 2.44806 1540.67 2.43858 1542.45L1.6397 1692.31L1.63813 1692.57L0.815255 1846.96L0.813698 1847.22ZM0.813698 1847.22L154.44 2000.85L154.24 2001.05L2.01066 2001.86C0.897771 2001.87 -0.0059038 2000.96 2.90467e-05 1999.85L0.813698 1847.22ZM156.29 1691.48L155.466 1846.13L1.6397 1692.31L156.29 1691.48ZM245.97 1821.86C247.747 1821.85 248.63 1819.7 247.373 1818.44L183.417 1754.49C182.16 1753.23 180.012 1754.11 180.003 1755.89L179.66 1820.19C179.654 1821.3 180.558 1822.21 181.67 1822.2L245.97 1821.86ZM28.5021 1755.31C27.2458 1754.06 25.0973 1754.94 25.0879 1756.72L24.7452 1821.02C24.7393 1822.13 25.643 1823.03 26.7559 1823.03L91.055 1822.68C92.8317 1822.67 93.7149 1820.53 92.4586 1819.27L28.5021 1755.31ZM24.2634 1911.37C24.2729 1909.59 26.4213 1908.71 27.6776 1909.96L91.897 1974.18C93.1533 1975.44 92.2701 1977.59 90.4934 1977.6L25.9299 1977.94C24.817 1977.95 23.9133 1977.04 23.9192 1975.93L24.2634 1911.37ZM25.5697 1666.37C25.5638 1667.48 26.4674 1668.38 27.5803 1668.38L92.1439 1668.03C93.9205 1668.02 94.8037 1665.87 93.5474 1664.62L29.3281 1600.4C28.0718 1599.14 25.9233 1600.03 25.9139 1601.8L25.5697 1666.37ZM501.688 1843.3C501.541 1843.3 501.422 1843.42 501.422 1843.57L345.829 1843.69L346.095 1843.42L501.54 1687.98L501.806 1687.71L501.688 1843.3ZM657.399 1687.59L501.688 1843.3C501.786 1843.3 501.835 1843.42 501.766 1843.49L501.688 1843.57L501.61 1843.65C501.541 1843.72 501.422 1843.67 501.422 1843.57L345.712 1999.28L345.829 1843.69L193.537 1995.98C192.276 1997.24 193.17 1999.4 194.953 1999.39L345.712 1999.28L345.977 1999.28L501.304 1999.16L501.57 1999.16L655.166 1999.05C656.269 1999.04 657.164 1998.15 657.164 1997.05L657.281 1843.45V1843.19L657.399 1687.86L657.399 1687.59ZM657.399 1687.59L657.513 1536.83C657.514 1535.05 655.359 1534.16 654.099 1535.42L501.806 1687.71L657.399 1687.59ZM657.281 1843.45L501.57 1999.16L501.688 1843.57L657.281 1843.45ZM410.79 1819.43C409.008 1819.44 408.114 1817.28 409.375 1816.02L474.139 1751.26C475.4 1750 477.555 1750.89 477.554 1752.67L477.505 1817.39C477.504 1818.49 476.61 1819.38 475.506 1819.39L410.79 1819.43ZM321.794 1973.36C321.793 1974.47 320.899 1975.36 319.795 1975.36L254.814 1975.41C253.031 1975.41 252.138 1973.26 253.398 1972L318.429 1906.97C319.689 1905.71 321.844 1906.6 321.843 1908.38L321.794 1973.36ZM475.388 1975.24C476.492 1975.24 477.386 1974.35 477.387 1973.25L477.436 1908.53C477.437 1906.75 475.282 1905.85 474.021 1907.11L409.257 1971.88C407.996 1973.14 408.89 1975.29 410.673 1975.29L475.388 1975.24ZM629.998 1751.14C631.258 1749.88 633.414 1750.77 633.412 1752.55L633.363 1817.27C633.362 1818.37 632.468 1819.27 631.365 1819.27L566.649 1819.32C564.867 1819.32 563.973 1817.16 565.233 1815.9L629.998 1751.14ZM633.294 1908.15C633.296 1906.36 631.141 1905.47 629.88 1906.73L564.85 1971.76C563.589 1973.02 564.483 1975.18 566.265 1975.18L631.247 1975.13C632.35 1975.13 633.244 1974.23 633.245 1973.13L633.294 1908.15ZM633.481 1661.68C633.48 1662.78 632.586 1663.67 631.482 1663.68L566.501 1663.72C564.718 1663.73 563.825 1661.57 565.085 1660.31L630.116 1595.28C631.376 1594.02 633.531 1594.91 633.53 1596.7L633.481 1661.68Z" fill="#F9F9F9"/>
</svg>
