<svg width="44" height="44" viewBox="0 0 44 44" fill="none" xmlns="http://www.w3.org/2000/svg">
<path fill-rule="evenodd" clip-rule="evenodd" d="M43 44C43.5523 44 44 43.5523 44 43V1.41421C44 0.523309 42.9229 0.0771431 42.2929 0.707108L0.707107 42.2929C0.0771421 42.9229 0.523311 44 1.41422 44H43ZM24.5934 39.5203C23.9634 40.1503 22.8863 39.7041 22.8863 38.8132V23.8863C22.8863 23.334 23.334 22.8863 23.8863 22.8863H38.8132C39.7041 22.8863 40.1503 23.9634 39.5203 24.5934L24.5934 39.5203ZM39.1276 18.0139H32.1554L39.1276 11.0417V18.0139ZM18.0139 39.1276H11.0417L18.0139 32.1554V39.1276ZM39.1276 39.1276H32.1554L39.1276 32.1554V39.1276Z" fill="#EBEBEB"/>
</svg>
