<svg width="24" height="24" viewBox="0 0 24 24" fill="none" xmlns="http://www.w3.org/2000/svg">
<g clip-path="url(#clip0_2172_8272)">
<path d="M15.25 12C15.25 13.7949 13.7949 15.25 12 15.25C10.2051 15.25 8.75 13.7949 8.75 12C8.75 10.2051 10.2051 8.75 12 8.75C13.7949 8.75 15.25 10.2051 15.25 12Z" stroke="#F1F2F3" stroke-width="1.5"/>
<path fill-rule="evenodd" clip-rule="evenodd" d="M7.83066 5.5H4C3.72843 5.5 3.5 5.72843 3.5 6V18C3.5 18.2716 3.72843 18.5 4 18.5H12H20C20.2716 18.5 20.5 18.2716 20.5 18V6C20.5 5.72843 20.2716 5.5 20 5.5H16.1693L14.3393 3.5H9.66066L7.83066 5.5ZM9 2L7.17 4H4C2.9 4 2 4.9 2 6V18C2 19.1 2.9 20 4 20H20C21.1 20 22 19.1 22 18V6C22 4.9 21.1 4 20 4H16.83L15 2H9Z" fill="#F1F2F3"/>
</g>
<defs>
<clipPath id="clip0_2172_8272">
<rect width="24" height="24" fill="white"/>
</clipPath>
</defs>
</svg>
