<svg width="17" height="18" viewBox="0 0 17 18" fill="none" xmlns="http://www.w3.org/2000/svg">
<path fill-rule="evenodd" clip-rule="evenodd" d="M8.47791 1.29068C8.49199 1.28364 8.50856 1.28364 8.52263 1.29068L15.8518 4.95527C15.8887 4.97369 15.8887 5.02629 15.8518 5.04471L8.52263 8.7093C8.50856 8.71634 8.49199 8.71634 8.47791 8.7093L1.14873 5.04471C1.11188 5.02629 1.11188 4.97369 1.14873 4.95527L8.47791 1.29068ZM8.74624 0.843465C8.5914 0.766046 8.40915 0.766045 8.25431 0.843465L0.925126 4.50806C0.519749 4.71074 0.51975 5.28924 0.925126 5.49193L3.94126 6.99999L0.925157 8.50804C0.51978 8.71073 0.51978 9.28922 0.925157 9.49191L3.94132 11L0.925157 12.5081C0.51978 12.7108 0.51978 13.2893 0.925157 13.4919L8.25434 17.1565C8.40918 17.2339 8.59143 17.2339 8.74627 17.1565L16.0754 13.4919C16.4808 13.2893 16.4808 12.7108 16.0755 12.5081L13.0593 11L16.0754 9.49191C16.4808 9.28922 16.4808 8.71073 16.0755 8.50804L13.0593 6.99997L16.0754 5.49193C16.4808 5.28924 16.4808 4.71074 16.0754 4.50806L8.74624 0.843465ZM12.5003 7.27948L8.74624 9.15652C8.5914 9.23394 8.40915 9.23394 8.25431 9.15652L4.50027 7.2795L1.14876 8.95525C1.11191 8.97368 1.11191 9.02627 1.14876 9.04469L8.47794 12.7093C8.49202 12.7163 8.50859 12.7163 8.52266 12.7093L15.8518 9.04469C15.8887 9.02627 15.8887 8.97368 15.8518 8.95525L12.5003 7.27948ZM8.74627 13.1565L12.5003 11.2795L15.8518 12.9553C15.8887 12.9737 15.8887 13.0263 15.8518 13.0447L8.52266 16.7093C8.50859 16.7164 8.49202 16.7164 8.47794 16.7093L1.14876 13.0447C1.11191 13.0263 1.11191 12.9737 1.14876 12.9553L4.50033 11.2795L8.25434 13.1565C8.40918 13.2339 8.59143 13.2339 8.74627 13.1565Z" fill="#92844A"/>
</svg>
