<svg width="24" height="24" viewBox="0 0 24 24" fill="none" xmlns="http://www.w3.org/2000/svg">
<path fill-rule="evenodd" clip-rule="evenodd" d="M4.22826 5.49275C4.22826 5.08254 4.5608 4.75 4.97101 4.75H18.7681C19.1772 4.75 19.5109 5.07982 19.5109 5.49111V10.1703H20.2464C20.6566 10.1703 20.9891 10.5028 20.9891 10.913V16.8261C20.9891 17.2363 20.6566 17.5688 20.2464 17.5688H20.0036V18.5507C20.0036 18.8249 19.7814 19.0471 19.5072 19.0471H19.0145C18.7403 19.0471 18.5181 18.8249 18.5181 18.5507V17.5688H5.22101V18.5507C5.22101 18.8249 4.99878 19.0471 4.72464 19.0471H4.23188C3.95774 19.0471 3.73551 18.8249 3.73551 18.5507V17.5688H3.49275C3.08254 17.5688 2.75 17.2363 2.75 16.8261V10.913C2.75 10.5028 3.08254 10.1703 3.49275 10.1703H4.22826V5.49275ZM4.72826 10.1703H5.9529V8.69565C5.9529 8.28544 6.28544 7.9529 6.69565 7.9529H10.6377C11.0479 7.9529 11.3804 8.28544 11.3804 8.69565V10.1703H12.3587V8.69565C12.3587 8.28544 12.6912 7.9529 13.1014 7.9529H17.0435C17.4537 7.9529 17.7862 8.28544 17.7862 8.69565V10.1703H19.0109V5.49111C19.0109 5.35813 18.9033 5.25 18.7681 5.25H4.97101C4.83694 5.25 4.72826 5.35868 4.72826 5.49275V10.1703ZM17.2862 10.1703V8.69565C17.2862 8.56158 17.1775 8.4529 17.0435 8.4529H13.1014C12.9674 8.4529 12.8587 8.56158 12.8587 8.69565V10.1703H17.2862ZM10.8804 10.1703V8.69565C10.8804 8.56158 10.7717 8.4529 10.6377 8.4529H6.69565C6.56158 8.4529 6.4529 8.56158 6.4529 8.69565V10.1703H10.8804ZM4.23551 17.5688V18.5471H4.72101V17.5688H4.23551ZM19.0181 17.5688V18.5471H19.5036V17.5688H19.0181ZM3.49275 10.6703C3.35868 10.6703 3.25 10.779 3.25 10.913V14.8514H20.4891V10.913C20.4891 10.779 20.3804 10.6703 20.2464 10.6703H3.49275ZM20.4891 15.3514H3.25V16.8261C3.25 16.9601 3.35868 17.0688 3.49275 17.0688H20.2464C20.3804 17.0688 20.4891 16.9601 20.4891 16.8261V15.3514Z" fill="#92844A"/>
</svg>
