<svg width="20" height="20" viewBox="0 0 20 20" fill="none" xmlns="http://www.w3.org/2000/svg">
<path fill-rule="evenodd" clip-rule="evenodd" d="M10 18.5C10.5065 18.5 11.3688 18.0504 12.1939 16.4002C12.6525 15.4829 13.0233 14.3237 13.251 13H6.74899C6.9767 14.3237 7.34746 15.4829 7.80611 16.4002C8.6312 18.0504 9.49353 18.5 10 18.5ZM6.56043 11.5C6.52086 11.0146 6.5 10.5136 6.5 10C6.5 9.30795 6.53786 8.63883 6.60835 8H13.3917C13.4621 8.63883 13.5 9.30795 13.5 10C13.5 10.5136 13.4791 11.0146 13.4396 11.5H6.56043ZM14.7711 13C14.4594 14.9848 13.8466 16.703 13.0398 17.9403C15.3022 17.0737 17.0998 15.2679 17.9554 13H14.7711ZM18.3681 11.5H14.9441C14.9809 11.0107 15 10.5098 15 10C15 9.31507 14.9656 8.64622 14.9 8H18.2634C18.4181 8.64138 18.5 9.31112 18.5 10C18.5 10.5118 18.4548 11.0131 18.3681 11.5ZM5.05588 11.5H1.63193C1.54524 11.0131 1.5 10.5118 1.5 10C1.5 9.31112 1.58195 8.64138 1.73663 8H5.10002C5.03443 8.64622 5 9.31507 5 10C5 10.5098 5.01907 11.0107 5.05588 11.5ZM2.04455 13H5.2289C5.5406 14.9848 6.15338 16.703 6.9602 17.9403C4.69776 17.0737 2.9002 15.2679 2.04455 13ZM6.84334 6.5H13.1567C12.927 5.38355 12.5938 4.39965 12.1939 3.59975C11.3688 1.94957 10.5065 1.5 10 1.5C9.49353 1.5 8.6312 1.94957 7.80611 3.59975C7.40616 4.39965 7.07305 5.38355 6.84334 6.5ZM14.6852 6.5H17.7483C16.8288 4.46775 15.1333 2.86165 13.0398 2.05969C13.7781 3.19191 14.3539 4.7267 14.6852 6.5ZM6.9602 2.05969C6.22193 3.19191 5.64613 4.7267 5.3148 6.5H2.25174C3.17118 4.46775 4.86667 2.86165 6.9602 2.05969ZM10 0C15.5228 0 20 4.47715 20 10C20 15.5228 15.5228 20 10 20C4.47715 20 0 15.5228 0 10C0 4.47715 4.47715 0 10 0Z" fill="#E0D08A"/>
</svg>
