<svg width="24" height="24" viewBox="0 0 24 24" fill="none" xmlns="http://www.w3.org/2000/svg">
<path fill-rule="evenodd" clip-rule="evenodd" d="M17.9782 10.7391C17.9782 14.1848 15.1848 16.9782 11.7391 16.9782C8.29333 16.9782 5.5 14.1848 5.5 10.7391C5.5 7.29333 8.29333 4.5 11.7391 4.5C15.1848 4.5 17.9782 7.29333 17.9782 10.7391ZM16.088 17.1416C14.8485 17.9851 13.3514 18.4782 11.7391 18.4782C7.46491 18.4782 4 15.0133 4 10.7391C4 6.46491 7.46491 3 11.7391 3C16.0133 3 19.4782 6.46491 19.4782 10.7391C19.4782 12.8611 18.6241 14.7837 17.241 16.1817L20.6502 20.4433L19.4789 21.3803L16.088 17.1416Z" fill="white"/>
</svg>
