<svg width="31" height="31" viewBox="0 0 31 31" fill="none" xmlns="http://www.w3.org/2000/svg">
<g clip-path="url(#clip0_1707_1039)">
<path d="M15.75 0.625977C7.46625 0.625977 0.75 7.34223 0.75 15.626C0.75 23.9097 7.46625 30.626 15.75 30.626C24.0338 30.626 30.75 23.9097 30.75 15.626C30.75 7.34223 24.0338 0.625977 15.75 0.625977ZM23.1175 10.9022L20.655 22.5022C20.4737 23.3247 19.9837 23.5247 19.3 23.1372L15.55 20.3747L13.7425 22.1172C13.6539 22.2319 13.5403 22.3247 13.4103 22.3886C13.2803 22.4526 13.1374 22.4859 12.9925 22.486H12.9862L13.2525 18.6685L20.2025 12.391C20.5025 12.1247 20.135 11.9735 19.7362 12.2397L11.15 17.6472L7.45 16.4922C6.65 16.2385 6.6275 15.6922 7.61875 15.2997L22.0763 9.72723C22.7488 9.48223 23.3337 9.88723 23.1162 10.9035L23.1175 10.9022Z" fill="white" fill-opacity="0.7"/>
</g>
<defs>
<clipPath id="clip0_1707_1039">
<rect width="30" height="30" fill="white" transform="translate(0.75 0.625977)"/>
</clipPath>
</defs>
</svg>
