<svg width="29" height="30" viewBox="0 0 29 30" fill="none" xmlns="http://www.w3.org/2000/svg">
<g clip-path="url(#clip0_1609_26107)">
<path d="M13.7736 22.4754L13.7726 22.4744C11.1825 20.1257 9.09351 18.2297 7.64304 16.4564C6.20118 14.6936 5.46875 13.1436 5.46875 11.5C5.46875 8.83421 7.55296 6.75 10.2188 6.75C11.7317 6.75 13.1954 7.45795 14.1477 8.57625L14.7188 9.2468L15.2898 8.57625C16.2421 7.45795 17.7058 6.75 19.2188 6.75C21.8845 6.75 23.9688 8.83421 23.9688 11.5C23.9688 13.1436 23.2363 14.6936 21.7943 16.4579C20.3438 18.2324 18.255 20.1307 15.6652 22.4842C15.6649 22.4845 15.6646 22.4847 15.6644 22.4849L14.7207 23.3375L13.7736 22.4754Z" stroke="black" stroke-width="1.5"/>
</g>
<defs>
<clipPath id="clip0_1609_26107">
<rect width="29" height="30" fill="white"/>
</clipPath>
</defs>
</svg>
