<svg width="36" height="25" viewBox="0 0 36 25" fill="none" xmlns="http://www.w3.org/2000/svg">
<path d="M6.99429 0C9.87429 0 12.0343 0.933611 13.4743 2.80083C14.9143 4.66805 15.6343 6.84648 15.6343 9.3361C15.6343 12.5864 14.5714 15.6293 12.4457 18.4647C10.32 21.3001 7.09714 23.4786 2.77714 25L0.925715 22.0954C4.14857 20.6432 6.41143 18.9488 7.71428 17.0124C9.08571 15.0761 9.77143 13.2089 9.77143 11.4108C9.77143 11.2725 9.73714 11.1687 9.66857 11.0996C9.6 10.9613 9.49714 10.8921 9.36 10.8921C9.01714 10.8921 8.43429 11.1687 7.61143 11.722C6.78857 12.2061 5.79429 12.4481 4.62857 12.4481C2.91429 12.4481 1.71429 11.8949 1.02857 10.7884C0.342857 9.61273 0 8.2296 0 6.63901C0 4.70263 0.72 3.11204 2.16 1.86722C3.6 0.622409 5.21143 0 6.99429 0ZM27.36 0C30.24 0 32.4 0.933611 33.84 2.80083C35.28 4.66805 36 6.84648 36 9.3361C36 12.5864 34.9371 15.6293 32.8114 18.4647C30.6857 21.3001 27.4629 23.4786 23.1429 25L21.2914 22.0954C24.5143 20.6432 26.7771 18.9488 28.08 17.0124C29.4514 15.0761 30.1371 13.2089 30.1371 11.4108C30.1371 11.2725 30.1029 11.1687 30.0343 11.0996C29.9657 10.9613 29.8629 10.8921 29.7257 10.8921C29.3829 10.8921 28.8 11.1687 27.9771 11.722C27.1543 12.2061 26.16 12.4481 24.9943 12.4481C23.28 12.4481 22.08 11.8949 21.3943 10.7884C20.7086 9.61273 20.3657 8.2296 20.3657 6.63901C20.3657 4.70263 21.0857 3.11204 22.5257 1.86722C23.9657 0.622409 25.5771 0 27.36 0Z" fill="#BAAC72"/>
</svg>
