<svg width="22" height="22" viewBox="0 0 22 22" fill="none" xmlns="http://www.w3.org/2000/svg">
<g clip-path="url(#clip0_2483_1887)">
<path d="M11.918 2.75C7.36214 2.75 3.66797 6.44417 3.66797 11H0.917969L4.4838 14.5658L4.54797 14.6942L8.2513 11H5.5013C5.5013 7.4525 8.37047 4.58333 11.918 4.58333C15.4655 4.58333 18.3346 7.4525 18.3346 11C18.3346 14.5475 15.4655 17.4167 11.918 17.4167C10.1488 17.4167 8.54464 16.6925 7.38964 15.5283L6.08797 16.83C7.58214 18.3242 9.63547 19.25 11.918 19.25C16.4738 19.25 20.168 15.5558 20.168 11C20.168 6.44417 16.4738 2.75 11.918 2.75ZM11.0013 7.33333V11.9167L14.9246 14.245L15.5846 13.1358L12.3763 11.2292V7.33333H11.0013Z" fill="#242424" fill-opacity="0.6"/>
</g>
<defs>
<clipPath id="clip0_2483_1887">
<rect width="22" height="22" fill="white"/>
</clipPath>
</defs>
</svg>
