<svg width="26" height="26" viewBox="0 0 26 26" fill="none" xmlns="http://www.w3.org/2000/svg">
<path d="M11.6817 20.397C13.4052 20.3992 15.0906 19.8905 16.5251 18.935C17.9595 17.9796 19.0785 16.6203 19.7406 15.0291C20.4022 13.4379 20.5766 11.686 20.2416 9.99562C19.9066 8.30521 19.0773 6.75229 17.8588 5.53365C16.6406 4.31485 15.0884 3.48455 13.3984 3.14768C11.7084 2.81081 9.95648 2.98249 8.36403 3.64104C6.77159 4.29958 5.4101 5.41542 4.45166 6.84753C3.49321 8.27964 2.98082 9.96375 2.97925 11.687C2.97925 13.9956 3.89575 16.2088 5.52725 17.8414C7.159 19.4745 9.37197 20.3936 11.6806 20.397M17.8621 17.8652L23.0209 23.0208" stroke="#F8F8F8" stroke-width="1.5" stroke-linecap="round" stroke-linejoin="round"/>
<path d="M11.7 7.79999V15.6M7.80005 11.7H15.6" stroke="#F8F8F8" stroke-linecap="round"/>
</svg>
