<svg width="25" height="24" viewBox="0 0 25 24" fill="none" xmlns="http://www.w3.org/2000/svg">
<path fill-rule="evenodd" clip-rule="evenodd" d="M8.02601 5.25C7.55366 5.25 7.17074 5.63291 7.17074 6.10526V8.80263H19.0786C20.0306 8.80263 20.8023 9.57435 20.8023 10.5263V12.3684C20.8023 16.169 17.7213 19.25 13.9207 19.25H10.9734C7.17278 19.25 4.0918 16.169 4.0918 12.3684V10.5263C4.0918 9.57435 4.86352 8.80263 5.81548 8.80263H6.67074V6.10526C6.67074 5.35677 7.27752 4.75 8.02601 4.75C8.7745 4.75 9.38127 5.35677 9.38127 6.10526V7.21053H8.88127V6.10526C8.88127 5.63291 8.49836 5.25 8.02601 5.25ZM5.81548 9.30263C5.13966 9.30263 4.5918 9.85049 4.5918 10.5263V11.0132H20.3023V10.5263C20.3023 9.85049 19.7545 9.30263 19.0786 9.30263H5.81548ZM20.3023 11.5132H4.5918V12.3684C4.5918 15.8929 7.44892 18.75 10.9734 18.75H13.9207C17.4452 18.75 20.3023 15.8929 20.3023 12.3684V11.5132Z" fill="#92844A"/>
</svg>
