<svg width="25" height="26" viewBox="0 0 25 26" fill="none" xmlns="http://www.w3.org/2000/svg">
<g clip-path="url(#clip0_1459_13260)">
<path d="M12.4998 4.66666C10.8517 4.66666 9.2405 5.15541 7.87009 6.07108C6.49968 6.98676 5.43158 8.28825 4.80084 9.81097C4.17011 11.3337 4.00509 13.0092 4.32663 14.6258C4.64817 16.2423 5.44185 17.7271 6.60728 18.8926C7.77272 20.058 9.25758 20.8517 10.8741 21.1732C12.4906 21.4948 14.1662 21.3297 15.6889 20.699C17.2116 20.0683 18.5131 19.0002 19.4288 17.6298C20.3444 16.2593 20.8332 14.6482 20.8332 13C20.8332 10.7899 19.9552 8.67024 18.3924 7.10744C16.8296 5.54464 14.71 4.66666 12.4998 4.66666ZM12.4998 19.9444C11.1264 19.9444 9.78372 19.5372 8.64171 18.7741C7.49971 18.011 6.60962 16.9265 6.08401 15.6575C5.5584 14.3886 5.42088 12.9923 5.68883 11.6452C5.95679 10.2981 6.61818 9.06073 7.58938 8.08953C8.56058 7.11834 9.79796 6.45694 11.145 6.18899C12.4921 5.92104 13.8884 6.05856 15.1574 6.58417C16.4263 7.10978 17.5109 7.99986 18.2739 9.14187C19.037 10.2839 19.4443 11.6265 19.4443 13C19.4443 13.912 19.2647 14.815 18.9157 15.6575C18.5667 16.5001 18.0552 17.2656 17.4103 17.9105C16.7655 18.5553 15.9999 19.0668 15.1574 19.4158C14.3148 19.7648 13.4118 19.9444 12.4998 19.9444Z" fill="#242424"/>
<path d="M12.4999 14.4375C12.2605 14.4375 12.0309 14.3424 11.8616 14.1731C11.6923 14.0038 11.5972 13.7742 11.5972 13.5347V9.36806C11.5972 9.12862 11.6923 8.899 11.8616 8.7297C12.0309 8.56039 12.2605 8.46528 12.4999 8.46528C12.7394 8.46528 12.969 8.56039 13.1383 8.7297C13.3076 8.899 13.4027 9.12862 13.4027 9.36806V13.5347C13.4027 13.7742 13.3076 14.0038 13.1383 14.1731C12.969 14.3424 12.7394 14.4375 12.4999 14.4375Z" fill="#242424"/>
<path d="M12.4655 17.5278C13.0408 17.5278 13.5072 17.0614 13.5072 16.4861C13.5072 15.9108 13.0408 15.4444 12.4655 15.4444C11.8902 15.4444 11.4238 15.9108 11.4238 16.4861C11.4238 17.0614 11.8902 17.5278 12.4655 17.5278Z" fill="#242424"/>
</g>
<defs>
<clipPath id="clip0_1459_13260">
<rect width="25" height="25" fill="white" transform="translate(0 0.5)"/>
</clipPath>
</defs>
</svg>
