<svg width="24" height="24" viewBox="0 0 24 24" fill="none" xmlns="http://www.w3.org/2000/svg">
<path fill-rule="evenodd" clip-rule="evenodd" d="M6.39347 15.0627C5.64081 15.6019 5.5 16.0402 5.5 16.2647C5.5 16.56 5.77838 17.2312 7.15181 17.9179C8.43551 18.5597 10.3139 19 12.4706 19C14.6273 19 16.5057 18.5597 17.7894 17.9179C19.1628 17.2312 19.4412 16.56 19.4412 16.2647C19.4412 16.0403 19.3004 15.6019 18.5478 15.0628C17.8991 14.5981 16.9382 14.175 15.7307 13.8908C14.7533 14.3401 13.6396 14.5882 12.4707 14.5882C11.3019 14.5882 10.1881 14.3401 9.21068 13.8908C8.00315 14.1749 7.04215 14.5981 6.39347 15.0627ZM9.41686 12.313C6.2477 12.9257 4 14.4639 4 16.2647C4 18.6038 7.79242 20.5 12.4706 20.5C17.1488 20.5 20.9412 18.6038 20.9412 16.2647C20.9412 14.464 18.6936 12.9257 15.5245 12.313C14.6617 12.8013 13.6081 13.0882 12.4707 13.0882C11.3334 13.0882 10.2798 12.8013 9.41686 12.313Z" fill="white"/>
<path d="M5.5 16.2647C5.5 16.0402 5.64081 15.6019 6.39347 15.0627C7.04215 14.5981 8.00315 14.1749 9.21068 13.8908C10.1881 14.3401 11.3019 14.5882 12.4707 14.5882C13.6396 14.5882 14.7533 14.3401 15.7307 13.8908C16.9382 14.175 17.8991 14.5981 18.5478 15.0628C19.3004 15.6019 19.4412 16.0403 19.4412 16.2647C19.4412 16.56 19.1628 17.2312 17.7894 17.9179C16.5057 18.5597 14.6273 19 12.4706 19C10.3139 19 8.43551 18.5597 7.15181 17.9179C5.77838 17.2312 5.5 16.56 5.5 16.2647Z" fill="white"/>
<path fill-rule="evenodd" clip-rule="evenodd" d="M12.4102 9.50002C13.7909 9.50002 14.9102 8.38073 14.9102 7.00001C14.9102 5.61929 13.7909 4.5 12.4102 4.5C11.0294 4.5 9.91016 5.61929 9.91016 7.00001C9.91016 8.38073 11.0294 9.50002 12.4102 9.50002ZM12.4102 11C14.6193 11 16.4102 9.20915 16.4102 7.00001C16.4102 4.79087 14.6193 3 12.4102 3C10.201 3 8.41016 4.79087 8.41016 7.00001C8.41016 9.20915 10.201 11 12.4102 11Z" fill="white"/>
<path d="M14.9102 7.00001C14.9102 8.38073 13.7909 9.50002 12.4102 9.50002C11.0294 9.50002 9.91016 8.38073 9.91016 7.00001C9.91016 5.61929 11.0294 4.5 12.4102 4.5C13.7909 4.5 14.9102 5.61929 14.9102 7.00001Z" fill="white"/>
</svg>
