<svg width="657" height="330" viewBox="0 0 657 330" fill="none" xmlns="http://www.w3.org/2000/svg">
<path fill-rule="evenodd" clip-rule="evenodd" d="M328.312 109.937C328.416 109.834 328.584 109.834 328.688 109.937C328.757 110.007 328.708 110.125 328.61 110.125H328.5H328.39C328.292 110.125 328.243 110.007 328.312 109.937ZM108.104 109.937L218.208 0L328.312 109.937H108.104ZM218.396 220.063L218.208 219.875L108.292 110.125L108.104 109.937L1.42046 3.41528C0.15906 2.15579 1.05107 0 2.83361 0H218.208H218.584H438.416H438.792L328.688 109.937H548.896L548.708 110.125L438.792 219.875L438.604 220.063L328.5 110.125L218.396 220.063ZM218.396 220.063H438.604L329.913 328.589C329.132 329.369 327.868 329.369 327.087 328.589L218.396 220.063ZM548.896 109.937L655.58 3.41528C656.841 2.15579 655.949 0 654.166 0H438.792L548.896 109.937ZM282.704 25.3702C280.922 25.3702 280.03 27.526 281.291 28.7854L327.087 74.5117C327.868 75.2914 329.132 75.2914 329.913 74.5117L375.709 28.7854C376.97 27.5259 376.078 25.3702 374.296 25.3702H282.704ZM106.691 74.6995C107.472 75.4791 108.736 75.4791 109.517 74.6995L155.501 28.7854C156.762 27.526 155.87 25.3702 154.088 25.3702H62.1204C60.3378 25.3702 59.4458 27.526 60.7072 28.7854L106.691 74.6995ZM219.621 184.637C218.84 185.416 217.576 185.416 216.795 184.637L170.999 138.911C169.738 137.651 170.63 135.495 172.412 135.495H264.003C265.786 135.495 266.678 137.651 265.417 138.911L219.621 184.637ZM486.001 138.911C487.262 137.651 486.37 135.495 484.588 135.495H392.997C391.214 135.495 390.322 137.651 391.583 138.911L437.379 184.637C438.16 185.416 439.424 185.416 440.205 184.637L486.001 138.911ZM374.484 245.433C376.266 245.433 377.158 247.589 375.897 248.848L329.913 294.762C329.132 295.542 327.868 295.542 327.087 294.762L281.103 248.848C279.842 247.589 280.734 245.433 282.516 245.433H374.484ZM547.483 74.6995C548.264 75.4791 549.528 75.4791 550.309 74.6995L596.293 28.7854C597.554 27.526 596.662 25.3702 594.88 25.3702H502.912C501.13 25.3702 500.238 27.526 501.499 28.7854L547.483 74.6995Z" fill="#F4F4F4" fill-opacity="0.5"/>
</svg>
