<svg width="22" height="22" viewBox="0 0 22 22" fill="none" xmlns="http://www.w3.org/2000/svg">
<g clip-path="url(#clip0_2483_2179)">
<path d="M10.9895 1.83337C5.92953 1.83337 1.83203 5.94004 1.83203 11C1.83203 16.06 5.92953 20.1667 10.9895 20.1667C16.0587 20.1667 20.1654 16.06 20.1654 11C20.1654 5.94004 16.0587 1.83337 10.9895 1.83337ZM10.9987 18.3334C6.94703 18.3334 3.66536 15.0517 3.66536 11C3.66536 6.94837 6.94703 3.66671 10.9987 3.66671C15.0504 3.66671 18.332 6.94837 18.332 11C18.332 15.0517 15.0504 18.3334 10.9987 18.3334Z" fill="#242424"/>
<path d="M11.457 6.41663H10.082V11.9166L14.8945 14.8041L15.582 13.6766L11.457 11.2291V6.41663Z" fill="#242424"/>
</g>
<defs>
<clipPath id="clip0_2483_2179">
<rect width="22" height="22" fill="white"/>
</clipPath>
</defs>
</svg>
