<svg width="543" height="543" viewBox="0 0 543 543" fill="none" xmlns="http://www.w3.org/2000/svg">
<path fill-rule="evenodd" clip-rule="evenodd" d="M-0.000695133 2.00008C-0.000695182 0.895532 0.894752 8.483e-05 1.9993 8.47817e-05L540.429 6.12462e-05C542.211 6.11683e-05 543.104 2.15436 541.844 3.41431L3.41351 541.844C2.15363 543.104 -0.00067152 542.212 -0.000671598 540.43L-0.000695133 2.00008ZM37.0084 252.418C35.7485 253.678 36.6408 255.832 38.4226 255.832L253.831 255.832C254.936 255.832 255.831 254.936 255.831 253.832L255.831 38.4234C255.831 36.6416 253.677 35.7492 252.417 37.0091L37.0084 252.418ZM316.869 59.0382C315.765 59.0382 314.869 59.9336 314.869 61.0382L314.869 138.691C314.869 140.473 317.024 141.365 318.283 140.105L395.936 62.4524C397.196 61.1925 396.304 59.0382 394.522 59.0382L316.869 59.0382ZM61.0374 314.87C59.9329 314.87 59.0374 315.765 59.0374 316.87L59.0374 394.523C59.0374 396.305 61.1917 397.197 62.4517 395.937L140.105 318.284C141.365 317.024 140.472 314.87 138.69 314.87L61.0374 314.87ZM61.0374 59.0382C59.9328 59.0382 59.0374 59.9336 59.0374 61.0382L59.0374 138.691C59.0374 140.473 61.1917 141.365 62.4516 140.105L140.105 62.4524C141.365 61.1925 140.472 59.0382 138.69 59.0382L61.0374 59.0382Z" fill="url(#paint0_linear_1427_7937)" fill-opacity="0.04"/>
<defs>
<linearGradient id="paint0_linear_1427_7937" x1="206.5" y1="149" x2="203" y2="3.63131e-05" gradientUnits="userSpaceOnUse">
<stop stop-color="#EBEAE7"/>
<stop offset="1" stop-color="#EBEAE7" stop-opacity="0"/>
</linearGradient>
</defs>
</svg>
