<svg width="658" height="3443" viewBox="0 0 658 3443" fill="none" xmlns="http://www.w3.org/2000/svg">
<path fill-rule="evenodd" clip-rule="evenodd" d="M329.431 2534.92C329.535 2535.03 329.703 2535.03 329.807 2534.92C329.876 2534.85 329.827 2534.74 329.729 2534.74H329.619H329.509C329.411 2534.74 329.361 2534.85 329.431 2534.92ZM109.223 2534.92H329.431L219.327 2644.86H219.703H439.535H439.911L329.807 2534.92H550.015L549.827 2534.74L439.911 2424.99L439.723 2424.8L329.619 2534.74L219.515 2424.8L219.327 2424.99L109.411 2534.74L109.223 2534.92ZM219.515 2424.8H439.723L331.032 2316.27C330.251 2315.49 328.987 2315.49 328.206 2316.27L219.515 2424.8ZM550.015 2534.92L439.911 2644.86H655.285C657.068 2644.86 657.96 2642.7 656.698 2641.45L550.015 2534.92ZM109.223 2534.92L2.53937 2641.45C1.27797 2642.7 2.16998 2644.86 3.95252 2644.86H219.327L109.223 2534.92ZM283.823 2619.49C282.041 2619.49 281.149 2617.33 282.41 2616.07L328.206 2570.35C328.987 2569.57 330.251 2569.57 331.032 2570.35L376.828 2616.07C378.089 2617.33 377.197 2619.49 375.414 2619.49H283.823ZM110.636 2570.16L156.62 2616.07C157.881 2617.33 156.989 2619.49 155.207 2619.49H63.2393C61.4567 2619.49 60.5647 2617.33 61.8261 2616.07L107.81 2570.16C108.591 2569.38 109.855 2569.38 110.636 2570.16ZM217.914 2460.22L172.118 2505.95C170.857 2507.21 171.749 2509.36 173.531 2509.36H265.122C266.905 2509.36 267.797 2507.21 266.535 2505.95L220.74 2460.22C219.959 2459.44 218.695 2459.44 217.914 2460.22ZM487.12 2505.95C488.381 2507.21 487.489 2509.36 485.706 2509.36H394.116C392.333 2509.36 391.441 2507.21 392.702 2505.95L438.498 2460.22C439.279 2459.44 440.543 2459.44 441.324 2460.22L487.12 2505.95ZM375.602 2399.43C377.385 2399.43 378.277 2397.27 377.016 2396.01L331.032 2350.1C330.251 2349.32 328.987 2349.32 328.206 2350.1L282.222 2396.01C280.961 2397.27 281.853 2399.43 283.635 2399.43H375.602ZM548.602 2570.16C549.383 2569.38 550.647 2569.38 551.428 2570.16L597.412 2616.07C598.673 2617.33 597.781 2619.49 595.998 2619.49H504.031C502.249 2619.49 501.357 2617.33 502.618 2616.07L548.602 2570.16ZM155.466 2290.73C155.611 2290.73 155.729 2290.61 155.728 2290.46C155.728 2290.37 155.609 2290.32 155.54 2290.39L155.464 2290.46L155.388 2290.54C155.319 2290.61 155.368 2290.73 155.466 2290.73ZM0.813698 2289.64L155.464 2290.46L154.642 2136.22L179.014 2160.91C178.897 2161.17 178.832 2161.45 178.834 2161.76L179.177 2226.05C179.186 2227.83 181.335 2228.71 182.591 2227.46L213.843 2196.21L231.796 2214.4L155.728 2290.46L307.664 2291.27L309.02 2292.65L156.553 2445.12L156.29 2445.38L5.85277 2595.82C4.59647 2597.07 2.44806 2596.19 2.43858 2594.41L1.6397 2444.55L1.63813 2444.29L0.815255 2289.9L0.813698 2289.64ZM0.813698 2289.64L154.44 2136.01L154.241 2135.81L2.01066 2135C0.897771 2134.99 -0.0059038 2135.9 2.90467e-05 2137.01L0.813698 2289.64ZM156.29 2445.38L155.466 2290.73L1.6397 2444.55L156.29 2445.38ZM245.97 2315C247.747 2315.01 248.63 2317.16 247.373 2318.42L183.417 2382.37C182.16 2383.63 180.012 2382.75 180.003 2380.97L179.66 2316.67C179.654 2315.56 180.558 2314.65 181.67 2314.66L245.97 2315ZM28.5021 2381.55C27.2458 2382.8 25.0973 2381.92 25.0879 2380.14L24.7452 2315.84C24.7393 2314.73 25.643 2313.83 26.7559 2313.83L91.055 2314.18C92.8317 2314.19 93.7149 2316.33 92.4586 2317.59L28.5021 2381.55ZM24.2634 2225.49C24.2729 2227.27 26.4213 2228.15 27.6776 2226.9L91.897 2162.68C93.1533 2161.42 92.2701 2159.27 90.4934 2159.26L25.9299 2158.92C24.817 2158.91 23.9133 2159.82 23.9192 2160.93L24.2634 2225.49ZM25.5697 2470.49C25.5638 2469.38 26.4674 2468.48 27.5803 2468.48L92.1439 2468.83C93.9205 2468.84 94.8037 2470.99 93.5474 2472.24L29.3281 2536.46C28.0718 2537.72 25.9233 2536.83 25.9139 2535.06L25.5697 2470.49ZM501.688 2293.56C501.541 2293.56 501.422 2293.44 501.422 2293.29L345.829 2293.17L346.095 2293.44L501.54 2448.88L501.806 2449.15L501.688 2293.56ZM657.399 2449.27L501.688 2293.56C501.786 2293.56 501.835 2293.44 501.766 2293.37L501.688 2293.29L501.61 2293.21C501.541 2293.14 501.422 2293.19 501.422 2293.29L345.712 2137.58L345.829 2293.17L193.537 2140.88C192.276 2139.62 193.17 2137.47 194.953 2137.47L345.712 2137.58L345.977 2137.58L501.304 2137.7L501.57 2137.7L655.166 2137.81C656.269 2137.82 657.164 2138.71 657.164 2139.81L657.281 2293.41V2293.67L657.399 2449L657.399 2449.27ZM657.399 2449.27L657.513 2600.03C657.514 2601.81 655.359 2602.7 654.099 2601.44L501.806 2449.15L657.399 2449.27ZM657.281 2293.41L501.57 2137.7L501.688 2293.29L657.281 2293.41ZM410.79 2317.43C409.008 2317.42 408.114 2319.58 409.375 2320.84L474.139 2385.6C475.4 2386.87 477.555 2385.97 477.554 2384.19L477.505 2319.47C477.504 2318.37 476.61 2317.48 475.506 2317.47L410.79 2317.43ZM321.794 2163.5C321.793 2162.39 320.899 2161.5 319.795 2161.5L254.814 2161.45C253.031 2161.45 252.138 2163.6 253.398 2164.86L318.429 2229.89C319.689 2231.15 321.844 2230.26 321.843 2228.48L321.794 2163.5ZM475.388 2161.62C476.492 2161.62 477.386 2162.51 477.387 2163.61L477.436 2228.33C477.437 2230.11 475.282 2231.01 474.021 2229.75L409.257 2164.98C407.996 2163.72 408.89 2161.57 410.673 2161.57L475.388 2161.62ZM629.998 2385.72C631.258 2386.98 633.414 2386.09 633.412 2384.31L633.363 2319.59C633.362 2318.49 632.468 2317.59 631.365 2317.59L566.649 2317.54C564.867 2317.54 563.973 2319.7 565.233 2320.96L629.998 2385.72ZM633.294 2228.71C633.296 2230.5 631.141 2231.39 629.88 2230.13L564.85 2165.1C563.589 2163.84 564.483 2161.68 566.265 2161.68L631.247 2161.73C632.35 2161.73 633.244 2162.63 633.245 2163.73L633.294 2228.71ZM633.481 2475.18C633.48 2474.08 632.586 2473.19 631.482 2473.19L566.501 2473.14C564.718 2473.13 563.825 2475.29 565.085 2476.55L630.116 2541.58C631.376 2542.84 633.531 2541.95 633.53 2540.17L633.481 2475.18Z" fill="#F9F9F9"/>
<path fill-rule="evenodd" clip-rule="evenodd" d="M328.085 3604.92C327.981 3605.03 327.813 3605.03 327.709 3604.92C327.639 3604.85 327.688 3604.74 327.786 3604.74H327.897H328.007C328.105 3604.74 328.154 3604.85 328.085 3604.92ZM548.293 3604.92H328.085L438.189 3714.86H437.813H217.981H217.605L327.709 3604.92H107.501L107.689 3604.74L217.605 3494.99L217.793 3494.8L327.897 3604.74L438.001 3494.8L438.189 3494.99L548.105 3604.74L548.293 3604.92ZM438.001 3494.8H217.793L326.484 3386.27C327.264 3385.49 328.529 3385.49 329.31 3386.27L438.001 3494.8ZM107.501 3604.92L217.605 3714.86H2.23035C0.447815 3714.86 -0.444214 3712.7 0.8172 3711.45L107.501 3604.92ZM548.293 3604.92L654.976 3711.45C656.238 3712.7 655.346 3714.86 653.563 3714.86H438.189L548.293 3604.92ZM373.692 3689.49C375.475 3689.49 376.367 3687.33 375.105 3686.07L329.31 3640.35C328.529 3639.57 327.264 3639.57 326.484 3640.35L280.688 3686.07C279.427 3687.33 280.319 3689.49 282.101 3689.49H373.692ZM546.88 3640.16L500.896 3686.07C499.635 3687.33 500.527 3689.49 502.309 3689.49H594.276C596.059 3689.49 596.951 3687.33 595.689 3686.07L549.706 3640.16C548.925 3639.38 547.66 3639.38 546.88 3640.16ZM439.602 3530.22L485.397 3575.95C486.659 3577.21 485.767 3579.36 483.984 3579.36H392.393C390.611 3579.36 389.719 3577.21 390.98 3575.95L436.776 3530.22C437.556 3529.44 438.821 3529.44 439.602 3530.22ZM170.396 3575.95C169.135 3577.21 170.027 3579.36 171.809 3579.36H263.4C265.183 3579.36 266.075 3577.21 264.813 3575.95L219.018 3530.22C218.237 3529.44 216.972 3529.44 216.192 3530.22L170.396 3575.95ZM281.913 3469.43C280.131 3469.43 279.239 3467.27 280.5 3466.01L326.484 3420.1C327.264 3419.32 328.529 3419.32 329.31 3420.1L375.294 3466.01C376.555 3467.27 375.663 3469.43 373.88 3469.43H281.913ZM108.914 3640.16C108.133 3639.38 106.868 3639.38 106.088 3640.16L60.104 3686.07C58.8426 3687.33 59.7346 3689.49 61.5172 3689.49H153.484C155.267 3689.49 156.159 3687.33 154.898 3686.07L108.914 3640.16ZM502.05 3360.73C501.905 3360.73 501.786 3360.61 501.787 3360.46C501.788 3360.37 501.906 3360.32 501.976 3360.39L502.051 3360.46L502.127 3360.54C502.197 3360.61 502.148 3360.73 502.05 3360.73ZM656.702 3359.64L502.051 3360.46L502.874 3206.22L478.502 3230.91C478.619 3231.17 478.683 3231.45 478.682 3231.76L478.339 3296.05C478.329 3297.83 476.181 3298.71 474.925 3297.46L443.673 3266.21L425.72 3284.4L501.787 3360.46L349.851 3361.27L348.496 3362.65L500.963 3515.12L501.225 3515.38L651.663 3665.82C652.919 3667.07 655.068 3666.19 655.077 3664.41L655.876 3514.55L655.877 3514.29L656.7 3359.9L656.702 3359.64ZM656.702 3359.64L503.076 3206.01L503.275 3205.81L655.505 3205C656.618 3204.99 657.522 3205.9 657.516 3207.01L656.702 3359.64ZM501.225 3515.38L502.05 3360.73L655.876 3514.55L501.225 3515.38ZM411.546 3385C409.769 3385.01 408.886 3387.16 410.142 3388.42L474.099 3452.37C475.355 3453.63 477.504 3452.75 477.513 3450.97L477.856 3386.67C477.862 3385.56 476.958 3384.65 475.845 3384.66L411.546 3385ZM629.014 3451.55C630.27 3452.8 632.418 3451.92 632.428 3450.14L632.77 3385.84C632.776 3384.73 631.873 3383.83 630.76 3383.83L566.461 3384.18C564.684 3384.19 563.801 3386.33 565.057 3387.59L629.014 3451.55ZM633.252 3295.49C633.243 3297.27 631.094 3298.15 629.838 3296.9L565.619 3232.68C564.362 3231.42 565.246 3229.27 567.022 3229.26L631.586 3228.92C632.699 3228.91 633.602 3229.82 633.596 3230.93L633.252 3295.49ZM631.946 3540.49C631.952 3539.38 631.048 3538.48 629.935 3538.48L565.372 3538.83C563.595 3538.84 562.712 3540.99 563.968 3542.24L628.188 3606.46C629.444 3607.72 631.592 3606.83 631.602 3605.06L631.946 3540.49ZM155.828 3363.56C155.974 3363.56 156.093 3363.44 156.093 3363.29L311.686 3363.17L311.42 3363.44L155.976 3518.88L155.71 3519.15L155.828 3363.56ZM0.117004 3519.27L155.828 3363.56C155.729 3363.56 155.68 3363.44 155.75 3363.37L155.828 3363.29L155.906 3363.21C155.975 3363.14 156.094 3363.19 156.093 3363.29L311.804 3207.58L311.686 3363.17L463.979 3210.88C465.239 3209.62 464.346 3207.47 462.563 3207.47L311.804 3207.58L311.538 3207.58L156.211 3207.7L155.945 3207.7L2.34967 3207.81C1.24634 3207.82 0.352051 3208.71 0.351196 3209.81L0.234863 3363.41V3363.67L0.117065 3519L0.117004 3519.27ZM0.117004 3519.27L0.00280762 3670.03C0.00146484 3671.81 2.15662 3672.7 3.41705 3671.44L155.71 3519.15L0.117004 3519.27ZM0.234863 3363.41L155.945 3207.7L155.828 3363.29L0.234863 3363.41ZM246.725 3387.43C248.508 3387.42 249.401 3389.58 248.141 3390.84L183.376 3455.6C182.116 3456.87 179.961 3455.97 179.962 3454.19L180.011 3389.47C180.012 3388.37 180.906 3387.48 182.009 3387.47L246.725 3387.43ZM335.722 3233.5C335.723 3232.39 336.617 3231.5 337.72 3231.5L402.702 3231.45C404.484 3231.45 405.378 3233.6 404.117 3234.86L339.087 3299.89C337.826 3301.15 335.671 3300.26 335.673 3298.48L335.722 3233.5ZM182.127 3231.62C181.024 3231.62 180.13 3232.51 180.129 3233.61L180.08 3298.33C180.079 3300.11 182.234 3301.01 183.494 3299.75L248.259 3234.98C249.519 3233.72 248.626 3231.57 246.843 3231.57L182.127 3231.62ZM27.5176 3455.72C26.2571 3456.98 24.1021 3456.09 24.1034 3454.31L24.1525 3389.59C24.1534 3388.49 25.0476 3387.59 26.151 3387.59L90.8665 3387.54C92.649 3387.54 93.5427 3389.7 92.2822 3390.96L27.5176 3455.72ZM24.2212 3298.71C24.2198 3300.5 26.375 3301.39 27.6354 3300.13L92.6661 3235.1C93.9265 3233.84 93.0329 3231.68 91.2504 3231.68L26.2689 3231.73C25.1655 3231.73 24.2712 3232.63 24.2704 3233.73L24.2212 3298.71ZM24.0347 3545.18C24.0356 3544.08 24.9298 3543.19 26.0332 3543.19L91.0146 3543.14C92.7972 3543.13 93.6908 3545.29 92.4304 3546.55L27.3997 3611.58C26.1393 3612.84 23.9841 3611.95 23.9855 3610.17L24.0347 3545.18Z" fill="#F9F9F9"/>
<path fill-rule="evenodd" clip-rule="evenodd" d="M328.093 2779.94C327.989 2779.83 327.82 2779.83 327.717 2779.94C327.647 2780.01 327.696 2780.13 327.794 2780.13H327.905H328.015C328.113 2780.13 328.162 2780.01 328.093 2779.94ZM548.301 2779.94H328.093L438.197 2670H437.821H217.989H217.613L327.717 2779.94H107.509L107.697 2780.13L217.613 2889.87L217.801 2890.06L327.905 2780.13L438.009 2890.06L438.197 2889.87L548.113 2780.13L548.301 2779.94ZM438.009 2890.06H217.801L326.491 2998.59C327.272 2999.37 328.537 2999.37 329.318 2998.59L438.009 2890.06ZM107.509 2779.94L217.613 2670H2.23816C0.455627 2670 -0.436401 2672.16 0.825012 2673.42L107.509 2779.94ZM548.301 2779.94L654.984 2673.42C656.245 2672.16 655.353 2670 653.571 2670H438.197L548.301 2779.94ZM373.7 2695.37C375.483 2695.37 376.375 2697.53 375.113 2698.79L329.318 2744.51C328.537 2745.29 327.272 2745.29 326.491 2744.51L280.696 2698.79C279.434 2697.53 280.326 2695.37 282.109 2695.37H373.7ZM546.887 2744.7L500.904 2698.79C499.642 2697.53 500.534 2695.37 502.317 2695.37H594.284C596.067 2695.37 596.959 2697.53 595.697 2698.79L549.714 2744.7C548.933 2745.48 547.668 2745.48 546.887 2744.7ZM439.61 2854.64L485.405 2808.91C486.667 2807.65 485.775 2805.5 483.992 2805.5H392.401C390.619 2805.5 389.727 2807.65 390.988 2808.91L436.783 2854.64C437.564 2855.42 438.829 2855.42 439.61 2854.64ZM170.404 2808.91C169.142 2807.65 170.034 2805.5 171.817 2805.5H263.408C265.19 2805.5 266.082 2807.65 264.821 2808.91L219.026 2854.64C218.245 2855.42 216.98 2855.42 216.199 2854.64L170.404 2808.91ZM281.921 2915.43C280.138 2915.43 279.246 2917.59 280.508 2918.85L326.491 2964.76C327.272 2965.54 328.537 2965.54 329.318 2964.76L375.301 2918.85C376.563 2917.59 375.671 2915.43 373.888 2915.43H281.921ZM108.922 2744.7C108.141 2745.48 106.876 2745.48 106.095 2744.7L60.1118 2698.79C58.8504 2697.53 59.7424 2695.37 61.525 2695.37H153.492C155.275 2695.37 156.167 2697.53 154.905 2698.79L108.922 2744.7ZM502.058 3024.13C501.912 3024.13 501.794 3024.25 501.795 3024.4C501.796 3024.49 501.914 3024.54 501.983 3024.47L502.059 3024.4L502.135 3024.32C502.204 3024.25 502.156 3024.13 502.058 3024.13ZM656.71 3025.22L502.059 3024.4L502.882 3178.64L478.509 3153.95C478.626 3153.69 478.691 3153.41 478.689 3153.11L478.347 3088.81C478.337 3087.03 476.189 3086.15 474.933 3087.4L443.68 3118.65L425.728 3100.46L501.795 3024.4L349.859 3023.59L348.504 3022.21L500.971 2869.75L501.233 2869.48L651.671 2719.04C652.927 2717.79 655.075 2718.67 655.085 2720.45L655.884 2870.31L655.885 2870.57L656.708 3024.96L656.71 3025.22ZM656.71 3025.22L503.084 3178.85L503.283 3179.05L655.513 3179.86C656.626 3179.87 657.529 3178.96 657.523 3177.85L656.71 3025.22ZM501.233 2869.48L502.058 3024.13L655.884 2870.31L501.233 2869.48ZM411.554 2999.86C409.777 2999.85 408.894 2997.7 410.15 2996.44L474.107 2932.49C475.363 2931.23 477.511 2932.11 477.521 2933.89L477.864 2998.19C477.87 2999.3 476.966 3000.21 475.853 3000.2L411.554 2999.86ZM629.021 2933.31C630.278 2932.06 632.426 2932.94 632.436 2934.72L632.778 2999.02C632.784 3000.13 631.88 3001.03 630.768 3001.03L566.468 3000.68C564.692 3000.68 563.809 2998.53 565.065 2997.27L629.021 2933.31ZM633.26 3089.37C633.251 3087.59 631.102 3086.71 629.846 3087.96L565.626 3152.18C564.37 3153.44 565.253 3155.59 567.03 3155.6L631.594 3155.94C632.706 3155.95 633.61 3155.04 633.604 3153.93L633.26 3089.37ZM631.954 2844.37C631.96 2845.48 631.056 2846.38 629.943 2846.38L565.38 2846.03C563.603 2846.02 562.72 2843.87 563.976 2842.62L628.195 2778.4C629.452 2777.14 631.6 2778.03 631.61 2779.8L631.954 2844.37ZM155.835 3021.3C155.982 3021.3 156.101 3021.42 156.101 3021.57L311.694 3021.69L311.428 3021.42L155.983 2865.98L155.718 2865.71L155.835 3021.3ZM0.124817 2865.59L155.835 3021.3C155.737 3021.3 155.688 3021.42 155.757 3021.49L155.835 3021.57L155.913 3021.65C155.983 3021.72 156.101 3021.67 156.101 3021.57L311.812 3177.28L311.694 3021.69L463.987 3173.98C465.247 3175.24 464.353 3177.4 462.571 3177.39L311.812 3177.28L311.546 3177.28L156.219 3177.16L155.953 3177.16L2.35748 3177.05C1.25415 3177.04 0.359863 3176.15 0.359009 3175.05L0.242676 3021.45V3021.19L0.124878 2865.86L0.124817 2865.59ZM0.124817 2865.59L0.0106201 2714.83C0.00927734 2713.05 2.16443 2712.16 3.42487 2713.42L155.718 2865.71L0.124817 2865.59ZM0.242676 3021.45L155.953 3177.16L155.835 3021.57L0.242676 3021.45ZM246.733 2997.43C248.516 2997.44 249.409 2995.28 248.149 2994.02L183.384 2929.26C182.124 2928 179.968 2928.89 179.97 2930.67L180.019 2995.39C180.02 2996.49 180.914 2997.38 182.017 2997.39L246.733 2997.43ZM335.73 3151.36C335.73 3152.47 336.625 3153.36 337.728 3153.36L402.709 3153.41C404.492 3153.41 405.386 3151.26 404.125 3150L339.095 3084.97C337.834 3083.71 335.679 3084.6 335.68 3086.38L335.73 3151.36ZM182.135 3153.24C181.032 3153.24 180.138 3152.35 180.137 3151.25L180.088 3086.53C180.086 3084.75 182.242 3083.85 183.502 3085.11L248.267 3149.88C249.527 3151.14 248.633 3153.29 246.851 3153.29L182.135 3153.24ZM27.5254 2929.14C26.265 2927.88 24.1099 2928.77 24.1112 2930.55L24.1603 2995.27C24.1612 2996.37 25.0554 2997.27 26.1588 2997.27L90.8743 2997.32C92.6569 2997.32 93.5505 2995.16 92.29 2993.9L27.5254 2929.14ZM24.229 3086.15C24.2277 3084.36 26.3828 3083.47 27.6432 3084.73L92.6739 3149.76C93.9343 3151.02 93.0407 3153.18 91.2582 3153.18L26.2767 3153.13C25.1733 3153.13 24.2791 3152.23 24.2782 3151.13L24.229 3086.15ZM24.0425 2839.68C24.0434 2840.78 24.9376 2841.67 26.041 2841.67L91.0225 2841.72C92.805 2841.73 93.6986 2839.57 92.4382 2838.31L27.4075 2773.28C26.1471 2772.02 23.9919 2772.91 23.9933 2774.69L24.0425 2839.68Z" fill="#F9F9F9"/>
<path fill-rule="evenodd" clip-rule="evenodd" d="M329.431 399.924C329.535 400.028 329.703 400.028 329.807 399.924C329.876 399.855 329.827 399.736 329.729 399.736H329.619H329.509C329.411 399.736 329.361 399.855 329.431 399.924ZM109.223 399.924H329.431L219.327 509.861H219.703H439.535H439.911L329.807 399.924H550.015L549.827 399.736L439.911 289.987L439.723 289.799L329.619 399.736L219.515 289.799L219.327 289.987L109.411 399.736L109.223 399.924ZM219.515 289.799H439.723L331.032 181.272C330.251 180.493 328.987 180.493 328.206 181.272L219.515 289.799ZM550.015 399.924L439.911 509.861H655.285C657.068 509.861 657.96 507.706 656.698 506.446L550.015 399.924ZM109.223 399.924L2.53937 506.446C1.27797 507.706 2.16998 509.861 3.95252 509.861H219.327L109.223 399.924ZM283.823 484.491C282.041 484.491 281.149 482.335 282.41 481.076L328.206 435.35C328.987 434.57 330.251 434.57 331.032 435.35L376.828 481.076C378.089 482.335 377.197 484.491 375.414 484.491H283.823ZM110.636 435.162L156.62 481.076C157.881 482.335 156.989 484.491 155.207 484.491H63.2393C61.4567 484.491 60.5647 482.335 61.8261 481.076L107.81 435.162C108.591 434.382 109.855 434.382 110.636 435.162ZM217.914 325.225L172.118 370.951C170.857 372.21 171.749 374.366 173.531 374.366H265.122C266.905 374.366 267.797 372.21 266.535 370.951L220.74 325.225C219.959 324.445 218.695 324.445 217.914 325.225ZM487.12 370.951C488.381 372.21 487.489 374.366 485.706 374.366H394.116C392.333 374.366 391.441 372.21 392.702 370.951L438.498 325.225C439.279 324.445 440.543 324.445 441.324 325.224L487.12 370.951ZM375.602 264.429C377.385 264.429 378.277 262.273 377.016 261.013L331.032 215.099C330.251 214.32 328.987 214.32 328.206 215.099L282.222 261.013C280.961 262.273 281.853 264.429 283.635 264.429H375.602ZM548.602 435.162C549.383 434.382 550.647 434.382 551.428 435.162L597.412 481.076C598.673 482.335 597.781 484.491 595.998 484.491H504.031C502.249 484.491 501.357 482.335 502.618 481.076L548.602 435.162ZM155.466 155.729C155.611 155.73 155.729 155.612 155.728 155.466C155.728 155.368 155.609 155.32 155.54 155.389L155.464 155.465L155.388 155.541C155.319 155.61 155.368 155.728 155.466 155.729ZM0.813698 154.64L155.464 155.465L154.642 1.21896L179.014 25.9152C178.897 26.1712 178.832 26.4562 178.834 26.7564L179.177 91.0556C179.186 92.8322 181.335 93.7154 182.591 92.4591L213.843 61.2072L231.796 79.3989L155.728 155.466L307.664 156.276L309.02 157.65L156.553 310.117L156.29 310.379L5.85277 460.817C4.59647 462.073 2.44806 461.19 2.43858 459.413L1.6397 309.555L1.63813 309.291L0.815255 154.905L0.813698 154.64ZM0.813698 154.64L154.44 1.01419L154.24 0.812103L2.01066 0.000579834C0.897771 -0.00534058 -0.0059038 0.898346 2.90467e-05 2.01123L0.813698 154.64ZM156.29 310.379L155.466 155.729L1.6397 309.555L156.29 310.379ZM245.97 180.003C247.747 180.013 248.63 182.161 247.373 183.417L183.417 247.374C182.16 248.63 180.012 247.747 180.003 245.97L179.66 181.671C179.654 180.558 180.558 179.654 181.67 179.66L245.97 180.003ZM28.5021 246.548C27.2458 247.804 25.0973 246.921 25.0879 245.144L24.7452 180.845C24.7393 179.732 25.643 178.829 26.7559 178.834L91.055 179.177C92.8317 179.187 93.7149 181.335 92.4586 182.591L28.5021 246.548ZM24.2634 90.494C24.2729 92.2706 26.4213 93.1538 27.6776 91.8975L91.897 27.6782C93.1533 26.4219 92.2701 24.2735 90.4934 24.264L25.9299 23.9198C24.817 23.9139 23.9133 24.8175 23.9192 25.9304L24.2634 90.494ZM25.5697 335.496C25.5638 334.383 26.4674 333.479 27.5803 333.485L92.1439 333.829C93.9205 333.839 94.8037 335.987 93.5474 337.243L29.3281 401.463C28.0718 402.719 25.9233 401.836 25.9139 400.059L25.5697 335.496ZM501.688 158.558C501.541 158.558 501.422 158.439 501.422 158.292L345.829 158.174L346.095 158.44L501.54 313.885L501.806 314.151L501.688 158.558ZM657.399 314.268L501.688 158.558C501.786 158.558 501.835 158.439 501.766 158.37L501.688 158.292L501.61 158.214C501.541 158.145 501.422 158.194 501.422 158.292L345.712 2.58145L345.829 158.174L193.537 5.8815C192.276 4.62106 193.17 2.46594 194.953 2.46729L345.712 2.58145L345.977 2.58151L501.304 2.69928L501.57 2.69931L655.166 2.81564C656.269 2.8165 657.164 3.71075 657.164 4.81415L657.281 158.41V158.676L657.399 314.003L657.399 314.268ZM657.399 314.268L657.513 465.028C657.514 466.81 655.359 467.704 654.099 466.443L501.806 314.151L657.399 314.268ZM657.281 158.41L501.57 2.69931L501.688 158.292L657.281 158.41ZM410.79 182.426C409.008 182.425 408.114 184.58 409.375 185.841L474.139 250.605C475.4 251.866 477.555 250.972 477.554 249.19L477.505 184.474C477.504 183.371 476.61 182.476 475.506 182.475L410.79 182.426ZM321.794 28.4976C321.793 27.3943 320.899 26.5 319.795 26.4991L254.814 26.45C253.031 26.4486 252.138 28.6037 253.398 29.8642L318.429 94.8948C319.689 96.1553 321.844 95.2616 321.843 93.4791L321.794 28.4976ZM475.388 26.617C476.492 26.6178 477.386 27.5121 477.387 28.6154L477.436 93.3309C477.437 95.1135 475.282 96.0071 474.021 94.7466L409.257 29.9821C407.996 28.7216 408.89 26.5665 410.673 26.5678L475.388 26.617ZM629.998 250.723C631.258 251.984 633.414 251.09 633.412 249.307L633.363 184.592C633.362 183.489 632.468 182.594 631.365 182.593L566.649 182.544C564.867 182.543 563.973 184.698 565.233 185.959L629.998 250.723ZM633.294 93.7148C633.296 95.4973 631.141 96.391 629.88 95.1305L564.85 30.0999C563.589 28.8394 564.483 26.6843 566.265 26.6857L631.247 26.7349C632.35 26.7357 633.244 27.63 633.245 28.7333L633.294 93.7148ZM633.481 340.185C633.48 339.081 632.586 338.187 631.482 338.186L566.501 338.137C564.718 338.136 563.825 340.291 565.085 341.551L630.116 406.582C631.376 407.842 633.531 406.949 633.53 405.166L633.481 340.185Z" fill="#F9F9F9"/>
<path fill-rule="evenodd" clip-rule="evenodd" d="M328.085 1469.92C327.981 1470.03 327.813 1470.03 327.709 1469.92C327.639 1469.85 327.688 1469.74 327.786 1469.74H327.897H328.007C328.105 1469.74 328.154 1469.85 328.085 1469.92ZM548.293 1469.92H328.085L438.189 1579.86H437.813H217.981H217.605L327.709 1469.92H107.501L107.689 1469.74L217.605 1359.99L217.793 1359.8L327.897 1469.74L438.001 1359.8L438.189 1359.99L548.105 1469.74L548.293 1469.92ZM438.001 1359.8H217.793L326.484 1251.27C327.264 1250.49 328.529 1250.49 329.31 1251.27L438.001 1359.8ZM107.501 1469.92L217.605 1579.86H2.23035C0.447815 1579.86 -0.444214 1577.7 0.8172 1576.45L107.501 1469.92ZM548.293 1469.92L654.976 1576.45C656.238 1577.7 655.346 1579.86 653.563 1579.86H438.189L548.293 1469.92ZM373.692 1554.49C375.475 1554.49 376.367 1552.33 375.105 1551.07L329.31 1505.35C328.529 1504.57 327.264 1504.57 326.484 1505.35L280.688 1551.07C279.427 1552.33 280.319 1554.49 282.101 1554.49H373.692ZM546.88 1505.16L500.896 1551.07C499.635 1552.33 500.527 1554.49 502.309 1554.49H594.276C596.059 1554.49 596.951 1552.33 595.689 1551.07L549.706 1505.16C548.925 1504.38 547.66 1504.38 546.88 1505.16ZM439.602 1395.22L485.397 1440.95C486.659 1442.21 485.767 1444.36 483.984 1444.36H392.393C390.611 1444.36 389.719 1442.21 390.98 1440.95L436.776 1395.22C437.556 1394.44 438.821 1394.44 439.602 1395.22ZM170.396 1440.95C169.135 1442.21 170.027 1444.36 171.809 1444.36H263.4C265.183 1444.36 266.075 1442.21 264.813 1440.95L219.018 1395.22C218.237 1394.44 216.972 1394.44 216.192 1395.22L170.396 1440.95ZM281.913 1334.43C280.131 1334.43 279.239 1332.27 280.5 1331.01L326.484 1285.1C327.264 1284.32 328.529 1284.32 329.31 1285.1L375.294 1331.01C376.555 1332.27 375.663 1334.43 373.88 1334.43H281.913ZM108.914 1505.16C108.133 1504.38 106.868 1504.38 106.088 1505.16L60.104 1551.07C58.8426 1552.33 59.7346 1554.49 61.5172 1554.49H153.484C155.267 1554.49 156.159 1552.33 154.898 1551.07L108.914 1505.16ZM502.05 1225.73C501.905 1225.73 501.786 1225.61 501.787 1225.46C501.788 1225.37 501.906 1225.32 501.976 1225.39L502.051 1225.46L502.127 1225.54C502.197 1225.61 502.148 1225.73 502.05 1225.73ZM656.702 1224.64L502.051 1225.46L502.874 1071.22L478.502 1095.91C478.619 1096.17 478.683 1096.45 478.682 1096.76L478.339 1161.05C478.329 1162.83 476.181 1163.71 474.925 1162.46L443.673 1131.21L425.72 1149.4L501.787 1225.46L349.851 1226.27L348.496 1227.65L500.963 1380.12L501.225 1380.38L651.663 1530.82C652.919 1532.07 655.068 1531.19 655.077 1529.41L655.876 1379.55L655.877 1379.29L656.7 1224.9L656.702 1224.64ZM656.702 1224.64L503.076 1071.01L503.275 1070.81L655.505 1070C656.618 1069.99 657.522 1070.9 657.516 1072.01L656.702 1224.64ZM501.225 1380.38L502.05 1225.73L655.876 1379.55L501.225 1380.38ZM411.546 1250C409.769 1250.01 408.886 1252.16 410.142 1253.42L474.099 1317.37C475.355 1318.63 477.504 1317.75 477.513 1315.97L477.856 1251.67C477.862 1250.56 476.958 1249.65 475.845 1249.66L411.546 1250ZM629.014 1316.55C630.27 1317.8 632.418 1316.92 632.428 1315.14L632.77 1250.84C632.776 1249.73 631.873 1248.83 630.76 1248.83L566.461 1249.18C564.684 1249.19 563.801 1251.33 565.057 1252.59L629.014 1316.55ZM633.252 1160.49C633.243 1162.27 631.094 1163.15 629.838 1161.9L565.619 1097.68C564.362 1096.42 565.246 1094.27 567.022 1094.26L631.586 1093.92C632.699 1093.91 633.602 1094.82 633.596 1095.93L633.252 1160.49ZM631.946 1405.49C631.952 1404.38 631.048 1403.48 629.935 1403.48L565.372 1403.83C563.595 1403.84 562.712 1405.99 563.968 1407.24L628.188 1471.46C629.444 1472.72 631.592 1471.83 631.602 1470.06L631.946 1405.49ZM155.828 1228.56C155.974 1228.56 156.093 1228.44 156.093 1228.29L311.686 1228.17L311.42 1228.44L155.976 1383.88L155.71 1384.15L155.828 1228.56ZM0.117004 1384.27L155.828 1228.56C155.729 1228.56 155.68 1228.44 155.75 1228.37L155.828 1228.29L155.906 1228.21C155.975 1228.14 156.094 1228.19 156.093 1228.29L311.804 1072.58L311.686 1228.17L463.979 1075.88C465.239 1074.62 464.346 1072.47 462.563 1072.47L311.804 1072.58L311.538 1072.58L156.211 1072.7L155.945 1072.7L2.34967 1072.81C1.24634 1072.82 0.352051 1073.71 0.351196 1074.81L0.234863 1228.41V1228.67L0.117065 1384L0.117004 1384.27ZM0.117004 1384.27L0.00280762 1535.03C0.00146484 1536.81 2.15662 1537.7 3.41705 1536.44L155.71 1384.15L0.117004 1384.27ZM0.234863 1228.41L155.945 1072.7L155.828 1228.29L0.234863 1228.41ZM246.725 1252.43C248.508 1252.42 249.401 1254.58 248.141 1255.84L183.376 1320.6C182.116 1321.87 179.961 1320.97 179.962 1319.19L180.011 1254.47C180.012 1253.37 180.906 1252.48 182.009 1252.47L246.725 1252.43ZM335.722 1098.5C335.723 1097.39 336.617 1096.5 337.72 1096.5L402.702 1096.45C404.484 1096.45 405.378 1098.6 404.117 1099.86L339.087 1164.89C337.826 1166.15 335.671 1165.26 335.673 1163.48L335.722 1098.5ZM182.127 1096.62C181.024 1096.62 180.13 1097.51 180.129 1098.61L180.08 1163.33C180.079 1165.11 182.234 1166.01 183.494 1164.75L248.259 1099.98C249.519 1098.72 248.626 1096.57 246.843 1096.57L182.127 1096.62ZM27.5176 1320.72C26.2571 1321.98 24.1021 1321.09 24.1034 1319.31L24.1525 1254.59C24.1534 1253.49 25.0476 1252.59 26.151 1252.59L90.8665 1252.54C92.649 1252.54 93.5427 1254.7 92.2822 1255.96L27.5176 1320.72ZM24.2212 1163.71C24.2198 1165.5 26.375 1166.39 27.6354 1165.13L92.6661 1100.1C93.9265 1098.84 93.0329 1096.68 91.2504 1096.68L26.2689 1096.73C25.1655 1096.73 24.2712 1097.63 24.2704 1098.73L24.2212 1163.71ZM24.0347 1410.18C24.0356 1409.08 24.9298 1408.19 26.0332 1408.19L91.0146 1408.14C92.7972 1408.13 93.6908 1410.29 92.4304 1411.55L27.3997 1476.58C26.1393 1477.84 23.9841 1476.95 23.9855 1475.17L24.0347 1410.18Z" fill="#F9F9F9"/>
<path fill-rule="evenodd" clip-rule="evenodd" d="M328.093 644.937C327.989 644.834 327.82 644.834 327.717 644.937C327.647 645.007 327.696 645.125 327.794 645.125H327.905H328.015C328.113 645.125 328.162 645.007 328.093 644.937ZM548.301 644.937H328.093L438.197 535H437.821H217.989H217.613L327.717 644.937H107.509L107.697 645.125L217.613 754.875L217.801 755.063L327.905 645.125L438.009 755.063L438.197 754.875L548.113 645.125L548.301 644.937ZM438.009 755.063H217.801L326.491 863.589C327.272 864.369 328.537 864.369 329.318 863.589L438.009 755.063ZM107.509 644.937L217.613 535H2.23816C0.455627 535 -0.436401 537.156 0.825012 538.415L107.509 644.937ZM548.301 644.937L654.984 538.415C656.245 537.156 655.353 535 653.571 535H438.197L548.301 644.937ZM373.7 560.37C375.483 560.37 376.375 562.526 375.113 563.785L329.318 609.512C328.537 610.291 327.272 610.291 326.491 609.512L280.696 563.785C279.434 562.526 280.326 560.37 282.109 560.37H373.7ZM546.887 609.699L500.904 563.785C499.642 562.526 500.534 560.37 502.317 560.37H594.284C596.067 560.37 596.959 562.526 595.697 563.785L549.714 609.699C548.933 610.479 547.668 610.479 546.887 609.699ZM439.61 719.637L485.405 673.911C486.667 672.651 485.775 670.495 483.992 670.495H392.401C390.619 670.495 389.727 672.651 390.988 673.911L436.783 719.637C437.564 720.416 438.829 720.416 439.61 719.637ZM170.404 673.911C169.142 672.651 170.034 670.495 171.817 670.495H263.408C265.19 670.495 266.082 672.651 264.821 673.911L219.026 719.637C218.245 720.416 216.98 720.416 216.199 719.637L170.404 673.911ZM281.921 780.433C280.138 780.433 279.246 782.589 280.508 783.848L326.491 829.762C327.272 830.542 328.537 830.542 329.318 829.762L375.301 783.848C376.563 782.589 375.671 780.433 373.888 780.433H281.921ZM108.922 609.699C108.141 610.479 106.876 610.479 106.095 609.699L60.1118 563.785C58.8504 562.526 59.7424 560.37 61.525 560.37H153.492C155.275 560.37 156.167 562.526 154.905 563.785L108.922 609.699ZM502.058 889.132C501.912 889.131 501.794 889.249 501.795 889.395C501.796 889.493 501.914 889.542 501.983 889.472L502.059 889.396L502.135 889.32C502.204 889.251 502.156 889.133 502.058 889.132ZM656.71 890.221L502.059 889.396L502.882 1043.64L478.509 1018.95C478.626 1018.69 478.691 1018.4 478.689 1018.1L478.347 953.806C478.337 952.029 476.189 951.146 474.933 952.402L443.68 983.654L425.728 965.462L501.795 889.395L349.859 888.585L348.504 887.211L500.971 734.744L501.233 734.482L651.671 584.044C652.927 582.788 655.075 583.671 655.085 585.448L655.884 735.306L655.885 735.57L656.708 889.957L656.71 890.221ZM656.71 890.221L503.084 1043.85L503.283 1044.05L655.513 1044.86C656.626 1044.87 657.529 1043.96 657.523 1042.85L656.71 890.221ZM501.233 734.482L502.058 889.132L655.884 735.306L501.233 734.482ZM411.554 864.858C409.777 864.848 408.894 862.7 410.15 861.444L474.107 797.487C475.363 796.231 477.511 797.114 477.521 798.891L477.864 863.19C477.87 864.303 476.966 865.207 475.853 865.201L411.554 864.858ZM629.021 798.313C630.278 797.057 632.426 797.94 632.436 799.717L632.778 864.016C632.784 865.129 631.88 866.033 630.768 866.027L566.468 865.684C564.692 865.674 563.809 863.526 565.065 862.27L629.021 798.313ZM633.26 954.367C633.251 952.59 631.102 951.707 629.846 952.964L565.626 1017.18C564.37 1018.44 565.253 1020.59 567.03 1020.6L631.594 1020.94C632.706 1020.95 633.61 1020.04 633.604 1018.93L633.26 954.367ZM631.954 709.366C631.96 710.478 631.056 711.382 629.943 711.376L565.38 711.032C563.603 711.022 562.72 708.874 563.976 707.618L628.195 643.398C629.452 642.142 631.6 643.025 631.61 644.802L631.954 709.366ZM155.835 886.303C155.982 886.303 156.101 886.422 156.101 886.569L311.694 886.687L311.428 886.421L155.983 730.976L155.718 730.71L155.835 886.303ZM0.124817 730.593L155.835 886.303C155.737 886.303 155.688 886.422 155.757 886.491L155.835 886.569L155.913 886.647C155.983 886.716 156.101 886.667 156.101 886.569L311.812 1042.28L311.694 886.687L463.987 1038.98C465.247 1040.24 464.353 1042.4 462.571 1042.39L311.812 1042.28L311.546 1042.28L156.219 1042.16L155.953 1042.16L2.35748 1042.05C1.25415 1042.04 0.359863 1041.15 0.359009 1040.05L0.242676 886.451V886.185L0.124878 730.858L0.124817 730.593ZM0.124817 730.593L0.0106201 579.834C0.00927734 578.051 2.16443 577.157 3.42487 578.418L155.718 730.71L0.124817 730.593ZM0.242676 886.451L155.953 1042.16L155.835 886.569L0.242676 886.451ZM246.733 862.435C248.516 862.436 249.409 860.281 248.149 859.02L183.384 794.256C182.124 792.995 179.968 793.889 179.97 795.671L180.019 860.387C180.02 861.491 180.914 862.385 182.017 862.386L246.733 862.435ZM335.73 1016.36C335.73 1017.47 336.625 1018.36 337.728 1018.36L402.709 1018.41C404.492 1018.41 405.386 1016.26 404.125 1015L339.095 949.966C337.834 948.706 335.679 949.599 335.68 951.382L335.73 1016.36ZM182.135 1018.24C181.032 1018.24 180.138 1017.35 180.137 1016.25L180.088 951.53C180.086 949.748 182.242 948.854 183.502 950.114L248.267 1014.88C249.527 1016.14 248.633 1018.29 246.851 1018.29L182.135 1018.24ZM27.5254 794.138C26.265 792.877 24.1099 793.771 24.1112 795.554L24.1603 860.269C24.1612 861.373 25.0554 862.267 26.1588 862.268L90.8743 862.317C92.6569 862.318 93.5505 860.163 92.29 858.902L27.5254 794.138ZM24.229 951.146C24.2277 949.364 26.3828 948.47 27.6432 949.731L92.6739 1014.76C93.9343 1016.02 93.0407 1018.18 91.2582 1018.18L26.2767 1018.13C25.1733 1018.13 24.2791 1017.23 24.2782 1016.13L24.229 951.146ZM24.0425 704.676C24.0434 705.78 24.9376 706.674 26.041 706.675L91.0225 706.724C92.805 706.725 93.6986 704.57 92.4382 703.31L27.4075 638.279C26.1471 637.019 23.9919 637.912 23.9933 639.695L24.0425 704.676Z" fill="#F9F9F9"/>
<path fill-rule="evenodd" clip-rule="evenodd" d="M329.431 1714.94C329.535 1714.83 329.703 1714.83 329.807 1714.94C329.876 1715.01 329.827 1715.13 329.729 1715.13H329.619H329.509C329.411 1715.13 329.361 1715.01 329.431 1714.94ZM109.223 1714.94H329.431L219.327 1605H219.703H439.535H439.911L329.807 1714.94H550.015L549.827 1715.13L439.911 1824.87L439.723 1825.06L329.619 1715.13L219.515 1825.06L219.327 1824.87L109.411 1715.13L109.223 1714.94ZM219.515 1825.06H439.723L331.032 1933.59C330.251 1934.37 328.987 1934.37 328.206 1933.59L219.515 1825.06ZM550.015 1714.94L439.911 1605H655.285C657.068 1605 657.96 1607.16 656.698 1608.42L550.015 1714.94ZM109.223 1714.94L2.53937 1608.42C1.27797 1607.16 2.16998 1605 3.95252 1605H219.327L109.223 1714.94ZM283.823 1630.37C282.041 1630.37 281.149 1632.53 282.41 1633.79L328.206 1679.51C328.987 1680.29 330.251 1680.29 331.032 1679.51L376.828 1633.79C378.089 1632.53 377.197 1630.37 375.414 1630.37H283.823ZM110.636 1679.7L156.62 1633.79C157.881 1632.53 156.989 1630.37 155.207 1630.37H63.2393C61.4567 1630.37 60.5647 1632.53 61.8261 1633.79L107.81 1679.7C108.591 1680.48 109.855 1680.48 110.636 1679.7ZM217.914 1789.64L172.118 1743.91C170.857 1742.65 171.749 1740.5 173.531 1740.5H265.122C266.905 1740.5 267.797 1742.65 266.535 1743.91L220.74 1789.64C219.959 1790.42 218.695 1790.42 217.914 1789.64ZM487.12 1743.91C488.381 1742.65 487.489 1740.5 485.706 1740.5H394.116C392.333 1740.5 391.441 1742.65 392.702 1743.91L438.498 1789.64C439.279 1790.42 440.543 1790.42 441.324 1789.64L487.12 1743.91ZM375.602 1850.43C377.385 1850.43 378.277 1852.59 377.016 1853.85L331.032 1899.76C330.251 1900.54 328.987 1900.54 328.206 1899.76L282.222 1853.85C280.961 1852.59 281.853 1850.43 283.635 1850.43H375.602ZM548.602 1679.7C549.383 1680.48 550.647 1680.48 551.428 1679.7L597.412 1633.79C598.673 1632.53 597.781 1630.37 595.998 1630.37H504.031C502.249 1630.37 501.357 1632.53 502.618 1633.79L548.602 1679.7ZM155.466 1959.13C155.611 1959.13 155.729 1959.25 155.728 1959.4C155.728 1959.49 155.609 1959.54 155.54 1959.47L155.464 1959.4L155.388 1959.32C155.319 1959.25 155.368 1959.13 155.466 1959.13ZM0.813698 1960.22L155.464 1959.4L154.642 2113.64L179.014 2088.95C178.897 2088.69 178.832 2088.41 178.834 2088.1L179.177 2023.81C179.186 2022.03 181.335 2021.15 182.591 2022.4L213.843 2053.65L231.796 2035.46L155.728 1959.4L307.664 1958.59L309.02 1957.21L156.553 1804.74L156.29 1804.48L5.85277 1654.04C4.59647 1652.79 2.44806 1653.67 2.43858 1655.45L1.6397 1805.31L1.63813 1805.57L0.815255 1959.96L0.813698 1960.22ZM0.813698 1960.22L154.44 2113.85L154.241 2114.05L2.01066 2114.86C0.897771 2114.87 -0.0059038 2113.96 2.90467e-05 2112.85L0.813698 1960.22ZM156.29 1804.48L155.466 1959.13L1.6397 1805.31L156.29 1804.48ZM245.97 1934.86C247.747 1934.85 248.63 1932.7 247.373 1931.44L183.417 1867.49C182.16 1866.23 180.012 1867.11 180.003 1868.89L179.66 1933.19C179.654 1934.3 180.558 1935.21 181.67 1935.2L245.97 1934.86ZM28.5021 1868.31C27.2458 1867.06 25.0973 1867.94 25.0879 1869.72L24.7452 1934.02C24.7393 1935.13 25.643 1936.03 26.7559 1936.03L91.055 1935.68C92.8317 1935.67 93.7149 1933.53 92.4586 1932.27L28.5021 1868.31ZM24.2634 2024.37C24.2729 2022.59 26.4213 2021.71 27.6776 2022.96L91.897 2087.18C93.1533 2088.44 92.2701 2090.59 90.4934 2090.6L25.9299 2090.94C24.817 2090.95 23.9133 2090.04 23.9192 2088.93L24.2634 2024.37ZM25.5697 1779.37C25.5638 1780.48 26.4674 1781.38 27.5803 1781.38L92.1439 1781.03C93.9205 1781.02 94.8037 1778.87 93.5474 1777.62L29.3281 1713.4C28.0718 1712.14 25.9233 1713.03 25.9139 1714.8L25.5697 1779.37ZM501.688 1956.3C501.541 1956.3 501.422 1956.42 501.422 1956.57L345.829 1956.69L346.095 1956.42L501.54 1800.98L501.806 1800.71L501.688 1956.3ZM657.399 1800.59L501.688 1956.3C501.786 1956.3 501.835 1956.42 501.766 1956.49L501.688 1956.57L501.61 1956.65C501.541 1956.72 501.422 1956.67 501.422 1956.57L345.712 2112.28L345.829 1956.69L193.537 2108.98C192.276 2110.24 193.17 2112.4 194.953 2112.39L345.712 2112.28L345.977 2112.28L501.304 2112.16L501.57 2112.16L655.166 2112.05C656.269 2112.04 657.164 2111.15 657.164 2110.05L657.281 1956.45V1956.19L657.399 1800.86L657.399 1800.59ZM657.399 1800.59L657.513 1649.83C657.514 1648.05 655.359 1647.16 654.099 1648.42L501.806 1800.71L657.399 1800.59ZM657.281 1956.45L501.57 2112.16L501.688 1956.57L657.281 1956.45ZM410.79 1932.43C409.008 1932.44 408.114 1930.28 409.375 1929.02L474.139 1864.26C475.4 1863 477.555 1863.89 477.554 1865.67L477.505 1930.39C477.504 1931.49 476.61 1932.38 475.506 1932.39L410.79 1932.43ZM321.794 2086.36C321.793 2087.47 320.899 2088.36 319.795 2088.36L254.814 2088.41C253.031 2088.41 252.138 2086.26 253.398 2085L318.429 2019.97C319.689 2018.71 321.844 2019.6 321.843 2021.38L321.794 2086.36ZM475.388 2088.24C476.492 2088.24 477.386 2087.35 477.387 2086.25L477.436 2021.53C477.437 2019.75 475.282 2018.85 474.021 2020.11L409.257 2084.88C407.996 2086.14 408.89 2088.29 410.673 2088.29L475.388 2088.24ZM629.998 1864.14C631.258 1862.88 633.414 1863.77 633.412 1865.55L633.363 1930.27C633.362 1931.37 632.468 1932.27 631.365 1932.27L566.649 1932.32C564.867 1932.32 563.973 1930.16 565.233 1928.9L629.998 1864.14ZM633.294 2021.15C633.296 2019.36 631.141 2018.47 629.88 2019.73L564.85 2084.76C563.589 2086.02 564.483 2088.18 566.265 2088.18L631.247 2088.13C632.35 2088.13 633.244 2087.23 633.245 2086.13L633.294 2021.15ZM633.481 1774.68C633.48 1775.78 632.586 1776.67 631.482 1776.67L566.501 1776.72C564.718 1776.73 563.825 1774.57 565.085 1773.31L630.116 1708.28C631.376 1707.02 633.531 1707.91 633.53 1709.69L633.481 1774.68Z" fill="#F9F9F9"/>
</svg>
