<svg width="291" height="100" viewBox="0 0 291 100" fill="none" xmlns="http://www.w3.org/2000/svg">
<path fill-rule="evenodd" clip-rule="evenodd" d="M98.6598 0H98.6608H288.882C289.913 0 290.75 0.836407 290.75 1.86817V98.1318C290.75 99.1635 289.913 99.9999 288.882 99.9999L98.6608 99.9999L98.6598 99.9999L0.750794 99.9999L98.6598 0.000997408V0.000267654L0.75 100V8.064e-05H98.6598V0ZM52.722 93.8387V53.0806H92.6283L52.722 93.8387ZM88.0595 42.253H72.8895L88.0595 26.7592V42.253ZM42.1208 89.1724H26.9508L42.1208 73.6786V89.1724ZM88.0595 89.1724H72.8895L88.0595 73.6786V89.1724ZM46.6887 46.9194V6.16134L6.78246 46.9194H46.6887ZM26.5212 57.747H11.3512V73.2408L26.5212 57.747ZM72.46 10.8276H57.29V26.3214L72.46 10.8276ZM26.5212 10.8276H11.3512V26.3214L26.5212 10.8276Z" fill="white"/>
</svg>
