<svg width="290" height="100" viewBox="0 0 290 100" fill="none" xmlns="http://www.w3.org/2000/svg">
<path fill-rule="evenodd" clip-rule="evenodd" d="M0 99.7749V0H97.91L0 99.7749ZM45.9387 46.8138V6.1474L6.03246 46.8138H45.9387ZM25.7712 57.6169H10.6012V73.0759L25.7712 57.6169ZM71.71 10.8032H56.54V26.2621L71.71 10.8032ZM25.7712 10.8032H10.6012V26.2621L25.7712 10.8032ZM97.91 0.000183368H97.9102H288C289.105 0.000183368 290 0.895614 290 2.00018V97.7751C290 98.8797 289.105 99.7751 288 99.7751H97.9102H97.91H0.000251192L97.91 0.000439933V0.000183368ZM51.9715 93.6277V52.9613H91.8778L51.9715 93.6277ZM87.309 42.1582H72.139L87.309 26.6992V42.1582ZM41.3702 88.9719H26.2002L41.3702 73.513V88.9719ZM87.309 88.9719H72.139L87.309 73.513V88.9719Z" fill="url(#paint0_linear_3117_88904)"/>
<defs>
<linearGradient id="paint0_linear_3117_88904" x1="0" y1="0" x2="305.386" y2="99.7748" gradientUnits="userSpaceOnUse">
<stop offset="0.0358053" stop-color="#92844A"/>
<stop offset="0.566553" stop-color="#E0D08A"/>
<stop offset="1" stop-color="#92844A"/>
</linearGradient>
</defs>
</svg>
