<svg width="312" height="107" viewBox="0 0 312 107" fill="none" xmlns="http://www.w3.org/2000/svg">
<path fill-rule="evenodd" clip-rule="evenodd" d="M0.5 107V0H105.5L303.5 1.3113e-05C307.918 1.3113e-05 311.5 3.58173 311.5 8.00001V99C311.5 103.418 307.918 107 303.5 107L105.5 107H0.5ZM49.7653 50.2037V6.59255L6.96929 50.2037H49.7653ZM28.1374 61.7892H11.8689V78.3676L28.1374 61.7892ZM77.4028 11.5855H61.1343V28.1639L77.4028 11.5855ZM28.1374 11.5855H11.8689V28.1639L28.1374 11.5855ZM56.2347 100.407V56.7963H99.0307L56.2347 100.407ZM94.1311 45.2108H77.8626L94.1311 28.6324V45.2108ZM44.8657 95.4145H28.5972L44.8657 78.8361V95.4145ZM94.1311 95.4145H77.8626L94.1311 78.8361V95.4145Z" fill="url(#paint0_linear_3117_81830)"/>
<defs>
<linearGradient id="paint0_linear_3117_81830" x1="0.5" y1="0" x2="328" y2="107" gradientUnits="userSpaceOnUse">
<stop offset="0.0358053" stop-color="#92844A"/>
<stop offset="0.566553" stop-color="#E0D08A"/>
<stop offset="1" stop-color="#92844A"/>
</linearGradient>
</defs>
</svg>
