<svg width="24" height="24" viewBox="0 0 24 24" fill="none" xmlns="http://www.w3.org/2000/svg">
<path d="M11.158 18.3241L11.157 18.3232C8.82507 16.2745 6.94739 14.6233 5.64424 13.0798C4.34839 11.5449 3.7 10.2063 3.7 8.79564C3.7 6.51742 5.54353 4.7 7.95 4.7C9.3122 4.7 10.6245 5.31772 11.4742 6.28448L12 6.88264L12.5258 6.28448C13.3755 5.31772 14.6878 4.7 16.05 4.7C18.4565 4.7 20.3 6.51742 20.3 8.79564C20.3 10.2063 19.6516 11.5449 18.3556 13.081C17.0524 14.6257 15.1749 16.2788 12.8432 18.3317C12.8429 18.3319 12.8427 18.3321 12.8424 18.3324L12.0018 19.0682L11.158 18.3241Z" fill="white" fill-opacity="0.2" stroke="white" stroke-width="1.4"/>
</svg>
