<svg width="24" height="24" viewBox="0 0 24 24" fill="none" xmlns="http://www.w3.org/2000/svg">
<path d="M4.50008 9.99725H4.50008V9.995C4.50008 5.86535 7.86502 2.5 12.0001 2.5C16.1349 2.5 19.5001 5.86514 19.5001 10L19.5001 10.0023C19.5137 13.0265 17.6245 15.9057 15.6417 18.0779C14.6596 19.1538 13.6751 20.0339 12.9356 20.6453C12.5662 20.9506 12.259 21.1881 12.045 21.3485C12.029 21.3605 12.0135 21.3721 11.9986 21.3832C11.358 20.913 9.78814 19.6994 8.24567 17.9976C6.3045 15.8559 4.48644 13.0281 4.50008 9.99725ZM7.50008 10C7.50008 12.4861 9.51394 14.5 12.0001 14.5C14.4862 14.5 16.5001 12.4861 16.5001 10C16.5001 7.51386 14.4862 5.5 12.0001 5.5C9.51394 5.5 7.50008 7.51386 7.50008 10Z" stroke="#767676"/>
</svg>
