<svg width="937" height="116" viewBox="0 0 937 116" fill="none" xmlns="http://www.w3.org/2000/svg">
<path fill-rule="evenodd" clip-rule="evenodd" d="M371.405 8.91129L376.374 0L437.718 107.385H415.247L376.441 40.1096L337.556 107.385H314.906L371.405 8.91129ZM645.602 107.511V4.04221H645.737L696.168 75.558L747.72 4.04221H747.99V107.511H728.404V60.0714L695.986 106.16H695.716L664.513 63.0127V107.511H645.602ZM524.497 57.9379C524.497 51.094 525.803 44.6103 528.414 38.4868C531.026 32.3633 534.628 26.9602 539.221 22.2776C543.903 17.5049 549.306 13.7677 555.43 11.0662C561.553 8.36467 568.127 7.0139 575.151 7.0139C582.085 7.0139 588.614 8.36467 594.737 11.0662C600.861 13.7677 606.264 17.5049 610.946 22.2776C615.719 26.9602 619.411 32.3633 622.023 38.4868C624.724 44.6103 626.075 51.094 626.075 57.9379C626.075 64.9619 624.724 71.5356 622.023 77.6591C619.411 83.7826 615.719 89.1856 610.946 93.8683C606.264 98.4609 600.861 102.063 594.737 104.674C588.614 107.286 582.085 108.592 575.151 108.592C568.127 108.592 561.553 107.286 555.43 104.674C549.306 102.063 543.903 98.4609 539.221 93.8683C534.628 89.1856 531.026 83.7826 528.414 77.6591C525.803 71.5356 524.497 64.9619 524.497 57.9379ZM544.759 57.9379C544.759 62.3504 545.524 66.4927 547.055 70.3649C548.676 74.1471 550.882 77.524 553.674 80.4957C556.555 83.3773 559.842 85.6286 563.534 87.2495C567.317 88.8705 571.414 89.6809 575.826 89.6809C580.059 89.6809 583.976 88.8705 587.578 87.2495C591.27 85.6286 594.467 83.3773 597.169 80.4957C599.87 77.524 601.986 74.1471 603.517 70.3649C605.048 66.4927 605.813 62.3504 605.813 57.9379C605.813 53.4353 605.003 49.2479 603.382 45.3757C601.851 41.5035 599.69 38.1266 596.898 35.245C594.197 32.2733 591 29.977 587.308 28.356C583.616 26.7351 579.609 25.9247 575.286 25.9247C570.964 25.9247 566.956 26.7351 563.264 28.356C559.572 29.977 556.33 32.2733 553.539 35.245C550.747 38.1266 548.586 41.5035 547.055 45.3757C545.524 49.2479 544.759 53.4353 544.759 57.9379ZM794.084 79.8203C792.193 76.9387 791.248 73.922 791.248 70.7702V8.09451H771.661V71.1754C771.661 78.4696 773.462 84.9532 777.064 90.6265C780.667 96.2096 785.484 100.622 791.518 103.864C797.641 107.016 804.395 108.592 811.779 108.592C819.253 108.592 826.052 107.016 832.176 103.864C838.299 100.622 843.162 96.2096 846.764 90.6265C850.366 84.9532 852.167 78.4696 852.167 71.1754V8.09451H832.851V70.7702C832.851 73.922 831.906 76.9387 830.015 79.8203C828.214 82.702 825.737 85.0433 822.585 86.8443C819.434 88.6453 815.831 89.5459 811.779 89.5459C808.087 89.5459 804.665 88.6453 801.513 86.8443C798.452 85.0433 795.975 82.702 794.084 79.8203ZM928.872 32.1382C925.09 30.067 921.218 28.356 917.255 27.0053C913.383 25.6545 909.736 24.9791 906.314 24.9791C902.082 24.9791 898.75 25.8346 896.318 27.5456C893.887 29.2566 892.671 31.823 892.671 35.245C892.671 37.5863 893.572 39.7025 895.373 41.5936C897.264 43.3946 899.65 45.0155 902.532 46.4563C905.504 47.8972 908.565 49.2029 911.717 50.3736C914.599 51.4542 917.435 52.7599 920.227 54.2908C923.109 55.7316 925.675 57.5777 927.926 59.8289C930.178 61.9902 931.979 64.7367 933.329 68.0686C934.68 71.3105 935.356 75.3178 935.356 80.0905C935.356 85.1333 934.05 89.816 931.438 94.1385C928.827 98.4609 925 101.973 919.957 104.674C914.914 107.286 908.7 108.592 901.316 108.592C897.534 108.592 893.662 108.231 889.7 107.511C885.827 106.701 882 105.53 878.218 103.999C874.436 102.378 870.789 100.352 867.277 97.9206L875.922 82.6569C878.263 84.3679 880.784 85.8988 883.486 87.2495C886.278 88.5103 889.069 89.5008 891.861 90.2212C894.652 90.9417 897.219 91.3019 899.56 91.3019C901.902 91.3019 904.243 90.9867 906.584 90.3563C909.016 89.6359 910.997 88.4652 912.528 86.8443C914.149 85.2234 914.959 82.9721 914.959 80.0905C914.959 78.1093 914.284 76.3083 912.933 74.6874C911.672 73.0665 909.916 71.5806 907.665 70.2299C905.504 68.8791 903.117 67.7084 900.506 66.7179C897.444 65.5472 894.292 64.1964 891.05 62.6656C887.808 61.1347 884.747 59.2886 881.865 57.1274C879.073 54.8761 876.777 52.1296 874.976 48.8877C873.265 45.5558 872.41 41.5035 872.41 36.7308C872.41 30.9675 873.67 25.9697 876.192 21.7373C878.803 17.5049 882.45 14.173 887.133 11.7416C891.816 9.22015 897.219 7.82436 903.342 7.55421C911.357 7.55421 917.841 8.49974 922.793 10.3908C927.836 12.2819 932.339 14.5332 936.301 17.1447L928.872 32.1382ZM301.514 111.565L231.963 48.7448L232.354 107.513H212.498V4.17909H213.309L282.724 68.001L282.333 8.09632H302.054V111.565H301.514ZM91.3932 57.9397C91.3932 51.0958 92.699 44.6121 95.3104 38.4886C97.9219 32.3651 101.524 26.9621 106.117 22.2794C110.799 17.5067 116.202 13.7696 122.326 11.068C128.449 8.36648 135.023 7.01571 142.047 7.01571C148.981 7.01571 155.51 8.36648 161.633 11.068C167.757 13.7696 173.16 17.5067 177.842 22.2794C182.615 26.9621 186.307 32.3651 188.919 38.4886C191.62 44.6121 192.971 51.0958 192.971 57.9397C192.971 64.9637 191.62 71.5374 188.919 77.6609C186.307 83.7844 182.615 89.1875 177.842 93.8701C173.16 98.4627 167.757 102.065 161.633 104.676C155.51 107.288 148.981 108.593 142.047 108.593C135.023 108.593 128.449 107.288 122.326 104.676C116.202 102.065 110.799 98.4627 106.117 93.8701C101.524 89.1875 97.9219 83.7844 95.3104 77.6609C92.699 71.5374 91.3932 64.9637 91.3932 57.9397ZM111.655 57.9397C111.655 62.3522 112.42 66.4945 113.951 70.3668C115.572 74.1489 117.778 77.5258 120.57 80.4975C123.451 83.3792 126.738 85.6304 130.43 87.2514C134.213 88.8723 138.31 89.6827 142.722 89.6827C146.955 89.6827 150.872 88.8723 154.474 87.2514C158.166 85.6304 161.363 83.3792 164.065 80.4975C166.766 77.5258 168.882 74.1489 170.413 70.3668C171.944 66.4945 172.709 62.3522 172.709 57.9397C172.709 53.4371 171.899 49.2497 170.278 45.3775C168.747 41.5053 166.586 38.1284 163.794 35.2468C161.093 32.2751 157.896 29.9788 154.204 28.3579C150.512 26.7369 146.505 25.9265 142.182 25.9265C137.86 25.9265 133.852 26.7369 130.16 28.3579C126.468 29.9788 123.226 32.2751 120.435 35.2468C117.643 38.1284 115.482 41.5053 113.951 45.3775C112.42 49.2497 111.655 53.4371 111.655 57.9397ZM63.9105 14.4451C57.787 10.2127 49.5474 8.09649 39.1915 8.09649H0.699219V107.513H43.1087C47.5212 107.513 51.7986 107.018 55.941 106.027C60.0833 104.947 63.7754 103.281 67.0173 101.029C70.3492 98.688 72.9607 95.6713 74.8518 91.9792C76.8329 88.1971 77.8234 83.6045 77.8234 78.2014C77.8234 72.3481 75.9774 67.3502 72.2853 63.2079C69.4215 59.9249 65.745 57.238 61.2557 55.147C64.15 53.3472 66.5658 51.1263 68.5031 48.4845C71.5649 44.3421 73.0957 39.2092 73.0957 33.0857C73.0957 24.801 70.034 18.5875 63.9105 14.4451ZM49.9976 45.2426C48.1966 47.584 45.36 48.7546 41.4878 48.7546H20.2854V27.0073H40.137C44.0092 27.0073 47.0709 27.8627 49.3222 29.5737C51.6636 31.2847 52.8342 33.8512 52.8342 37.2731C52.8342 40.2448 51.8887 42.9013 49.9976 45.2426ZM49.9976 88.1971C47.6563 88.9175 45.0448 89.2777 42.1631 89.2777H20.2854V67.6654H40.8124C43.604 67.6654 46.2605 67.9806 48.7819 68.6109C51.3934 69.1512 53.5096 70.1868 55.1305 71.7177C56.7515 73.1585 57.5619 75.3197 57.5619 78.2014C57.5619 80.7228 56.8865 82.839 55.5358 84.55C54.185 86.1709 52.3389 87.3866 49.9976 88.1971ZM509.787 8.46421V8.46461L527.576 8.46461L471.076 106.938L466.107 115.85L404.764 8.46432L425.457 8.46421H509.787ZM438.107 27.3151L494.029 27.3151L466.04 75.7402L438.107 27.3151Z" fill="url(#paint0_linear_2004_2070)"/>
<defs>
<linearGradient id="paint0_linear_2004_2070" x1="468.5" y1="0" x2="468.5" y2="115.85" gradientUnits="userSpaceOnUse">
<stop stop-color="white"/>
<stop offset="1" stop-color="white" stop-opacity="0"/>
</linearGradient>
</defs>
</svg>
