<svg width="16" height="20" viewBox="0 0 16 20" fill="none" xmlns="http://www.w3.org/2000/svg">
<path fill-rule="evenodd" clip-rule="evenodd" d="M14.5 3.5C14.5 4.32843 13.8284 5 13 5C12.1716 5 11.5 4.32843 11.5 3.5C11.5 2.67157 12.1716 2 13 2C13.8284 2 14.5 2.67157 14.5 3.5ZM16 3.5C16 5.15685 14.6569 6.5 13 6.5C12.367 6.5 11.7798 6.30394 11.2957 5.96924L11.3999 6.1345L5.86898 9.62037C5.95416 9.89855 6 10.1939 6 10.5C6 10.9265 5.91101 11.3321 5.7506 11.6995L10.7591 14.5054C11.3086 13.8885 12.1089 13.5 13 13.5C14.6569 13.5 16 14.8431 16 16.5C16 18.1569 14.6569 19.5 13 19.5C11.3431 19.5 10 18.1569 10 16.5C10 16.2733 10.0251 16.0525 10.0728 15.8402L4.8106 12.8922C4.3074 13.2737 3.68013 13.5 3 13.5C1.34315 13.5 0 12.1569 0 10.5C0 8.84315 1.34315 7.5 3 7.5C3.80962 7.5 4.54433 7.82071 5.08403 8.34203L10.3974 4.99323C10.1446 4.55351 10 4.04364 10 3.5C10 1.84315 11.3431 0.5 13 0.5C14.6569 0.5 16 1.84315 16 3.5ZM13 18C13.8284 18 14.5 17.3284 14.5 16.5C14.5 15.6716 13.8284 15 13 15C12.1716 15 11.5 15.6716 11.5 16.5C11.5 17.3284 12.1716 18 13 18ZM4.5 10.5C4.5 11.3284 3.82843 12 3 12C2.17157 12 1.5 11.3284 1.5 10.5C1.5 9.67157 2.17157 9 3 9C3.82843 9 4.5 9.67157 4.5 10.5Z" fill="black"/>
</svg>
